%TF.GenerationSoftware,KiCad,Pcbnew,(5.1.7)-1*%
%TF.CreationDate,2020-11-23T17:16:41+01:00*%
%TF.ProjectId,control,636f6e74-726f-46c2-9e6b-696361645f70,rev?*%
%TF.SameCoordinates,Original*%
%TF.FileFunction,Legend,Bot*%
%TF.FilePolarity,Positive*%
%FSLAX46Y46*%
G04 Gerber Fmt 4.6, Leading zero omitted, Abs format (unit mm)*
G04 Created by KiCad (PCBNEW (5.1.7)-1) date 2020-11-23 17:16:41*
%MOMM*%
%LPD*%
G01*
G04 APERTURE LIST*
%ADD10C,0.150000*%
%ADD11C,0.120000*%
G04 APERTURE END LIST*
D10*
%TO.C,U3*%
X157251200Y-82519800D02*
X157251200Y-80919800D01*
X167326200Y-82519800D02*
X167326200Y-88269800D01*
X156676200Y-82519800D02*
X156676200Y-88269800D01*
X167326200Y-82519800D02*
X166676200Y-82519800D01*
X167326200Y-88269800D02*
X166676200Y-88269800D01*
X156676200Y-88269800D02*
X157326200Y-88269800D01*
X156676200Y-82519800D02*
X157251200Y-82519800D01*
%TO.C,U2*%
X119587476Y-87934800D02*
X119746575Y-87775701D01*
X124714000Y-93061324D02*
X124943810Y-92831514D01*
X129840524Y-87934800D02*
X129610714Y-88164610D01*
X124714000Y-82808276D02*
X124484190Y-83038086D01*
X119587476Y-87934800D02*
X119817286Y-88164610D01*
X124714000Y-82808276D02*
X124943810Y-83038086D01*
X129840524Y-87934800D02*
X129610714Y-87704990D01*
X124714000Y-93061324D02*
X124484190Y-92831514D01*
X119746575Y-87775701D02*
X118738948Y-86768074D01*
D11*
%TO.C,C7*%
X132130852Y-92866800D02*
X130708348Y-92866800D01*
X132130852Y-94686800D02*
X130708348Y-94686800D01*
%TO.C,C9*%
X118207200Y-81787948D02*
X118207200Y-83210452D01*
X116387200Y-81787948D02*
X116387200Y-83210452D01*
%TO.C,C11*%
X155545200Y-84581948D02*
X155545200Y-86004452D01*
X153725200Y-84581948D02*
X153725200Y-86004452D01*
%TO.C,Y2*%
X124529600Y-75616800D02*
X124529600Y-78916800D01*
X124529600Y-78916800D02*
X120529600Y-78916800D01*
%TO.C,C8*%
X126083600Y-77305780D02*
X126083600Y-77024620D01*
X127103600Y-77305780D02*
X127103600Y-77024620D01*
%TO.C,C10*%
X118057200Y-77177020D02*
X118057200Y-77458180D01*
X119077200Y-77177020D02*
X119077200Y-77458180D01*
%TO.C,R8*%
X149125000Y-94108536D02*
X149125000Y-94562664D01*
X150595000Y-94108536D02*
X150595000Y-94562664D01*
%TO.C,R9*%
X148055000Y-94159336D02*
X148055000Y-94613464D01*
X146585000Y-94159336D02*
X146585000Y-94613464D01*
%TO.C,U3*%
D10*
X155203580Y-84632895D02*
X156013104Y-84632895D01*
X156108342Y-84680514D01*
X156155961Y-84728133D01*
X156203580Y-84823371D01*
X156203580Y-85013847D01*
X156155961Y-85109085D01*
X156108342Y-85156704D01*
X156013104Y-85204323D01*
X155203580Y-85204323D01*
X155203580Y-85585276D02*
X155203580Y-86204323D01*
X155584533Y-85870990D01*
X155584533Y-86013847D01*
X155632152Y-86109085D01*
X155679771Y-86156704D01*
X155775009Y-86204323D01*
X156013104Y-86204323D01*
X156108342Y-86156704D01*
X156155961Y-86109085D01*
X156203580Y-86013847D01*
X156203580Y-85728133D01*
X156155961Y-85632895D01*
X156108342Y-85585276D01*
%TO.C,U2*%
X121361977Y-92364318D02*
X120789557Y-92936738D01*
X120688542Y-92970410D01*
X120621198Y-92970410D01*
X120520183Y-92936738D01*
X120385496Y-92802051D01*
X120351824Y-92701036D01*
X120351824Y-92633692D01*
X120385496Y-92532677D01*
X120957916Y-91960257D01*
X120587526Y-91724555D02*
X120587526Y-91657212D01*
X120553855Y-91556196D01*
X120385496Y-91387838D01*
X120284481Y-91354166D01*
X120217137Y-91354166D01*
X120116122Y-91387838D01*
X120048778Y-91455181D01*
X119981435Y-91589868D01*
X119981435Y-92397990D01*
X119543702Y-91960257D01*
%TO.C,C7*%
X131586266Y-92283942D02*
X131633885Y-92331561D01*
X131776742Y-92379180D01*
X131871980Y-92379180D01*
X132014838Y-92331561D01*
X132110076Y-92236323D01*
X132157695Y-92141085D01*
X132205314Y-91950609D01*
X132205314Y-91807752D01*
X132157695Y-91617276D01*
X132110076Y-91522038D01*
X132014838Y-91426800D01*
X131871980Y-91379180D01*
X131776742Y-91379180D01*
X131633885Y-91426800D01*
X131586266Y-91474419D01*
X131252933Y-91379180D02*
X130586266Y-91379180D01*
X131014838Y-92379180D01*
%TO.C,C9*%
X115804342Y-82332533D02*
X115851961Y-82284914D01*
X115899580Y-82142057D01*
X115899580Y-82046819D01*
X115851961Y-81903961D01*
X115756723Y-81808723D01*
X115661485Y-81761104D01*
X115471009Y-81713485D01*
X115328152Y-81713485D01*
X115137676Y-81761104D01*
X115042438Y-81808723D01*
X114947200Y-81903961D01*
X114899580Y-82046819D01*
X114899580Y-82142057D01*
X114947200Y-82284914D01*
X114994819Y-82332533D01*
X115899580Y-82808723D02*
X115899580Y-82999200D01*
X115851961Y-83094438D01*
X115804342Y-83142057D01*
X115661485Y-83237295D01*
X115471009Y-83284914D01*
X115090057Y-83284914D01*
X114994819Y-83237295D01*
X114947200Y-83189676D01*
X114899580Y-83094438D01*
X114899580Y-82903961D01*
X114947200Y-82808723D01*
X114994819Y-82761104D01*
X115090057Y-82713485D01*
X115328152Y-82713485D01*
X115423390Y-82761104D01*
X115471009Y-82808723D01*
X115518628Y-82903961D01*
X115518628Y-83094438D01*
X115471009Y-83189676D01*
X115423390Y-83237295D01*
X115328152Y-83284914D01*
%TO.C,C11*%
X153142342Y-84650342D02*
X153189961Y-84602723D01*
X153237580Y-84459866D01*
X153237580Y-84364628D01*
X153189961Y-84221771D01*
X153094723Y-84126533D01*
X152999485Y-84078914D01*
X152809009Y-84031295D01*
X152666152Y-84031295D01*
X152475676Y-84078914D01*
X152380438Y-84126533D01*
X152285200Y-84221771D01*
X152237580Y-84364628D01*
X152237580Y-84459866D01*
X152285200Y-84602723D01*
X152332819Y-84650342D01*
X153237580Y-85602723D02*
X153237580Y-85031295D01*
X153237580Y-85317009D02*
X152237580Y-85317009D01*
X152380438Y-85221771D01*
X152475676Y-85126533D01*
X152523295Y-85031295D01*
X153237580Y-86555104D02*
X153237580Y-85983676D01*
X153237580Y-86269390D02*
X152237580Y-86269390D01*
X152380438Y-86174152D01*
X152475676Y-86078914D01*
X152523295Y-85983676D01*
%TO.C,Y2*%
X123005790Y-74792990D02*
X123005790Y-75269180D01*
X123339123Y-74269180D02*
X123005790Y-74792990D01*
X122672457Y-74269180D01*
X122386742Y-74364419D02*
X122339123Y-74316800D01*
X122243885Y-74269180D01*
X122005790Y-74269180D01*
X121910552Y-74316800D01*
X121862933Y-74364419D01*
X121815314Y-74459657D01*
X121815314Y-74554895D01*
X121862933Y-74697752D01*
X122434361Y-75269180D01*
X121815314Y-75269180D01*
%TO.C,C8*%
X128380742Y-76998533D02*
X128428361Y-76950914D01*
X128475980Y-76808057D01*
X128475980Y-76712819D01*
X128428361Y-76569961D01*
X128333123Y-76474723D01*
X128237885Y-76427104D01*
X128047409Y-76379485D01*
X127904552Y-76379485D01*
X127714076Y-76427104D01*
X127618838Y-76474723D01*
X127523600Y-76569961D01*
X127475980Y-76712819D01*
X127475980Y-76808057D01*
X127523600Y-76950914D01*
X127571219Y-76998533D01*
X127904552Y-77569961D02*
X127856933Y-77474723D01*
X127809314Y-77427104D01*
X127714076Y-77379485D01*
X127666457Y-77379485D01*
X127571219Y-77427104D01*
X127523600Y-77474723D01*
X127475980Y-77569961D01*
X127475980Y-77760438D01*
X127523600Y-77855676D01*
X127571219Y-77903295D01*
X127666457Y-77950914D01*
X127714076Y-77950914D01*
X127809314Y-77903295D01*
X127856933Y-77855676D01*
X127904552Y-77760438D01*
X127904552Y-77569961D01*
X127952171Y-77474723D01*
X127999790Y-77427104D01*
X128095028Y-77379485D01*
X128285504Y-77379485D01*
X128380742Y-77427104D01*
X128428361Y-77474723D01*
X128475980Y-77569961D01*
X128475980Y-77760438D01*
X128428361Y-77855676D01*
X128380742Y-77903295D01*
X128285504Y-77950914D01*
X128095028Y-77950914D01*
X127999790Y-77903295D01*
X127952171Y-77855676D01*
X127904552Y-77760438D01*
%TO.C,C10*%
X117494342Y-76674742D02*
X117541961Y-76627123D01*
X117589580Y-76484266D01*
X117589580Y-76389028D01*
X117541961Y-76246171D01*
X117446723Y-76150933D01*
X117351485Y-76103314D01*
X117161009Y-76055695D01*
X117018152Y-76055695D01*
X116827676Y-76103314D01*
X116732438Y-76150933D01*
X116637200Y-76246171D01*
X116589580Y-76389028D01*
X116589580Y-76484266D01*
X116637200Y-76627123D01*
X116684819Y-76674742D01*
X117589580Y-77627123D02*
X117589580Y-77055695D01*
X117589580Y-77341409D02*
X116589580Y-77341409D01*
X116732438Y-77246171D01*
X116827676Y-77150933D01*
X116875295Y-77055695D01*
X116589580Y-78246171D02*
X116589580Y-78341409D01*
X116637200Y-78436647D01*
X116684819Y-78484266D01*
X116780057Y-78531885D01*
X116970533Y-78579504D01*
X117208628Y-78579504D01*
X117399104Y-78531885D01*
X117494342Y-78484266D01*
X117541961Y-78436647D01*
X117589580Y-78341409D01*
X117589580Y-78246171D01*
X117541961Y-78150933D01*
X117494342Y-78103314D01*
X117399104Y-78055695D01*
X117208628Y-78008076D01*
X116970533Y-78008076D01*
X116780057Y-78055695D01*
X116684819Y-78103314D01*
X116637200Y-78150933D01*
X116589580Y-78246171D01*
%TO.C,R8*%
X148662380Y-94168933D02*
X148186190Y-93835600D01*
X148662380Y-93597504D02*
X147662380Y-93597504D01*
X147662380Y-93978457D01*
X147710000Y-94073695D01*
X147757619Y-94121314D01*
X147852857Y-94168933D01*
X147995714Y-94168933D01*
X148090952Y-94121314D01*
X148138571Y-94073695D01*
X148186190Y-93978457D01*
X148186190Y-93597504D01*
X148090952Y-94740361D02*
X148043333Y-94645123D01*
X147995714Y-94597504D01*
X147900476Y-94549885D01*
X147852857Y-94549885D01*
X147757619Y-94597504D01*
X147710000Y-94645123D01*
X147662380Y-94740361D01*
X147662380Y-94930838D01*
X147710000Y-95026076D01*
X147757619Y-95073695D01*
X147852857Y-95121314D01*
X147900476Y-95121314D01*
X147995714Y-95073695D01*
X148043333Y-95026076D01*
X148090952Y-94930838D01*
X148090952Y-94740361D01*
X148138571Y-94645123D01*
X148186190Y-94597504D01*
X148281428Y-94549885D01*
X148471904Y-94549885D01*
X148567142Y-94597504D01*
X148614761Y-94645123D01*
X148662380Y-94740361D01*
X148662380Y-94930838D01*
X148614761Y-95026076D01*
X148567142Y-95073695D01*
X148471904Y-95121314D01*
X148281428Y-95121314D01*
X148186190Y-95073695D01*
X148138571Y-95026076D01*
X148090952Y-94930838D01*
%TO.C,R9*%
X146122380Y-94219733D02*
X145646190Y-93886400D01*
X146122380Y-93648304D02*
X145122380Y-93648304D01*
X145122380Y-94029257D01*
X145170000Y-94124495D01*
X145217619Y-94172114D01*
X145312857Y-94219733D01*
X145455714Y-94219733D01*
X145550952Y-94172114D01*
X145598571Y-94124495D01*
X145646190Y-94029257D01*
X145646190Y-93648304D01*
X146122380Y-94695923D02*
X146122380Y-94886400D01*
X146074761Y-94981638D01*
X146027142Y-95029257D01*
X145884285Y-95124495D01*
X145693809Y-95172114D01*
X145312857Y-95172114D01*
X145217619Y-95124495D01*
X145170000Y-95076876D01*
X145122380Y-94981638D01*
X145122380Y-94791161D01*
X145170000Y-94695923D01*
X145217619Y-94648304D01*
X145312857Y-94600685D01*
X145550952Y-94600685D01*
X145646190Y-94648304D01*
X145693809Y-94695923D01*
X145741428Y-94791161D01*
X145741428Y-94981638D01*
X145693809Y-95076876D01*
X145646190Y-95124495D01*
X145550952Y-95172114D01*
%TD*%
M02*
