%TF.GenerationSoftware,KiCad,Pcbnew,(5.1.7)-1*%
%TF.CreationDate,2020-11-23T17:16:41+01:00*%
%TF.ProjectId,control,636f6e74-726f-46c2-9e6b-696361645f70,rev?*%
%TF.SameCoordinates,Original*%
%TF.FileFunction,Soldermask,Top*%
%TF.FilePolarity,Negative*%
%FSLAX46Y46*%
G04 Gerber Fmt 4.6, Leading zero omitted, Abs format (unit mm)*
G04 Created by KiCad (PCBNEW (5.1.7)-1) date 2020-11-23 17:16:41*
%MOMM*%
%LPD*%
G01*
G04 APERTURE LIST*
%ADD10R,1.900000X1.800000*%
%ADD11R,1.900000X2.300000*%
%ADD12R,1.400000X0.400000*%
%ADD13R,2.500000X2.500000*%
%ADD14C,2.500000*%
%ADD15R,1.700000X1.700000*%
%ADD16O,1.700000X1.700000*%
%ADD17R,2.000000X3.800000*%
%ADD18R,2.000000X1.500000*%
%ADD19R,1.200000X1.400000*%
%ADD20R,2.180000X1.600000*%
G04 APERTURE END LIST*
%TO.C,U1*%
G36*
G01*
X135943200Y-89742600D02*
X136243200Y-89742600D01*
G75*
G02*
X136393200Y-89892600I0J-150000D01*
G01*
X136393200Y-91542600D01*
G75*
G02*
X136243200Y-91692600I-150000J0D01*
G01*
X135943200Y-91692600D01*
G75*
G02*
X135793200Y-91542600I0J150000D01*
G01*
X135793200Y-89892600D01*
G75*
G02*
X135943200Y-89742600I150000J0D01*
G01*
G37*
G36*
G01*
X134673200Y-89742600D02*
X134973200Y-89742600D01*
G75*
G02*
X135123200Y-89892600I0J-150000D01*
G01*
X135123200Y-91542600D01*
G75*
G02*
X134973200Y-91692600I-150000J0D01*
G01*
X134673200Y-91692600D01*
G75*
G02*
X134523200Y-91542600I0J150000D01*
G01*
X134523200Y-89892600D01*
G75*
G02*
X134673200Y-89742600I150000J0D01*
G01*
G37*
G36*
G01*
X133403200Y-89742600D02*
X133703200Y-89742600D01*
G75*
G02*
X133853200Y-89892600I0J-150000D01*
G01*
X133853200Y-91542600D01*
G75*
G02*
X133703200Y-91692600I-150000J0D01*
G01*
X133403200Y-91692600D01*
G75*
G02*
X133253200Y-91542600I0J150000D01*
G01*
X133253200Y-89892600D01*
G75*
G02*
X133403200Y-89742600I150000J0D01*
G01*
G37*
G36*
G01*
X132133200Y-89742600D02*
X132433200Y-89742600D01*
G75*
G02*
X132583200Y-89892600I0J-150000D01*
G01*
X132583200Y-91542600D01*
G75*
G02*
X132433200Y-91692600I-150000J0D01*
G01*
X132133200Y-91692600D01*
G75*
G02*
X131983200Y-91542600I0J150000D01*
G01*
X131983200Y-89892600D01*
G75*
G02*
X132133200Y-89742600I150000J0D01*
G01*
G37*
G36*
G01*
X130863200Y-89742600D02*
X131163200Y-89742600D01*
G75*
G02*
X131313200Y-89892600I0J-150000D01*
G01*
X131313200Y-91542600D01*
G75*
G02*
X131163200Y-91692600I-150000J0D01*
G01*
X130863200Y-91692600D01*
G75*
G02*
X130713200Y-91542600I0J150000D01*
G01*
X130713200Y-89892600D01*
G75*
G02*
X130863200Y-89742600I150000J0D01*
G01*
G37*
G36*
G01*
X129593200Y-89742600D02*
X129893200Y-89742600D01*
G75*
G02*
X130043200Y-89892600I0J-150000D01*
G01*
X130043200Y-91542600D01*
G75*
G02*
X129893200Y-91692600I-150000J0D01*
G01*
X129593200Y-91692600D01*
G75*
G02*
X129443200Y-91542600I0J150000D01*
G01*
X129443200Y-89892600D01*
G75*
G02*
X129593200Y-89742600I150000J0D01*
G01*
G37*
G36*
G01*
X128323200Y-89742600D02*
X128623200Y-89742600D01*
G75*
G02*
X128773200Y-89892600I0J-150000D01*
G01*
X128773200Y-91542600D01*
G75*
G02*
X128623200Y-91692600I-150000J0D01*
G01*
X128323200Y-91692600D01*
G75*
G02*
X128173200Y-91542600I0J150000D01*
G01*
X128173200Y-89892600D01*
G75*
G02*
X128323200Y-89742600I150000J0D01*
G01*
G37*
G36*
G01*
X127053200Y-89742600D02*
X127353200Y-89742600D01*
G75*
G02*
X127503200Y-89892600I0J-150000D01*
G01*
X127503200Y-91542600D01*
G75*
G02*
X127353200Y-91692600I-150000J0D01*
G01*
X127053200Y-91692600D01*
G75*
G02*
X126903200Y-91542600I0J150000D01*
G01*
X126903200Y-89892600D01*
G75*
G02*
X127053200Y-89742600I150000J0D01*
G01*
G37*
G36*
G01*
X127053200Y-94692600D02*
X127353200Y-94692600D01*
G75*
G02*
X127503200Y-94842600I0J-150000D01*
G01*
X127503200Y-96492600D01*
G75*
G02*
X127353200Y-96642600I-150000J0D01*
G01*
X127053200Y-96642600D01*
G75*
G02*
X126903200Y-96492600I0J150000D01*
G01*
X126903200Y-94842600D01*
G75*
G02*
X127053200Y-94692600I150000J0D01*
G01*
G37*
G36*
G01*
X128323200Y-94692600D02*
X128623200Y-94692600D01*
G75*
G02*
X128773200Y-94842600I0J-150000D01*
G01*
X128773200Y-96492600D01*
G75*
G02*
X128623200Y-96642600I-150000J0D01*
G01*
X128323200Y-96642600D01*
G75*
G02*
X128173200Y-96492600I0J150000D01*
G01*
X128173200Y-94842600D01*
G75*
G02*
X128323200Y-94692600I150000J0D01*
G01*
G37*
G36*
G01*
X129593200Y-94692600D02*
X129893200Y-94692600D01*
G75*
G02*
X130043200Y-94842600I0J-150000D01*
G01*
X130043200Y-96492600D01*
G75*
G02*
X129893200Y-96642600I-150000J0D01*
G01*
X129593200Y-96642600D01*
G75*
G02*
X129443200Y-96492600I0J150000D01*
G01*
X129443200Y-94842600D01*
G75*
G02*
X129593200Y-94692600I150000J0D01*
G01*
G37*
G36*
G01*
X130863200Y-94692600D02*
X131163200Y-94692600D01*
G75*
G02*
X131313200Y-94842600I0J-150000D01*
G01*
X131313200Y-96492600D01*
G75*
G02*
X131163200Y-96642600I-150000J0D01*
G01*
X130863200Y-96642600D01*
G75*
G02*
X130713200Y-96492600I0J150000D01*
G01*
X130713200Y-94842600D01*
G75*
G02*
X130863200Y-94692600I150000J0D01*
G01*
G37*
G36*
G01*
X132133200Y-94692600D02*
X132433200Y-94692600D01*
G75*
G02*
X132583200Y-94842600I0J-150000D01*
G01*
X132583200Y-96492600D01*
G75*
G02*
X132433200Y-96642600I-150000J0D01*
G01*
X132133200Y-96642600D01*
G75*
G02*
X131983200Y-96492600I0J150000D01*
G01*
X131983200Y-94842600D01*
G75*
G02*
X132133200Y-94692600I150000J0D01*
G01*
G37*
G36*
G01*
X133403200Y-94692600D02*
X133703200Y-94692600D01*
G75*
G02*
X133853200Y-94842600I0J-150000D01*
G01*
X133853200Y-96492600D01*
G75*
G02*
X133703200Y-96642600I-150000J0D01*
G01*
X133403200Y-96642600D01*
G75*
G02*
X133253200Y-96492600I0J150000D01*
G01*
X133253200Y-94842600D01*
G75*
G02*
X133403200Y-94692600I150000J0D01*
G01*
G37*
G36*
G01*
X134673200Y-94692600D02*
X134973200Y-94692600D01*
G75*
G02*
X135123200Y-94842600I0J-150000D01*
G01*
X135123200Y-96492600D01*
G75*
G02*
X134973200Y-96642600I-150000J0D01*
G01*
X134673200Y-96642600D01*
G75*
G02*
X134523200Y-96492600I0J150000D01*
G01*
X134523200Y-94842600D01*
G75*
G02*
X134673200Y-94692600I150000J0D01*
G01*
G37*
G36*
G01*
X135943200Y-94692600D02*
X136243200Y-94692600D01*
G75*
G02*
X136393200Y-94842600I0J-150000D01*
G01*
X136393200Y-96492600D01*
G75*
G02*
X136243200Y-96642600I-150000J0D01*
G01*
X135943200Y-96642600D01*
G75*
G02*
X135793200Y-96492600I0J150000D01*
G01*
X135793200Y-94842600D01*
G75*
G02*
X135943200Y-94692600I150000J0D01*
G01*
G37*
%TD*%
%TO.C,C1*%
G36*
G01*
X139765801Y-95242600D02*
X138465799Y-95242600D01*
G75*
G02*
X138215800Y-94992601I0J249999D01*
G01*
X138215800Y-94342599D01*
G75*
G02*
X138465799Y-94092600I249999J0D01*
G01*
X139765801Y-94092600D01*
G75*
G02*
X140015800Y-94342599I0J-249999D01*
G01*
X140015800Y-94992601D01*
G75*
G02*
X139765801Y-95242600I-249999J0D01*
G01*
G37*
G36*
G01*
X139765801Y-92292600D02*
X138465799Y-92292600D01*
G75*
G02*
X138215800Y-92042601I0J249999D01*
G01*
X138215800Y-91392599D01*
G75*
G02*
X138465799Y-91142600I249999J0D01*
G01*
X139765801Y-91142600D01*
G75*
G02*
X140015800Y-91392599I0J-249999D01*
G01*
X140015800Y-92042601D01*
G75*
G02*
X139765801Y-92292600I-249999J0D01*
G01*
G37*
%TD*%
%TO.C,C3*%
G36*
G01*
X119522001Y-72810800D02*
X118221999Y-72810800D01*
G75*
G02*
X117972000Y-72560801I0J249999D01*
G01*
X117972000Y-71910799D01*
G75*
G02*
X118221999Y-71660800I249999J0D01*
G01*
X119522001Y-71660800D01*
G75*
G02*
X119772000Y-71910799I0J-249999D01*
G01*
X119772000Y-72560801D01*
G75*
G02*
X119522001Y-72810800I-249999J0D01*
G01*
G37*
G36*
G01*
X119522001Y-75760800D02*
X118221999Y-75760800D01*
G75*
G02*
X117972000Y-75510801I0J249999D01*
G01*
X117972000Y-74860799D01*
G75*
G02*
X118221999Y-74610800I249999J0D01*
G01*
X119522001Y-74610800D01*
G75*
G02*
X119772000Y-74860799I0J-249999D01*
G01*
X119772000Y-75510801D01*
G75*
G02*
X119522001Y-75760800I-249999J0D01*
G01*
G37*
%TD*%
%TO.C,C5*%
G36*
G01*
X127471600Y-85862399D02*
X127471600Y-87162401D01*
G75*
G02*
X127221601Y-87412400I-249999J0D01*
G01*
X126571599Y-87412400D01*
G75*
G02*
X126321600Y-87162401I0J249999D01*
G01*
X126321600Y-85862399D01*
G75*
G02*
X126571599Y-85612400I249999J0D01*
G01*
X127221601Y-85612400D01*
G75*
G02*
X127471600Y-85862399I0J-249999D01*
G01*
G37*
G36*
G01*
X130421600Y-85862399D02*
X130421600Y-87162401D01*
G75*
G02*
X130171601Y-87412400I-249999J0D01*
G01*
X129521599Y-87412400D01*
G75*
G02*
X129271600Y-87162401I0J249999D01*
G01*
X129271600Y-85862399D01*
G75*
G02*
X129521599Y-85612400I249999J0D01*
G01*
X130171601Y-85612400D01*
G75*
G02*
X130421600Y-85862399I0J-249999D01*
G01*
G37*
%TD*%
%TO.C,C6*%
G36*
G01*
X123179601Y-75760800D02*
X121879599Y-75760800D01*
G75*
G02*
X121629600Y-75510801I0J249999D01*
G01*
X121629600Y-74860799D01*
G75*
G02*
X121879599Y-74610800I249999J0D01*
G01*
X123179601Y-74610800D01*
G75*
G02*
X123429600Y-74860799I0J-249999D01*
G01*
X123429600Y-75510801D01*
G75*
G02*
X123179601Y-75760800I-249999J0D01*
G01*
G37*
G36*
G01*
X123179601Y-72810800D02*
X121879599Y-72810800D01*
G75*
G02*
X121629600Y-72560801I0J249999D01*
G01*
X121629600Y-71910799D01*
G75*
G02*
X121879599Y-71660800I249999J0D01*
G01*
X123179601Y-71660800D01*
G75*
G02*
X123429600Y-71910799I0J-249999D01*
G01*
X123429600Y-72560801D01*
G75*
G02*
X123179601Y-72810800I-249999J0D01*
G01*
G37*
%TD*%
%TO.C,D1*%
G36*
G01*
X138884600Y-86460650D02*
X138884600Y-85548150D01*
G75*
G02*
X139128350Y-85304400I243750J0D01*
G01*
X139615850Y-85304400D01*
G75*
G02*
X139859600Y-85548150I0J-243750D01*
G01*
X139859600Y-86460650D01*
G75*
G02*
X139615850Y-86704400I-243750J0D01*
G01*
X139128350Y-86704400D01*
G75*
G02*
X138884600Y-86460650I0J243750D01*
G01*
G37*
G36*
G01*
X140759600Y-86460650D02*
X140759600Y-85548150D01*
G75*
G02*
X141003350Y-85304400I243750J0D01*
G01*
X141490850Y-85304400D01*
G75*
G02*
X141734600Y-85548150I0J-243750D01*
G01*
X141734600Y-86460650D01*
G75*
G02*
X141490850Y-86704400I-243750J0D01*
G01*
X141003350Y-86704400D01*
G75*
G02*
X140759600Y-86460650I0J243750D01*
G01*
G37*
%TD*%
%TO.C,D2*%
G36*
G01*
X140759600Y-84174650D02*
X140759600Y-83262150D01*
G75*
G02*
X141003350Y-83018400I243750J0D01*
G01*
X141490850Y-83018400D01*
G75*
G02*
X141734600Y-83262150I0J-243750D01*
G01*
X141734600Y-84174650D01*
G75*
G02*
X141490850Y-84418400I-243750J0D01*
G01*
X141003350Y-84418400D01*
G75*
G02*
X140759600Y-84174650I0J243750D01*
G01*
G37*
G36*
G01*
X138884600Y-84174650D02*
X138884600Y-83262150D01*
G75*
G02*
X139128350Y-83018400I243750J0D01*
G01*
X139615850Y-83018400D01*
G75*
G02*
X139859600Y-83262150I0J-243750D01*
G01*
X139859600Y-84174650D01*
G75*
G02*
X139615850Y-84418400I-243750J0D01*
G01*
X139128350Y-84418400D01*
G75*
G02*
X138884600Y-84174650I0J243750D01*
G01*
G37*
%TD*%
%TO.C,F1*%
G36*
G01*
X109212400Y-83898401D02*
X109212400Y-80998399D01*
G75*
G02*
X109462399Y-80748400I249999J0D01*
G01*
X110087401Y-80748400D01*
G75*
G02*
X110337400Y-80998399I0J-249999D01*
G01*
X110337400Y-83898401D01*
G75*
G02*
X110087401Y-84148400I-249999J0D01*
G01*
X109462399Y-84148400D01*
G75*
G02*
X109212400Y-83898401I0J249999D01*
G01*
G37*
G36*
G01*
X113487400Y-83898401D02*
X113487400Y-80998399D01*
G75*
G02*
X113737399Y-80748400I249999J0D01*
G01*
X114362401Y-80748400D01*
G75*
G02*
X114612400Y-80998399I0J-249999D01*
G01*
X114612400Y-83898401D01*
G75*
G02*
X114362401Y-84148400I-249999J0D01*
G01*
X113737399Y-84148400D01*
G75*
G02*
X113487400Y-83898401I0J249999D01*
G01*
G37*
%TD*%
D10*
%TO.C,J1*%
X107818400Y-92183600D03*
X107818400Y-89883600D03*
D11*
X107818400Y-94783600D03*
X107818400Y-87283600D03*
D12*
X110668400Y-92333600D03*
X110668400Y-91683600D03*
X110668400Y-91033600D03*
X110668400Y-90383600D03*
X110668400Y-89733600D03*
%TD*%
D13*
%TO.C,J2*%
X110998000Y-71374000D03*
D14*
X110998000Y-76374000D03*
%TD*%
D15*
%TO.C,J3*%
X147320000Y-79095600D03*
D16*
X149860000Y-79095600D03*
X147320000Y-81635600D03*
X149860000Y-81635600D03*
X147320000Y-84175600D03*
X149860000Y-84175600D03*
%TD*%
D15*
%TO.C,J4*%
X165100000Y-94284800D03*
D16*
X165100000Y-96824800D03*
X162560000Y-94284800D03*
X162560000Y-96824800D03*
X160020000Y-94284800D03*
X160020000Y-96824800D03*
X157480000Y-94284800D03*
X157480000Y-96824800D03*
X154940000Y-94284800D03*
X154940000Y-96824800D03*
%TD*%
D15*
%TO.C,J7*%
X147370800Y-90627200D03*
D16*
X149910800Y-90627200D03*
%TD*%
D15*
%TO.C,J8*%
X155143200Y-74980800D03*
D16*
X155143200Y-72440800D03*
X157683200Y-74980800D03*
X157683200Y-72440800D03*
X160223200Y-74980800D03*
X160223200Y-72440800D03*
X162763200Y-74980800D03*
X162763200Y-72440800D03*
X165303200Y-74980800D03*
X165303200Y-72440800D03*
%TD*%
%TO.C,R1*%
G36*
G01*
X143756801Y-94693800D02*
X142856799Y-94693800D01*
G75*
G02*
X142606800Y-94443801I0J249999D01*
G01*
X142606800Y-93918799D01*
G75*
G02*
X142856799Y-93668800I249999J0D01*
G01*
X143756801Y-93668800D01*
G75*
G02*
X144006800Y-93918799I0J-249999D01*
G01*
X144006800Y-94443801D01*
G75*
G02*
X143756801Y-94693800I-249999J0D01*
G01*
G37*
G36*
G01*
X143756801Y-92868800D02*
X142856799Y-92868800D01*
G75*
G02*
X142606800Y-92618801I0J249999D01*
G01*
X142606800Y-92093799D01*
G75*
G02*
X142856799Y-91843800I249999J0D01*
G01*
X143756801Y-91843800D01*
G75*
G02*
X144006800Y-92093799I0J-249999D01*
G01*
X144006800Y-92618801D01*
G75*
G02*
X143756801Y-92868800I-249999J0D01*
G01*
G37*
%TD*%
%TO.C,R2*%
G36*
G01*
X135896400Y-85503599D02*
X135896400Y-86403601D01*
G75*
G02*
X135646401Y-86653600I-249999J0D01*
G01*
X135121399Y-86653600D01*
G75*
G02*
X134871400Y-86403601I0J249999D01*
G01*
X134871400Y-85503599D01*
G75*
G02*
X135121399Y-85253600I249999J0D01*
G01*
X135646401Y-85253600D01*
G75*
G02*
X135896400Y-85503599I0J-249999D01*
G01*
G37*
G36*
G01*
X137721400Y-85503599D02*
X137721400Y-86403601D01*
G75*
G02*
X137471401Y-86653600I-249999J0D01*
G01*
X136946399Y-86653600D01*
G75*
G02*
X136696400Y-86403601I0J249999D01*
G01*
X136696400Y-85503599D01*
G75*
G02*
X136946399Y-85253600I249999J0D01*
G01*
X137471401Y-85253600D01*
G75*
G02*
X137721400Y-85503599I0J-249999D01*
G01*
G37*
%TD*%
%TO.C,R3*%
G36*
G01*
X137670600Y-83268399D02*
X137670600Y-84168401D01*
G75*
G02*
X137420601Y-84418400I-249999J0D01*
G01*
X136895599Y-84418400D01*
G75*
G02*
X136645600Y-84168401I0J249999D01*
G01*
X136645600Y-83268399D01*
G75*
G02*
X136895599Y-83018400I249999J0D01*
G01*
X137420601Y-83018400D01*
G75*
G02*
X137670600Y-83268399I0J-249999D01*
G01*
G37*
G36*
G01*
X135845600Y-83268399D02*
X135845600Y-84168401D01*
G75*
G02*
X135595601Y-84418400I-249999J0D01*
G01*
X135070599Y-84418400D01*
G75*
G02*
X134820600Y-84168401I0J249999D01*
G01*
X134820600Y-83268399D01*
G75*
G02*
X135070599Y-83018400I249999J0D01*
G01*
X135595601Y-83018400D01*
G75*
G02*
X135845600Y-83268399I0J-249999D01*
G01*
G37*
%TD*%
%TO.C,R4*%
G36*
G01*
X145239800Y-85554399D02*
X145239800Y-86454401D01*
G75*
G02*
X144989801Y-86704400I-249999J0D01*
G01*
X144464799Y-86704400D01*
G75*
G02*
X144214800Y-86454401I0J249999D01*
G01*
X144214800Y-85554399D01*
G75*
G02*
X144464799Y-85304400I249999J0D01*
G01*
X144989801Y-85304400D01*
G75*
G02*
X145239800Y-85554399I0J-249999D01*
G01*
G37*
G36*
G01*
X143414800Y-85554399D02*
X143414800Y-86454401D01*
G75*
G02*
X143164801Y-86704400I-249999J0D01*
G01*
X142639799Y-86704400D01*
G75*
G02*
X142389800Y-86454401I0J249999D01*
G01*
X142389800Y-85554399D01*
G75*
G02*
X142639799Y-85304400I249999J0D01*
G01*
X143164801Y-85304400D01*
G75*
G02*
X143414800Y-85554399I0J-249999D01*
G01*
G37*
%TD*%
%TO.C,R5*%
G36*
G01*
X144164000Y-84168401D02*
X144164000Y-83268399D01*
G75*
G02*
X144413999Y-83018400I249999J0D01*
G01*
X144939001Y-83018400D01*
G75*
G02*
X145189000Y-83268399I0J-249999D01*
G01*
X145189000Y-84168401D01*
G75*
G02*
X144939001Y-84418400I-249999J0D01*
G01*
X144413999Y-84418400D01*
G75*
G02*
X144164000Y-84168401I0J249999D01*
G01*
G37*
G36*
G01*
X142339000Y-84168401D02*
X142339000Y-83268399D01*
G75*
G02*
X142588999Y-83018400I249999J0D01*
G01*
X143114001Y-83018400D01*
G75*
G02*
X143364000Y-83268399I0J-249999D01*
G01*
X143364000Y-84168401D01*
G75*
G02*
X143114001Y-84418400I-249999J0D01*
G01*
X142588999Y-84418400D01*
G75*
G02*
X142339000Y-84168401I0J249999D01*
G01*
G37*
%TD*%
%TO.C,C12*%
G36*
G01*
X131742400Y-68285599D02*
X131742400Y-69585601D01*
G75*
G02*
X131492401Y-69835600I-249999J0D01*
G01*
X130842399Y-69835600D01*
G75*
G02*
X130592400Y-69585601I0J249999D01*
G01*
X130592400Y-68285599D01*
G75*
G02*
X130842399Y-68035600I249999J0D01*
G01*
X131492401Y-68035600D01*
G75*
G02*
X131742400Y-68285599I0J-249999D01*
G01*
G37*
G36*
G01*
X128792400Y-68285599D02*
X128792400Y-69585601D01*
G75*
G02*
X128542401Y-69835600I-249999J0D01*
G01*
X127892399Y-69835600D01*
G75*
G02*
X127642400Y-69585601I0J249999D01*
G01*
X127642400Y-68285599D01*
G75*
G02*
X127892399Y-68035600I249999J0D01*
G01*
X128542401Y-68035600D01*
G75*
G02*
X128792400Y-68285599I0J-249999D01*
G01*
G37*
%TD*%
D17*
%TO.C,U4*%
X132994800Y-73761600D03*
D18*
X126694800Y-73761600D03*
X126694800Y-76061600D03*
X126694800Y-71461600D03*
%TD*%
D19*
%TO.C,Y1*%
X120409600Y-90797200D03*
X120409600Y-92997200D03*
X122109600Y-92997200D03*
X122109600Y-90797200D03*
%TD*%
%TO.C,C2*%
G36*
G01*
X121533800Y-88540400D02*
X121533800Y-88040400D01*
G75*
G02*
X121758800Y-87815400I225000J0D01*
G01*
X122208800Y-87815400D01*
G75*
G02*
X122433800Y-88040400I0J-225000D01*
G01*
X122433800Y-88540400D01*
G75*
G02*
X122208800Y-88765400I-225000J0D01*
G01*
X121758800Y-88765400D01*
G75*
G02*
X121533800Y-88540400I0J225000D01*
G01*
G37*
G36*
G01*
X119983800Y-88540400D02*
X119983800Y-88040400D01*
G75*
G02*
X120208800Y-87815400I225000J0D01*
G01*
X120658800Y-87815400D01*
G75*
G02*
X120883800Y-88040400I0J-225000D01*
G01*
X120883800Y-88540400D01*
G75*
G02*
X120658800Y-88765400I-225000J0D01*
G01*
X120208800Y-88765400D01*
G75*
G02*
X119983800Y-88540400I0J225000D01*
G01*
G37*
%TD*%
%TO.C,C4*%
G36*
G01*
X122484600Y-95660400D02*
X122484600Y-96160400D01*
G75*
G02*
X122259600Y-96385400I-225000J0D01*
G01*
X121809600Y-96385400D01*
G75*
G02*
X121584600Y-96160400I0J225000D01*
G01*
X121584600Y-95660400D01*
G75*
G02*
X121809600Y-95435400I225000J0D01*
G01*
X122259600Y-95435400D01*
G75*
G02*
X122484600Y-95660400I0J-225000D01*
G01*
G37*
G36*
G01*
X120934600Y-95660400D02*
X120934600Y-96160400D01*
G75*
G02*
X120709600Y-96385400I-225000J0D01*
G01*
X120259600Y-96385400D01*
G75*
G02*
X120034600Y-96160400I0J225000D01*
G01*
X120034600Y-95660400D01*
G75*
G02*
X120259600Y-95435400I225000J0D01*
G01*
X120709600Y-95435400D01*
G75*
G02*
X120934600Y-95660400I0J-225000D01*
G01*
G37*
%TD*%
D15*
%TO.C,J5*%
X136906000Y-74930000D03*
D16*
X136906000Y-72390000D03*
X139446000Y-74930000D03*
X139446000Y-72390000D03*
X141986000Y-74930000D03*
X141986000Y-72390000D03*
%TD*%
D15*
%TO.C,J6*%
X125679200Y-99314000D03*
D16*
X123139200Y-99314000D03*
X120599200Y-99314000D03*
X118059200Y-99314000D03*
X115519200Y-99314000D03*
%TD*%
D15*
%TO.C,J9*%
X129387600Y-79197200D03*
D16*
X131927600Y-79197200D03*
X134467600Y-79197200D03*
X137007600Y-79197200D03*
X139547600Y-79197200D03*
X142087600Y-79197200D03*
%TD*%
%TO.C,R6*%
G36*
G01*
X112732399Y-87877600D02*
X113632401Y-87877600D01*
G75*
G02*
X113882400Y-88127599I0J-249999D01*
G01*
X113882400Y-88652601D01*
G75*
G02*
X113632401Y-88902600I-249999J0D01*
G01*
X112732399Y-88902600D01*
G75*
G02*
X112482400Y-88652601I0J249999D01*
G01*
X112482400Y-88127599D01*
G75*
G02*
X112732399Y-87877600I249999J0D01*
G01*
G37*
G36*
G01*
X112732399Y-86052600D02*
X113632401Y-86052600D01*
G75*
G02*
X113882400Y-86302599I0J-249999D01*
G01*
X113882400Y-86827601D01*
G75*
G02*
X113632401Y-87077600I-249999J0D01*
G01*
X112732399Y-87077600D01*
G75*
G02*
X112482400Y-86827601I0J249999D01*
G01*
X112482400Y-86302599D01*
G75*
G02*
X112732399Y-86052600I249999J0D01*
G01*
G37*
%TD*%
%TO.C,R7*%
G36*
G01*
X114256399Y-89608600D02*
X115156401Y-89608600D01*
G75*
G02*
X115406400Y-89858599I0J-249999D01*
G01*
X115406400Y-90383601D01*
G75*
G02*
X115156401Y-90633600I-249999J0D01*
G01*
X114256399Y-90633600D01*
G75*
G02*
X114006400Y-90383601I0J249999D01*
G01*
X114006400Y-89858599D01*
G75*
G02*
X114256399Y-89608600I249999J0D01*
G01*
G37*
G36*
G01*
X114256399Y-91433600D02*
X115156401Y-91433600D01*
G75*
G02*
X115406400Y-91683599I0J-249999D01*
G01*
X115406400Y-92208601D01*
G75*
G02*
X115156401Y-92458600I-249999J0D01*
G01*
X114256399Y-92458600D01*
G75*
G02*
X114006400Y-92208601I0J249999D01*
G01*
X114006400Y-91683599D01*
G75*
G02*
X114256399Y-91433600I249999J0D01*
G01*
G37*
%TD*%
%TO.C,C13*%
G36*
G01*
X134647600Y-97518200D02*
X134647600Y-98468200D01*
G75*
G02*
X134397600Y-98718200I-250000J0D01*
G01*
X133897600Y-98718200D01*
G75*
G02*
X133647600Y-98468200I0J250000D01*
G01*
X133647600Y-97518200D01*
G75*
G02*
X133897600Y-97268200I250000J0D01*
G01*
X134397600Y-97268200D01*
G75*
G02*
X134647600Y-97518200I0J-250000D01*
G01*
G37*
G36*
G01*
X132747600Y-97518200D02*
X132747600Y-98468200D01*
G75*
G02*
X132497600Y-98718200I-250000J0D01*
G01*
X131997600Y-98718200D01*
G75*
G02*
X131747600Y-98468200I0J250000D01*
G01*
X131747600Y-97518200D01*
G75*
G02*
X131997600Y-97268200I250000J0D01*
G01*
X132497600Y-97268200D01*
G75*
G02*
X132747600Y-97518200I0J-250000D01*
G01*
G37*
%TD*%
D20*
%TO.C,SW1*%
X138259600Y-98552000D03*
X147439600Y-98552000D03*
%TD*%
M02*
