%TF.GenerationSoftware,KiCad,Pcbnew,(5.1.7)-1*%
%TF.CreationDate,2020-11-23T17:16:41+01:00*%
%TF.ProjectId,control,636f6e74-726f-46c2-9e6b-696361645f70,rev?*%
%TF.SameCoordinates,Original*%
%TF.FileFunction,Copper,L1,Top*%
%TF.FilePolarity,Positive*%
%FSLAX46Y46*%
G04 Gerber Fmt 4.6, Leading zero omitted, Abs format (unit mm)*
G04 Created by KiCad (PCBNEW (5.1.7)-1) date 2020-11-23 17:16:41*
%MOMM*%
%LPD*%
G01*
G04 APERTURE LIST*
%TA.AperFunction,NonConductor*%
%ADD10C,0.300000*%
%TD*%
%TA.AperFunction,NonConductor*%
%ADD11C,0.200000*%
%TD*%
%TA.AperFunction,SMDPad,CuDef*%
%ADD12R,1.900000X1.800000*%
%TD*%
%TA.AperFunction,SMDPad,CuDef*%
%ADD13R,1.900000X2.300000*%
%TD*%
%TA.AperFunction,SMDPad,CuDef*%
%ADD14R,1.400000X0.400000*%
%TD*%
%TA.AperFunction,ComponentPad*%
%ADD15R,2.500000X2.500000*%
%TD*%
%TA.AperFunction,ComponentPad*%
%ADD16C,2.500000*%
%TD*%
%TA.AperFunction,ComponentPad*%
%ADD17R,1.700000X1.700000*%
%TD*%
%TA.AperFunction,ComponentPad*%
%ADD18O,1.700000X1.700000*%
%TD*%
%TA.AperFunction,SMDPad,CuDef*%
%ADD19R,2.000000X3.800000*%
%TD*%
%TA.AperFunction,SMDPad,CuDef*%
%ADD20R,2.000000X1.500000*%
%TD*%
%TA.AperFunction,SMDPad,CuDef*%
%ADD21R,1.200000X1.400000*%
%TD*%
%TA.AperFunction,SMDPad,CuDef*%
%ADD22R,2.180000X1.600000*%
%TD*%
%TA.AperFunction,ViaPad*%
%ADD23C,0.800000*%
%TD*%
%TA.AperFunction,Conductor*%
%ADD24C,0.500000*%
%TD*%
%TA.AperFunction,Conductor*%
%ADD25C,0.300000*%
%TD*%
%TA.AperFunction,Conductor*%
%ADD26C,0.250000*%
%TD*%
%TA.AperFunction,Conductor*%
%ADD27C,0.100000*%
%TD*%
G04 APERTURE END LIST*
D10*
X162825333Y-89382000D02*
X161425333Y-89382000D01*
X162825333Y-88582000D02*
X162025333Y-89182000D01*
X161425333Y-88582000D02*
X162225333Y-89382000D01*
X162825333Y-87182000D02*
X162158666Y-87648666D01*
X162825333Y-87982000D02*
X161425333Y-87982000D01*
X161425333Y-87448666D01*
X161492000Y-87315333D01*
X161558666Y-87248666D01*
X161692000Y-87182000D01*
X161892000Y-87182000D01*
X162025333Y-87248666D01*
X162092000Y-87315333D01*
X162158666Y-87448666D01*
X162158666Y-87982000D01*
X162292000Y-86582000D02*
X162292000Y-85515333D01*
X162825333Y-84248666D02*
X161425333Y-84248666D01*
X162758666Y-84248666D02*
X162825333Y-84382000D01*
X162825333Y-84648666D01*
X162758666Y-84782000D01*
X162692000Y-84848666D01*
X162558666Y-84915333D01*
X162158666Y-84915333D01*
X162025333Y-84848666D01*
X161958666Y-84782000D01*
X161892000Y-84648666D01*
X161892000Y-84382000D01*
X161958666Y-84248666D01*
X161892000Y-82982000D02*
X162825333Y-82982000D01*
X161892000Y-83582000D02*
X162625333Y-83582000D01*
X162758666Y-83515333D01*
X162825333Y-83382000D01*
X162825333Y-83182000D01*
X162758666Y-83048666D01*
X162692000Y-82982000D01*
X162825333Y-82315333D02*
X161892000Y-82315333D01*
X161425333Y-82315333D02*
X161492000Y-82382000D01*
X161558666Y-82315333D01*
X161492000Y-82248666D01*
X161425333Y-82315333D01*
X161558666Y-82315333D01*
X161892000Y-81648666D02*
X162825333Y-81648666D01*
X162025333Y-81648666D02*
X161958666Y-81582000D01*
X161892000Y-81448666D01*
X161892000Y-81248666D01*
X161958666Y-81115333D01*
X162092000Y-81048666D01*
X162825333Y-81048666D01*
X162825333Y-80182000D02*
X162758666Y-80315333D01*
X162692000Y-80382000D01*
X162558666Y-80448666D01*
X162158666Y-80448666D01*
X162025333Y-80382000D01*
X161958666Y-80315333D01*
X161892000Y-80182000D01*
X161892000Y-79982000D01*
X161958666Y-79848666D01*
X162025333Y-79782000D01*
X162158666Y-79715333D01*
X162558666Y-79715333D01*
X162692000Y-79782000D01*
X162758666Y-79848666D01*
X162825333Y-79982000D01*
X162825333Y-80182000D01*
X163958666Y-91382000D02*
X163892000Y-91315333D01*
X163825333Y-91182000D01*
X163825333Y-90848666D01*
X163892000Y-90715333D01*
X163958666Y-90648666D01*
X164092000Y-90582000D01*
X164225333Y-90582000D01*
X164425333Y-90648666D01*
X165225333Y-91448666D01*
X165225333Y-90582000D01*
X163825333Y-89715333D02*
X163825333Y-89582000D01*
X163892000Y-89448666D01*
X163958666Y-89382000D01*
X164092000Y-89315333D01*
X164358666Y-89248666D01*
X164692000Y-89248666D01*
X164958666Y-89315333D01*
X165092000Y-89382000D01*
X165158666Y-89448666D01*
X165225333Y-89582000D01*
X165225333Y-89715333D01*
X165158666Y-89848666D01*
X165092000Y-89915333D01*
X164958666Y-89982000D01*
X164692000Y-90048666D01*
X164358666Y-90048666D01*
X164092000Y-89982000D01*
X163958666Y-89915333D01*
X163892000Y-89848666D01*
X163825333Y-89715333D01*
X163958666Y-88715333D02*
X163892000Y-88648666D01*
X163825333Y-88515333D01*
X163825333Y-88182000D01*
X163892000Y-88048666D01*
X163958666Y-87982000D01*
X164092000Y-87915333D01*
X164225333Y-87915333D01*
X164425333Y-87982000D01*
X165225333Y-88782000D01*
X165225333Y-87915333D01*
X163825333Y-87048666D02*
X163825333Y-86915333D01*
X163892000Y-86782000D01*
X163958666Y-86715333D01*
X164092000Y-86648666D01*
X164358666Y-86582000D01*
X164692000Y-86582000D01*
X164958666Y-86648666D01*
X165092000Y-86715333D01*
X165158666Y-86782000D01*
X165225333Y-86915333D01*
X165225333Y-87048666D01*
X165158666Y-87182000D01*
X165092000Y-87248666D01*
X164958666Y-87315333D01*
X164692000Y-87382000D01*
X164358666Y-87382000D01*
X164092000Y-87315333D01*
X163958666Y-87248666D01*
X163892000Y-87182000D01*
X163825333Y-87048666D01*
X164692000Y-85982000D02*
X164692000Y-84915333D01*
X165225333Y-83515333D02*
X165225333Y-84315333D01*
X165225333Y-83915333D02*
X163825333Y-83915333D01*
X164025333Y-84048666D01*
X164158666Y-84182000D01*
X164225333Y-84315333D01*
X165225333Y-82182000D02*
X165225333Y-82982000D01*
X165225333Y-82582000D02*
X163825333Y-82582000D01*
X164025333Y-82715333D01*
X164158666Y-82848666D01*
X164225333Y-82982000D01*
X164692000Y-81582000D02*
X164692000Y-80515333D01*
X163958666Y-79915333D02*
X163892000Y-79848666D01*
X163825333Y-79715333D01*
X163825333Y-79382000D01*
X163892000Y-79248666D01*
X163958666Y-79182000D01*
X164092000Y-79115333D01*
X164225333Y-79115333D01*
X164425333Y-79182000D01*
X165225333Y-79982000D01*
X165225333Y-79115333D01*
X163958666Y-78582000D02*
X163892000Y-78515333D01*
X163825333Y-78382000D01*
X163825333Y-78048666D01*
X163892000Y-77915333D01*
X163958666Y-77848666D01*
X164092000Y-77782000D01*
X164225333Y-77782000D01*
X164425333Y-77848666D01*
X165225333Y-78648666D01*
X165225333Y-77782000D01*
X167625333Y-87082000D02*
X166692000Y-87082000D01*
X166958666Y-87082000D02*
X166825333Y-87015333D01*
X166758666Y-86948666D01*
X166692000Y-86815333D01*
X166692000Y-86682000D01*
X167558666Y-85682000D02*
X167625333Y-85815333D01*
X167625333Y-86082000D01*
X167558666Y-86215333D01*
X167425333Y-86282000D01*
X166892000Y-86282000D01*
X166758666Y-86215333D01*
X166692000Y-86082000D01*
X166692000Y-85815333D01*
X166758666Y-85682000D01*
X166892000Y-85615333D01*
X167025333Y-85615333D01*
X167158666Y-86282000D01*
X166692000Y-85148666D02*
X167625333Y-84815333D01*
X166692000Y-84482000D01*
X167492000Y-83948666D02*
X167558666Y-83882000D01*
X167625333Y-83948666D01*
X167558666Y-84015333D01*
X167492000Y-83948666D01*
X167625333Y-83948666D01*
X167225333Y-83348666D02*
X167225333Y-82682000D01*
X167625333Y-83482000D02*
X166225333Y-83015333D01*
X167625333Y-82548666D01*
X167492000Y-82082000D02*
X167558666Y-82015333D01*
X167625333Y-82082000D01*
X167558666Y-82148666D01*
X167492000Y-82082000D01*
X167625333Y-82082000D01*
D11*
X167449542Y-96231142D02*
X167506685Y-96174000D01*
X167620971Y-96116857D01*
X167906685Y-96116857D01*
X168020971Y-96174000D01*
X168078114Y-96231142D01*
X168135257Y-96345428D01*
X168135257Y-96459714D01*
X168078114Y-96631142D01*
X167392400Y-97316857D01*
X168135257Y-97316857D01*
X152209542Y-71847142D02*
X152266685Y-71790000D01*
X152380971Y-71732857D01*
X152666685Y-71732857D01*
X152780971Y-71790000D01*
X152838114Y-71847142D01*
X152895257Y-71961428D01*
X152895257Y-72075714D01*
X152838114Y-72247142D01*
X152152400Y-72932857D01*
X152895257Y-72932857D01*
X153149657Y-81048380D02*
X153149657Y-80048380D01*
X153482990Y-80762666D01*
X153816323Y-80048380D01*
X153816323Y-81048380D01*
X154292514Y-81048380D02*
X154292514Y-80048380D01*
X154721085Y-81000761D02*
X154863942Y-81048380D01*
X155102038Y-81048380D01*
X155197276Y-81000761D01*
X155244895Y-80953142D01*
X155292514Y-80857904D01*
X155292514Y-80762666D01*
X155244895Y-80667428D01*
X155197276Y-80619809D01*
X155102038Y-80572190D01*
X154911561Y-80524571D01*
X154816323Y-80476952D01*
X154768704Y-80429333D01*
X154721085Y-80334095D01*
X154721085Y-80238857D01*
X154768704Y-80143619D01*
X154816323Y-80096000D01*
X154911561Y-80048380D01*
X155149657Y-80048380D01*
X155292514Y-80096000D01*
X155911561Y-80048380D02*
X156102038Y-80048380D01*
X156197276Y-80096000D01*
X156292514Y-80191238D01*
X156340133Y-80381714D01*
X156340133Y-80715047D01*
X156292514Y-80905523D01*
X156197276Y-81000761D01*
X156102038Y-81048380D01*
X155911561Y-81048380D01*
X155816323Y-81000761D01*
X155721085Y-80905523D01*
X155673466Y-80715047D01*
X155673466Y-80381714D01*
X155721085Y-80191238D01*
X155816323Y-80096000D01*
X155911561Y-80048380D01*
X158006800Y-80048380D02*
X157530609Y-80048380D01*
X157482990Y-80524571D01*
X157530609Y-80476952D01*
X157625847Y-80429333D01*
X157863942Y-80429333D01*
X157959180Y-80476952D01*
X158006800Y-80524571D01*
X158054419Y-80619809D01*
X158054419Y-80857904D01*
X158006800Y-80953142D01*
X157959180Y-81000761D01*
X157863942Y-81048380D01*
X157625847Y-81048380D01*
X157530609Y-81000761D01*
X157482990Y-80953142D01*
X158340133Y-80048380D02*
X158673466Y-81048380D01*
X159006800Y-80048380D01*
X152530609Y-82700761D02*
X152673466Y-82748380D01*
X152911561Y-82748380D01*
X153006800Y-82700761D01*
X153054419Y-82653142D01*
X153102038Y-82557904D01*
X153102038Y-82462666D01*
X153054419Y-82367428D01*
X153006800Y-82319809D01*
X152911561Y-82272190D01*
X152721085Y-82224571D01*
X152625847Y-82176952D01*
X152578228Y-82129333D01*
X152530609Y-82034095D01*
X152530609Y-81938857D01*
X152578228Y-81843619D01*
X152625847Y-81796000D01*
X152721085Y-81748380D01*
X152959180Y-81748380D01*
X153102038Y-81796000D01*
X154102038Y-82653142D02*
X154054419Y-82700761D01*
X153911561Y-82748380D01*
X153816323Y-82748380D01*
X153673466Y-82700761D01*
X153578228Y-82605523D01*
X153530609Y-82510285D01*
X153482990Y-82319809D01*
X153482990Y-82176952D01*
X153530609Y-81986476D01*
X153578228Y-81891238D01*
X153673466Y-81796000D01*
X153816323Y-81748380D01*
X153911561Y-81748380D01*
X154054419Y-81796000D01*
X154102038Y-81843619D01*
X154530609Y-82748380D02*
X154530609Y-81748380D01*
X155102038Y-82748380D02*
X154673466Y-82176952D01*
X155102038Y-81748380D02*
X154530609Y-82319809D01*
X156292514Y-82748380D02*
X156292514Y-81748380D01*
X156625847Y-82462666D01*
X156959180Y-81748380D01*
X156959180Y-82748380D01*
X157625847Y-81748380D02*
X157816323Y-81748380D01*
X157911561Y-81796000D01*
X158006800Y-81891238D01*
X158054419Y-82081714D01*
X158054419Y-82415047D01*
X158006800Y-82605523D01*
X157911561Y-82700761D01*
X157816323Y-82748380D01*
X157625847Y-82748380D01*
X157530609Y-82700761D01*
X157435371Y-82605523D01*
X157387752Y-82415047D01*
X157387752Y-82081714D01*
X157435371Y-81891238D01*
X157530609Y-81796000D01*
X157625847Y-81748380D01*
X158435371Y-82700761D02*
X158578228Y-82748380D01*
X158816323Y-82748380D01*
X158911561Y-82700761D01*
X158959180Y-82653142D01*
X159006800Y-82557904D01*
X159006800Y-82462666D01*
X158959180Y-82367428D01*
X158911561Y-82319809D01*
X158816323Y-82272190D01*
X158625847Y-82224571D01*
X158530609Y-82176952D01*
X158482990Y-82129333D01*
X158435371Y-82034095D01*
X158435371Y-81938857D01*
X158482990Y-81843619D01*
X158530609Y-81796000D01*
X158625847Y-81748380D01*
X158863942Y-81748380D01*
X159006800Y-81796000D01*
X159435371Y-82748380D02*
X159435371Y-81748380D01*
X153554419Y-84448380D02*
X153221085Y-83972190D01*
X152982990Y-84448380D02*
X152982990Y-83448380D01*
X153363942Y-83448380D01*
X153459180Y-83496000D01*
X153506800Y-83543619D01*
X153554419Y-83638857D01*
X153554419Y-83781714D01*
X153506800Y-83876952D01*
X153459180Y-83924571D01*
X153363942Y-83972190D01*
X152982990Y-83972190D01*
X153935371Y-84400761D02*
X154078228Y-84448380D01*
X154316323Y-84448380D01*
X154411561Y-84400761D01*
X154459180Y-84353142D01*
X154506800Y-84257904D01*
X154506800Y-84162666D01*
X154459180Y-84067428D01*
X154411561Y-84019809D01*
X154316323Y-83972190D01*
X154125847Y-83924571D01*
X154030609Y-83876952D01*
X153982990Y-83829333D01*
X153935371Y-83734095D01*
X153935371Y-83638857D01*
X153982990Y-83543619D01*
X154030609Y-83496000D01*
X154125847Y-83448380D01*
X154363942Y-83448380D01*
X154506800Y-83496000D01*
X154792514Y-83448380D02*
X155363942Y-83448380D01*
X155078228Y-84448380D02*
X155078228Y-83448380D01*
X156982990Y-83496000D02*
X156887752Y-83448380D01*
X156744895Y-83448380D01*
X156602038Y-83496000D01*
X156506800Y-83591238D01*
X156459180Y-83686476D01*
X156411561Y-83876952D01*
X156411561Y-84019809D01*
X156459180Y-84210285D01*
X156506800Y-84305523D01*
X156602038Y-84400761D01*
X156744895Y-84448380D01*
X156840133Y-84448380D01*
X156982990Y-84400761D01*
X157030609Y-84353142D01*
X157030609Y-84019809D01*
X156840133Y-84019809D01*
X157459180Y-84448380D02*
X157459180Y-83448380D01*
X158030609Y-84448380D01*
X158030609Y-83448380D01*
X158506800Y-84448380D02*
X158506800Y-83448380D01*
X158744895Y-83448380D01*
X158887752Y-83496000D01*
X158982990Y-83591238D01*
X159030609Y-83686476D01*
X159078228Y-83876952D01*
X159078228Y-84019809D01*
X159030609Y-84210285D01*
X158982990Y-84305523D01*
X158887752Y-84400761D01*
X158744895Y-84448380D01*
X158506800Y-84448380D01*
X127628857Y-98586857D02*
X127628857Y-97386857D01*
X128428857Y-97386857D02*
X128657428Y-97386857D01*
X128771714Y-97444000D01*
X128886000Y-97558285D01*
X128943142Y-97786857D01*
X128943142Y-98186857D01*
X128886000Y-98415428D01*
X128771714Y-98529714D01*
X128657428Y-98586857D01*
X128428857Y-98586857D01*
X128314571Y-98529714D01*
X128200285Y-98415428D01*
X128143142Y-98186857D01*
X128143142Y-97786857D01*
X128200285Y-97558285D01*
X128314571Y-97444000D01*
X128428857Y-97386857D01*
X130600285Y-97386857D02*
X130714571Y-97386857D01*
X130828857Y-97444000D01*
X130886000Y-97501142D01*
X130943142Y-97615428D01*
X131000285Y-97844000D01*
X131000285Y-98129714D01*
X130943142Y-98358285D01*
X130886000Y-98472571D01*
X130828857Y-98529714D01*
X130714571Y-98586857D01*
X130600285Y-98586857D01*
X130486000Y-98529714D01*
X130428857Y-98472571D01*
X130371714Y-98358285D01*
X130314571Y-98129714D01*
X130314571Y-97844000D01*
X130371714Y-97615428D01*
X130428857Y-97501142D01*
X130486000Y-97444000D01*
X130600285Y-97386857D01*
X126358857Y-82584857D02*
X126358857Y-81384857D01*
X127158857Y-81384857D02*
X127387428Y-81384857D01*
X127501714Y-81442000D01*
X127616000Y-81556285D01*
X127673142Y-81784857D01*
X127673142Y-82184857D01*
X127616000Y-82413428D01*
X127501714Y-82527714D01*
X127387428Y-82584857D01*
X127158857Y-82584857D01*
X127044571Y-82527714D01*
X126930285Y-82413428D01*
X126873142Y-82184857D01*
X126873142Y-81784857D01*
X126930285Y-81556285D01*
X127044571Y-81442000D01*
X127158857Y-81384857D01*
X129673142Y-81384857D02*
X129101714Y-81384857D01*
X129044571Y-81956285D01*
X129101714Y-81899142D01*
X129216000Y-81842000D01*
X129501714Y-81842000D01*
X129616000Y-81899142D01*
X129673142Y-81956285D01*
X129730285Y-82070571D01*
X129730285Y-82356285D01*
X129673142Y-82470571D01*
X129616000Y-82527714D01*
X129501714Y-82584857D01*
X129216000Y-82584857D01*
X129101714Y-82527714D01*
X129044571Y-82470571D01*
X137042857Y-67668857D02*
X136471428Y-67668857D01*
X136414285Y-68240285D01*
X136471428Y-68183142D01*
X136585714Y-68126000D01*
X136871428Y-68126000D01*
X136985714Y-68183142D01*
X137042857Y-68240285D01*
X137100000Y-68354571D01*
X137100000Y-68640285D01*
X137042857Y-68754571D01*
X136985714Y-68811714D01*
X136871428Y-68868857D01*
X136585714Y-68868857D01*
X136471428Y-68811714D01*
X136414285Y-68754571D01*
X138414285Y-67668857D02*
X139157142Y-67668857D01*
X138757142Y-68126000D01*
X138928571Y-68126000D01*
X139042857Y-68183142D01*
X139100000Y-68240285D01*
X139157142Y-68354571D01*
X139157142Y-68640285D01*
X139100000Y-68754571D01*
X139042857Y-68811714D01*
X138928571Y-68868857D01*
X138585714Y-68868857D01*
X138471428Y-68811714D01*
X138414285Y-68754571D01*
X139671428Y-68754571D02*
X139728571Y-68811714D01*
X139671428Y-68868857D01*
X139614285Y-68811714D01*
X139671428Y-68754571D01*
X139671428Y-68868857D01*
X140128571Y-67668857D02*
X140871428Y-67668857D01*
X140471428Y-68126000D01*
X140642857Y-68126000D01*
X140757142Y-68183142D01*
X140814285Y-68240285D01*
X140871428Y-68354571D01*
X140871428Y-68640285D01*
X140814285Y-68754571D01*
X140757142Y-68811714D01*
X140642857Y-68868857D01*
X140300000Y-68868857D01*
X140185714Y-68811714D01*
X140128571Y-68754571D01*
X142928571Y-67726000D02*
X142814285Y-67668857D01*
X142642857Y-67668857D01*
X142471428Y-67726000D01*
X142357142Y-67840285D01*
X142300000Y-67954571D01*
X142242857Y-68183142D01*
X142242857Y-68354571D01*
X142300000Y-68583142D01*
X142357142Y-68697428D01*
X142471428Y-68811714D01*
X142642857Y-68868857D01*
X142757142Y-68868857D01*
X142928571Y-68811714D01*
X142985714Y-68754571D01*
X142985714Y-68354571D01*
X142757142Y-68354571D01*
X147418571Y-87172857D02*
X147418571Y-85972857D01*
X147932857Y-87115714D02*
X148104285Y-87172857D01*
X148390000Y-87172857D01*
X148504285Y-87115714D01*
X148561428Y-87058571D01*
X148618571Y-86944285D01*
X148618571Y-86830000D01*
X148561428Y-86715714D01*
X148504285Y-86658571D01*
X148390000Y-86601428D01*
X148161428Y-86544285D01*
X148047142Y-86487142D01*
X147990000Y-86430000D01*
X147932857Y-86315714D01*
X147932857Y-86201428D01*
X147990000Y-86087142D01*
X148047142Y-86030000D01*
X148161428Y-85972857D01*
X148447142Y-85972857D01*
X148618571Y-86030000D01*
X149132857Y-87172857D02*
X149132857Y-85972857D01*
X149590000Y-85972857D01*
X149704285Y-86030000D01*
X149761428Y-86087142D01*
X149818571Y-86201428D01*
X149818571Y-86372857D01*
X149761428Y-86487142D01*
X149704285Y-86544285D01*
X149590000Y-86601428D01*
X149132857Y-86601428D01*
X145018571Y-89115714D02*
X145190000Y-89172857D01*
X145475714Y-89172857D01*
X145590000Y-89115714D01*
X145647142Y-89058571D01*
X145704285Y-88944285D01*
X145704285Y-88830000D01*
X145647142Y-88715714D01*
X145590000Y-88658571D01*
X145475714Y-88601428D01*
X145247142Y-88544285D01*
X145132857Y-88487142D01*
X145075714Y-88430000D01*
X145018571Y-88315714D01*
X145018571Y-88201428D01*
X145075714Y-88087142D01*
X145132857Y-88030000D01*
X145247142Y-87972857D01*
X145532857Y-87972857D01*
X145704285Y-88030000D01*
X146904285Y-89058571D02*
X146847142Y-89115714D01*
X146675714Y-89172857D01*
X146561428Y-89172857D01*
X146390000Y-89115714D01*
X146275714Y-89001428D01*
X146218571Y-88887142D01*
X146161428Y-88658571D01*
X146161428Y-88487142D01*
X146218571Y-88258571D01*
X146275714Y-88144285D01*
X146390000Y-88030000D01*
X146561428Y-87972857D01*
X146675714Y-87972857D01*
X146847142Y-88030000D01*
X146904285Y-88087142D01*
X147990000Y-89172857D02*
X147418571Y-89172857D01*
X147418571Y-87972857D01*
X149247142Y-89115714D02*
X149418571Y-89172857D01*
X149704285Y-89172857D01*
X149818571Y-89115714D01*
X149875714Y-89058571D01*
X149932857Y-88944285D01*
X149932857Y-88830000D01*
X149875714Y-88715714D01*
X149818571Y-88658571D01*
X149704285Y-88601428D01*
X149475714Y-88544285D01*
X149361428Y-88487142D01*
X149304285Y-88430000D01*
X149247142Y-88315714D01*
X149247142Y-88201428D01*
X149304285Y-88087142D01*
X149361428Y-88030000D01*
X149475714Y-87972857D01*
X149761428Y-87972857D01*
X149932857Y-88030000D01*
X150447142Y-89172857D02*
X150447142Y-87972857D01*
X150732857Y-87972857D01*
X150904285Y-88030000D01*
X151018571Y-88144285D01*
X151075714Y-88258571D01*
X151132857Y-88487142D01*
X151132857Y-88658571D01*
X151075714Y-88887142D01*
X151018571Y-89001428D01*
X150904285Y-89115714D01*
X150732857Y-89172857D01*
X150447142Y-89172857D01*
X151590000Y-88830000D02*
X152161428Y-88830000D01*
X151475714Y-89172857D02*
X151875714Y-87972857D01*
X152275714Y-89172857D01*
X152612685Y-94954800D02*
X152498400Y-94897657D01*
X152326971Y-94897657D01*
X152155542Y-94954800D01*
X152041257Y-95069085D01*
X151984114Y-95183371D01*
X151926971Y-95411942D01*
X151926971Y-95583371D01*
X151984114Y-95811942D01*
X152041257Y-95926228D01*
X152155542Y-96040514D01*
X152326971Y-96097657D01*
X152441257Y-96097657D01*
X152612685Y-96040514D01*
X152669828Y-95983371D01*
X152669828Y-95583371D01*
X152441257Y-95583371D01*
X168186057Y-94776857D02*
X167500342Y-94776857D01*
X167843200Y-94776857D02*
X167843200Y-93576857D01*
X167728914Y-93748285D01*
X167614628Y-93862571D01*
X167500342Y-93919714D01*
X167954285Y-73161600D02*
X167840000Y-73104457D01*
X167668571Y-73104457D01*
X167497142Y-73161600D01*
X167382857Y-73275885D01*
X167325714Y-73390171D01*
X167268571Y-73618742D01*
X167268571Y-73790171D01*
X167325714Y-74018742D01*
X167382857Y-74133028D01*
X167497142Y-74247314D01*
X167668571Y-74304457D01*
X167782857Y-74304457D01*
X167954285Y-74247314D01*
X168011428Y-74190171D01*
X168011428Y-73790171D01*
X167782857Y-73790171D01*
X152946057Y-75472857D02*
X152260342Y-75472857D01*
X152603200Y-75472857D02*
X152603200Y-74272857D01*
X152488914Y-74444285D01*
X152374628Y-74558571D01*
X152260342Y-74615714D01*
X157877142Y-100618857D02*
X157877142Y-99418857D01*
X158391428Y-99533142D02*
X158448571Y-99476000D01*
X158562857Y-99418857D01*
X158848571Y-99418857D01*
X158962857Y-99476000D01*
X159020000Y-99533142D01*
X159077142Y-99647428D01*
X159077142Y-99761714D01*
X159020000Y-99933142D01*
X158334285Y-100618857D01*
X159077142Y-100618857D01*
X160277142Y-100504571D02*
X160220000Y-100561714D01*
X160048571Y-100618857D01*
X159934285Y-100618857D01*
X159762857Y-100561714D01*
X159648571Y-100447428D01*
X159591428Y-100333142D01*
X159534285Y-100104571D01*
X159534285Y-99933142D01*
X159591428Y-99704571D01*
X159648571Y-99590285D01*
X159762857Y-99476000D01*
X159934285Y-99418857D01*
X160048571Y-99418857D01*
X160220000Y-99476000D01*
X160277142Y-99533142D01*
X161648571Y-100276000D02*
X162220000Y-100276000D01*
X161534285Y-100618857D02*
X161934285Y-99418857D01*
X162334285Y-100618857D01*
X158299428Y-69630857D02*
X158299428Y-68430857D01*
X158813714Y-68545142D02*
X158870857Y-68488000D01*
X158985142Y-68430857D01*
X159270857Y-68430857D01*
X159385142Y-68488000D01*
X159442285Y-68545142D01*
X159499428Y-68659428D01*
X159499428Y-68773714D01*
X159442285Y-68945142D01*
X158756571Y-69630857D01*
X159499428Y-69630857D01*
X160699428Y-69516571D02*
X160642285Y-69573714D01*
X160470857Y-69630857D01*
X160356571Y-69630857D01*
X160185142Y-69573714D01*
X160070857Y-69459428D01*
X160013714Y-69345142D01*
X159956571Y-69116571D01*
X159956571Y-68945142D01*
X160013714Y-68716571D01*
X160070857Y-68602285D01*
X160185142Y-68488000D01*
X160356571Y-68430857D01*
X160470857Y-68430857D01*
X160642285Y-68488000D01*
X160699428Y-68545142D01*
X162528000Y-69002285D02*
X162699428Y-69059428D01*
X162756571Y-69116571D01*
X162813714Y-69230857D01*
X162813714Y-69402285D01*
X162756571Y-69516571D01*
X162699428Y-69573714D01*
X162585142Y-69630857D01*
X162128000Y-69630857D01*
X162128000Y-68430857D01*
X162528000Y-68430857D01*
X162642285Y-68488000D01*
X162699428Y-68545142D01*
X162756571Y-68659428D01*
X162756571Y-68773714D01*
X162699428Y-68888000D01*
X162642285Y-68945142D01*
X162528000Y-69002285D01*
X162128000Y-69002285D01*
D10*
X117475142Y-68338000D02*
X117332285Y-68266571D01*
X117118000Y-68266571D01*
X116903714Y-68338000D01*
X116760857Y-68480857D01*
X116689428Y-68623714D01*
X116618000Y-68909428D01*
X116618000Y-69123714D01*
X116689428Y-69409428D01*
X116760857Y-69552285D01*
X116903714Y-69695142D01*
X117118000Y-69766571D01*
X117260857Y-69766571D01*
X117475142Y-69695142D01*
X117546571Y-69623714D01*
X117546571Y-69123714D01*
X117260857Y-69123714D01*
X118189428Y-69766571D02*
X118189428Y-68266571D01*
X119046571Y-69766571D01*
X119046571Y-68266571D01*
X119760857Y-69766571D02*
X119760857Y-68266571D01*
X120118000Y-68266571D01*
X120332285Y-68338000D01*
X120475142Y-68480857D01*
X120546571Y-68623714D01*
X120618000Y-68909428D01*
X120618000Y-69123714D01*
X120546571Y-69409428D01*
X120475142Y-69552285D01*
X120332285Y-69695142D01*
X120118000Y-69766571D01*
X119760857Y-69766571D01*
X116046285Y-79442571D02*
X115332000Y-79442571D01*
X115260571Y-80156857D01*
X115332000Y-80085428D01*
X115474857Y-80014000D01*
X115832000Y-80014000D01*
X115974857Y-80085428D01*
X116046285Y-80156857D01*
X116117714Y-80299714D01*
X116117714Y-80656857D01*
X116046285Y-80799714D01*
X115974857Y-80871142D01*
X115832000Y-80942571D01*
X115474857Y-80942571D01*
X115332000Y-80871142D01*
X115260571Y-80799714D01*
X116546285Y-79442571D02*
X117046285Y-80942571D01*
X117546285Y-79442571D01*
%TO.P,U1,1*%
%TO.N,GND*%
%TA.AperFunction,SMDPad,CuDef*%
G36*
G01*
X135943200Y-89742600D02*
X136243200Y-89742600D01*
G75*
G02*
X136393200Y-89892600I0J-150000D01*
G01*
X136393200Y-91542600D01*
G75*
G02*
X136243200Y-91692600I-150000J0D01*
G01*
X135943200Y-91692600D01*
G75*
G02*
X135793200Y-91542600I0J150000D01*
G01*
X135793200Y-89892600D01*
G75*
G02*
X135943200Y-89742600I150000J0D01*
G01*
G37*
%TD.AperFunction*%
%TO.P,U1,2*%
%TO.N,Net-(R2-Pad2)*%
%TA.AperFunction,SMDPad,CuDef*%
G36*
G01*
X134673200Y-89742600D02*
X134973200Y-89742600D01*
G75*
G02*
X135123200Y-89892600I0J-150000D01*
G01*
X135123200Y-91542600D01*
G75*
G02*
X134973200Y-91692600I-150000J0D01*
G01*
X134673200Y-91692600D01*
G75*
G02*
X134523200Y-91542600I0J150000D01*
G01*
X134523200Y-89892600D01*
G75*
G02*
X134673200Y-89742600I150000J0D01*
G01*
G37*
%TD.AperFunction*%
%TO.P,U1,3*%
%TO.N,Net-(R3-Pad2)*%
%TA.AperFunction,SMDPad,CuDef*%
G36*
G01*
X133403200Y-89742600D02*
X133703200Y-89742600D01*
G75*
G02*
X133853200Y-89892600I0J-150000D01*
G01*
X133853200Y-91542600D01*
G75*
G02*
X133703200Y-91692600I-150000J0D01*
G01*
X133403200Y-91692600D01*
G75*
G02*
X133253200Y-91542600I0J150000D01*
G01*
X133253200Y-89892600D01*
G75*
G02*
X133403200Y-89742600I150000J0D01*
G01*
G37*
%TD.AperFunction*%
%TO.P,U1,4*%
%TO.N,Net-(C5-Pad2)*%
%TA.AperFunction,SMDPad,CuDef*%
G36*
G01*
X132133200Y-89742600D02*
X132433200Y-89742600D01*
G75*
G02*
X132583200Y-89892600I0J-150000D01*
G01*
X132583200Y-91542600D01*
G75*
G02*
X132433200Y-91692600I-150000J0D01*
G01*
X132133200Y-91692600D01*
G75*
G02*
X131983200Y-91542600I0J150000D01*
G01*
X131983200Y-89892600D01*
G75*
G02*
X132133200Y-89742600I150000J0D01*
G01*
G37*
%TD.AperFunction*%
%TO.P,U1,5*%
%TO.N,/UD+*%
%TA.AperFunction,SMDPad,CuDef*%
G36*
G01*
X130863200Y-89742600D02*
X131163200Y-89742600D01*
G75*
G02*
X131313200Y-89892600I0J-150000D01*
G01*
X131313200Y-91542600D01*
G75*
G02*
X131163200Y-91692600I-150000J0D01*
G01*
X130863200Y-91692600D01*
G75*
G02*
X130713200Y-91542600I0J150000D01*
G01*
X130713200Y-89892600D01*
G75*
G02*
X130863200Y-89742600I150000J0D01*
G01*
G37*
%TD.AperFunction*%
%TO.P,U1,6*%
%TO.N,Net-(J1-Pad3)*%
%TA.AperFunction,SMDPad,CuDef*%
G36*
G01*
X129593200Y-89742600D02*
X129893200Y-89742600D01*
G75*
G02*
X130043200Y-89892600I0J-150000D01*
G01*
X130043200Y-91542600D01*
G75*
G02*
X129893200Y-91692600I-150000J0D01*
G01*
X129593200Y-91692600D01*
G75*
G02*
X129443200Y-91542600I0J150000D01*
G01*
X129443200Y-89892600D01*
G75*
G02*
X129593200Y-89742600I150000J0D01*
G01*
G37*
%TD.AperFunction*%
%TO.P,U1,7*%
%TO.N,Net-(C2-Pad1)*%
%TA.AperFunction,SMDPad,CuDef*%
G36*
G01*
X128323200Y-89742600D02*
X128623200Y-89742600D01*
G75*
G02*
X128773200Y-89892600I0J-150000D01*
G01*
X128773200Y-91542600D01*
G75*
G02*
X128623200Y-91692600I-150000J0D01*
G01*
X128323200Y-91692600D01*
G75*
G02*
X128173200Y-91542600I0J150000D01*
G01*
X128173200Y-89892600D01*
G75*
G02*
X128323200Y-89742600I150000J0D01*
G01*
G37*
%TD.AperFunction*%
%TO.P,U1,8*%
%TO.N,Net-(C4-Pad1)*%
%TA.AperFunction,SMDPad,CuDef*%
G36*
G01*
X127053200Y-89742600D02*
X127353200Y-89742600D01*
G75*
G02*
X127503200Y-89892600I0J-150000D01*
G01*
X127503200Y-91542600D01*
G75*
G02*
X127353200Y-91692600I-150000J0D01*
G01*
X127053200Y-91692600D01*
G75*
G02*
X126903200Y-91542600I0J150000D01*
G01*
X126903200Y-89892600D01*
G75*
G02*
X127053200Y-89742600I150000J0D01*
G01*
G37*
%TD.AperFunction*%
%TO.P,U1,9*%
%TO.N,N/C*%
%TA.AperFunction,SMDPad,CuDef*%
G36*
G01*
X127053200Y-94692600D02*
X127353200Y-94692600D01*
G75*
G02*
X127503200Y-94842600I0J-150000D01*
G01*
X127503200Y-96492600D01*
G75*
G02*
X127353200Y-96642600I-150000J0D01*
G01*
X127053200Y-96642600D01*
G75*
G02*
X126903200Y-96492600I0J150000D01*
G01*
X126903200Y-94842600D01*
G75*
G02*
X127053200Y-94692600I150000J0D01*
G01*
G37*
%TD.AperFunction*%
%TO.P,U1,10*%
%TA.AperFunction,SMDPad,CuDef*%
G36*
G01*
X128323200Y-94692600D02*
X128623200Y-94692600D01*
G75*
G02*
X128773200Y-94842600I0J-150000D01*
G01*
X128773200Y-96492600D01*
G75*
G02*
X128623200Y-96642600I-150000J0D01*
G01*
X128323200Y-96642600D01*
G75*
G02*
X128173200Y-96492600I0J150000D01*
G01*
X128173200Y-94842600D01*
G75*
G02*
X128323200Y-94692600I150000J0D01*
G01*
G37*
%TD.AperFunction*%
%TO.P,U1,11*%
%TA.AperFunction,SMDPad,CuDef*%
G36*
G01*
X129593200Y-94692600D02*
X129893200Y-94692600D01*
G75*
G02*
X130043200Y-94842600I0J-150000D01*
G01*
X130043200Y-96492600D01*
G75*
G02*
X129893200Y-96642600I-150000J0D01*
G01*
X129593200Y-96642600D01*
G75*
G02*
X129443200Y-96492600I0J150000D01*
G01*
X129443200Y-94842600D01*
G75*
G02*
X129593200Y-94692600I150000J0D01*
G01*
G37*
%TD.AperFunction*%
%TO.P,U1,12*%
%TA.AperFunction,SMDPad,CuDef*%
G36*
G01*
X130863200Y-94692600D02*
X131163200Y-94692600D01*
G75*
G02*
X131313200Y-94842600I0J-150000D01*
G01*
X131313200Y-96492600D01*
G75*
G02*
X131163200Y-96642600I-150000J0D01*
G01*
X130863200Y-96642600D01*
G75*
G02*
X130713200Y-96492600I0J150000D01*
G01*
X130713200Y-94842600D01*
G75*
G02*
X130863200Y-94692600I150000J0D01*
G01*
G37*
%TD.AperFunction*%
%TO.P,U1,13*%
%TO.N,Net-(C13-Pad2)*%
%TA.AperFunction,SMDPad,CuDef*%
G36*
G01*
X132133200Y-94692600D02*
X132433200Y-94692600D01*
G75*
G02*
X132583200Y-94842600I0J-150000D01*
G01*
X132583200Y-96492600D01*
G75*
G02*
X132433200Y-96642600I-150000J0D01*
G01*
X132133200Y-96642600D01*
G75*
G02*
X131983200Y-96492600I0J150000D01*
G01*
X131983200Y-94842600D01*
G75*
G02*
X132133200Y-94692600I150000J0D01*
G01*
G37*
%TD.AperFunction*%
%TO.P,U1,14*%
%TO.N,N/C*%
%TA.AperFunction,SMDPad,CuDef*%
G36*
G01*
X133403200Y-94692600D02*
X133703200Y-94692600D01*
G75*
G02*
X133853200Y-94842600I0J-150000D01*
G01*
X133853200Y-96492600D01*
G75*
G02*
X133703200Y-96642600I-150000J0D01*
G01*
X133403200Y-96642600D01*
G75*
G02*
X133253200Y-96492600I0J150000D01*
G01*
X133253200Y-94842600D01*
G75*
G02*
X133403200Y-94692600I150000J0D01*
G01*
G37*
%TD.AperFunction*%
%TO.P,U1,15*%
%TA.AperFunction,SMDPad,CuDef*%
G36*
G01*
X134673200Y-94692600D02*
X134973200Y-94692600D01*
G75*
G02*
X135123200Y-94842600I0J-150000D01*
G01*
X135123200Y-96492600D01*
G75*
G02*
X134973200Y-96642600I-150000J0D01*
G01*
X134673200Y-96642600D01*
G75*
G02*
X134523200Y-96492600I0J150000D01*
G01*
X134523200Y-94842600D01*
G75*
G02*
X134673200Y-94692600I150000J0D01*
G01*
G37*
%TD.AperFunction*%
%TO.P,U1,16*%
%TO.N,+5V*%
%TA.AperFunction,SMDPad,CuDef*%
G36*
G01*
X135943200Y-94692600D02*
X136243200Y-94692600D01*
G75*
G02*
X136393200Y-94842600I0J-150000D01*
G01*
X136393200Y-96492600D01*
G75*
G02*
X136243200Y-96642600I-150000J0D01*
G01*
X135943200Y-96642600D01*
G75*
G02*
X135793200Y-96492600I0J150000D01*
G01*
X135793200Y-94842600D01*
G75*
G02*
X135943200Y-94692600I150000J0D01*
G01*
G37*
%TD.AperFunction*%
%TD*%
%TO.P,C1,1*%
%TO.N,+5V*%
%TA.AperFunction,SMDPad,CuDef*%
G36*
G01*
X139765801Y-95242600D02*
X138465799Y-95242600D01*
G75*
G02*
X138215800Y-94992601I0J249999D01*
G01*
X138215800Y-94342599D01*
G75*
G02*
X138465799Y-94092600I249999J0D01*
G01*
X139765801Y-94092600D01*
G75*
G02*
X140015800Y-94342599I0J-249999D01*
G01*
X140015800Y-94992601D01*
G75*
G02*
X139765801Y-95242600I-249999J0D01*
G01*
G37*
%TD.AperFunction*%
%TO.P,C1,2*%
%TO.N,GND*%
%TA.AperFunction,SMDPad,CuDef*%
G36*
G01*
X139765801Y-92292600D02*
X138465799Y-92292600D01*
G75*
G02*
X138215800Y-92042601I0J249999D01*
G01*
X138215800Y-91392599D01*
G75*
G02*
X138465799Y-91142600I249999J0D01*
G01*
X139765801Y-91142600D01*
G75*
G02*
X140015800Y-91392599I0J-249999D01*
G01*
X140015800Y-92042601D01*
G75*
G02*
X139765801Y-92292600I-249999J0D01*
G01*
G37*
%TD.AperFunction*%
%TD*%
%TO.P,C3,2*%
%TO.N,GND*%
%TA.AperFunction,SMDPad,CuDef*%
G36*
G01*
X119522001Y-72810800D02*
X118221999Y-72810800D01*
G75*
G02*
X117972000Y-72560801I0J249999D01*
G01*
X117972000Y-71910799D01*
G75*
G02*
X118221999Y-71660800I249999J0D01*
G01*
X119522001Y-71660800D01*
G75*
G02*
X119772000Y-71910799I0J-249999D01*
G01*
X119772000Y-72560801D01*
G75*
G02*
X119522001Y-72810800I-249999J0D01*
G01*
G37*
%TD.AperFunction*%
%TO.P,C3,1*%
%TO.N,+5V*%
%TA.AperFunction,SMDPad,CuDef*%
G36*
G01*
X119522001Y-75760800D02*
X118221999Y-75760800D01*
G75*
G02*
X117972000Y-75510801I0J249999D01*
G01*
X117972000Y-74860799D01*
G75*
G02*
X118221999Y-74610800I249999J0D01*
G01*
X119522001Y-74610800D01*
G75*
G02*
X119772000Y-74860799I0J-249999D01*
G01*
X119772000Y-75510801D01*
G75*
G02*
X119522001Y-75760800I-249999J0D01*
G01*
G37*
%TD.AperFunction*%
%TD*%
%TO.P,C5,2*%
%TO.N,Net-(C5-Pad2)*%
%TA.AperFunction,SMDPad,CuDef*%
G36*
G01*
X127471600Y-85862399D02*
X127471600Y-87162401D01*
G75*
G02*
X127221601Y-87412400I-249999J0D01*
G01*
X126571599Y-87412400D01*
G75*
G02*
X126321600Y-87162401I0J249999D01*
G01*
X126321600Y-85862399D01*
G75*
G02*
X126571599Y-85612400I249999J0D01*
G01*
X127221601Y-85612400D01*
G75*
G02*
X127471600Y-85862399I0J-249999D01*
G01*
G37*
%TD.AperFunction*%
%TO.P,C5,1*%
%TO.N,GND*%
%TA.AperFunction,SMDPad,CuDef*%
G36*
G01*
X130421600Y-85862399D02*
X130421600Y-87162401D01*
G75*
G02*
X130171601Y-87412400I-249999J0D01*
G01*
X129521599Y-87412400D01*
G75*
G02*
X129271600Y-87162401I0J249999D01*
G01*
X129271600Y-85862399D01*
G75*
G02*
X129521599Y-85612400I249999J0D01*
G01*
X130171601Y-85612400D01*
G75*
G02*
X130421600Y-85862399I0J-249999D01*
G01*
G37*
%TD.AperFunction*%
%TD*%
%TO.P,C6,1*%
%TO.N,+5V*%
%TA.AperFunction,SMDPad,CuDef*%
G36*
G01*
X123179601Y-75760800D02*
X121879599Y-75760800D01*
G75*
G02*
X121629600Y-75510801I0J249999D01*
G01*
X121629600Y-74860799D01*
G75*
G02*
X121879599Y-74610800I249999J0D01*
G01*
X123179601Y-74610800D01*
G75*
G02*
X123429600Y-74860799I0J-249999D01*
G01*
X123429600Y-75510801D01*
G75*
G02*
X123179601Y-75760800I-249999J0D01*
G01*
G37*
%TD.AperFunction*%
%TO.P,C6,2*%
%TO.N,GND*%
%TA.AperFunction,SMDPad,CuDef*%
G36*
G01*
X123179601Y-72810800D02*
X121879599Y-72810800D01*
G75*
G02*
X121629600Y-72560801I0J249999D01*
G01*
X121629600Y-71910799D01*
G75*
G02*
X121879599Y-71660800I249999J0D01*
G01*
X123179601Y-71660800D01*
G75*
G02*
X123429600Y-71910799I0J-249999D01*
G01*
X123429600Y-72560801D01*
G75*
G02*
X123179601Y-72810800I-249999J0D01*
G01*
G37*
%TD.AperFunction*%
%TD*%
%TO.P,D1,1*%
%TO.N,/IO0*%
%TA.AperFunction,SMDPad,CuDef*%
G36*
G01*
X138884600Y-86460650D02*
X138884600Y-85548150D01*
G75*
G02*
X139128350Y-85304400I243750J0D01*
G01*
X139615850Y-85304400D01*
G75*
G02*
X139859600Y-85548150I0J-243750D01*
G01*
X139859600Y-86460650D01*
G75*
G02*
X139615850Y-86704400I-243750J0D01*
G01*
X139128350Y-86704400D01*
G75*
G02*
X138884600Y-86460650I0J243750D01*
G01*
G37*
%TD.AperFunction*%
%TO.P,D1,2*%
%TO.N,Net-(D1-Pad2)*%
%TA.AperFunction,SMDPad,CuDef*%
G36*
G01*
X140759600Y-86460650D02*
X140759600Y-85548150D01*
G75*
G02*
X141003350Y-85304400I243750J0D01*
G01*
X141490850Y-85304400D01*
G75*
G02*
X141734600Y-85548150I0J-243750D01*
G01*
X141734600Y-86460650D01*
G75*
G02*
X141490850Y-86704400I-243750J0D01*
G01*
X141003350Y-86704400D01*
G75*
G02*
X140759600Y-86460650I0J243750D01*
G01*
G37*
%TD.AperFunction*%
%TD*%
%TO.P,D2,2*%
%TO.N,Net-(D2-Pad2)*%
%TA.AperFunction,SMDPad,CuDef*%
G36*
G01*
X140759600Y-84174650D02*
X140759600Y-83262150D01*
G75*
G02*
X141003350Y-83018400I243750J0D01*
G01*
X141490850Y-83018400D01*
G75*
G02*
X141734600Y-83262150I0J-243750D01*
G01*
X141734600Y-84174650D01*
G75*
G02*
X141490850Y-84418400I-243750J0D01*
G01*
X141003350Y-84418400D01*
G75*
G02*
X140759600Y-84174650I0J243750D01*
G01*
G37*
%TD.AperFunction*%
%TO.P,D2,1*%
%TO.N,/IO1*%
%TA.AperFunction,SMDPad,CuDef*%
G36*
G01*
X138884600Y-84174650D02*
X138884600Y-83262150D01*
G75*
G02*
X139128350Y-83018400I243750J0D01*
G01*
X139615850Y-83018400D01*
G75*
G02*
X139859600Y-83262150I0J-243750D01*
G01*
X139859600Y-84174650D01*
G75*
G02*
X139615850Y-84418400I-243750J0D01*
G01*
X139128350Y-84418400D01*
G75*
G02*
X138884600Y-84174650I0J243750D01*
G01*
G37*
%TD.AperFunction*%
%TD*%
%TO.P,F1,1*%
%TO.N,+5V*%
%TA.AperFunction,SMDPad,CuDef*%
G36*
G01*
X109212400Y-83898401D02*
X109212400Y-80998399D01*
G75*
G02*
X109462399Y-80748400I249999J0D01*
G01*
X110087401Y-80748400D01*
G75*
G02*
X110337400Y-80998399I0J-249999D01*
G01*
X110337400Y-83898401D01*
G75*
G02*
X110087401Y-84148400I-249999J0D01*
G01*
X109462399Y-84148400D01*
G75*
G02*
X109212400Y-83898401I0J249999D01*
G01*
G37*
%TD.AperFunction*%
%TO.P,F1,2*%
%TO.N,/5VUSB*%
%TA.AperFunction,SMDPad,CuDef*%
G36*
G01*
X113487400Y-83898401D02*
X113487400Y-80998399D01*
G75*
G02*
X113737399Y-80748400I249999J0D01*
G01*
X114362401Y-80748400D01*
G75*
G02*
X114612400Y-80998399I0J-249999D01*
G01*
X114612400Y-83898401D01*
G75*
G02*
X114362401Y-84148400I-249999J0D01*
G01*
X113737399Y-84148400D01*
G75*
G02*
X113487400Y-83898401I0J249999D01*
G01*
G37*
%TD.AperFunction*%
%TD*%
D12*
%TO.P,J1,6*%
%TO.N,Net-(J1-Pad6)*%
X107818400Y-92183600D03*
X107818400Y-89883600D03*
D13*
X107818400Y-94783600D03*
X107818400Y-87283600D03*
D14*
%TO.P,J1,5*%
%TO.N,GND*%
X110668400Y-92333600D03*
%TO.P,J1,4*%
%TO.N,N/C*%
X110668400Y-91683600D03*
%TO.P,J1,3*%
%TO.N,Net-(J1-Pad3)*%
X110668400Y-91033600D03*
%TO.P,J1,2*%
%TO.N,/UD+*%
X110668400Y-90383600D03*
%TO.P,J1,1*%
%TO.N,/5VUSB*%
X110668400Y-89733600D03*
%TD*%
D15*
%TO.P,J2,1*%
%TO.N,GND*%
X110998000Y-71374000D03*
D16*
%TO.P,J2,2*%
%TO.N,+5V*%
X110998000Y-76374000D03*
%TD*%
D17*
%TO.P,J3,1*%
%TO.N,/MISO*%
X147320000Y-79095600D03*
D18*
%TO.P,J3,2*%
%TO.N,+5V*%
X149860000Y-79095600D03*
%TO.P,J3,3*%
%TO.N,/SCK*%
X147320000Y-81635600D03*
%TO.P,J3,4*%
%TO.N,/MOSI*%
X149860000Y-81635600D03*
%TO.P,J3,5*%
%TO.N,/~RESET*%
X147320000Y-84175600D03*
%TO.P,J3,6*%
%TO.N,GND*%
X149860000Y-84175600D03*
%TD*%
D17*
%TO.P,J4,1*%
%TO.N,/I2C_A0*%
X165100000Y-94284800D03*
D18*
%TO.P,J4,2*%
%TO.N,/I2C_A1*%
X165100000Y-96824800D03*
%TO.P,J4,3*%
%TO.N,/I2C_A2*%
X162560000Y-94284800D03*
%TO.P,J4,4*%
%TO.N,/I2C_A3*%
X162560000Y-96824800D03*
%TO.P,J4,5*%
%TO.N,/I2C_A4*%
X160020000Y-94284800D03*
%TO.P,J4,6*%
%TO.N,/I2C_A5*%
X160020000Y-96824800D03*
%TO.P,J4,7*%
%TO.N,/I2C_A6*%
X157480000Y-94284800D03*
%TO.P,J4,8*%
%TO.N,/I2C_A7*%
X157480000Y-96824800D03*
%TO.P,J4,9*%
%TO.N,GND*%
X154940000Y-94284800D03*
%TO.P,J4,10*%
X154940000Y-96824800D03*
%TD*%
D17*
%TO.P,J7,1*%
%TO.N,/SCL*%
X147370800Y-90627200D03*
D18*
%TO.P,J7,2*%
%TO.N,/SDA*%
X149910800Y-90627200D03*
%TD*%
D17*
%TO.P,J8,1*%
%TO.N,/I2C_B0*%
X155143200Y-74980800D03*
D18*
%TO.P,J8,2*%
%TO.N,/I2C_B1*%
X155143200Y-72440800D03*
%TO.P,J8,3*%
%TO.N,/I2C_B2*%
X157683200Y-74980800D03*
%TO.P,J8,4*%
%TO.N,/I2C_B3*%
X157683200Y-72440800D03*
%TO.P,J8,5*%
%TO.N,/I2C_B4*%
X160223200Y-74980800D03*
%TO.P,J8,6*%
%TO.N,/I2C_B5*%
X160223200Y-72440800D03*
%TO.P,J8,7*%
%TO.N,/I2C_B6*%
X162763200Y-74980800D03*
%TO.P,J8,8*%
%TO.N,/I2C_B7*%
X162763200Y-72440800D03*
%TO.P,J8,9*%
%TO.N,GND*%
X165303200Y-74980800D03*
%TO.P,J8,10*%
X165303200Y-72440800D03*
%TD*%
%TO.P,R1,1*%
%TO.N,/~RESET*%
%TA.AperFunction,SMDPad,CuDef*%
G36*
G01*
X143756801Y-94693800D02*
X142856799Y-94693800D01*
G75*
G02*
X142606800Y-94443801I0J249999D01*
G01*
X142606800Y-93918799D01*
G75*
G02*
X142856799Y-93668800I249999J0D01*
G01*
X143756801Y-93668800D01*
G75*
G02*
X144006800Y-93918799I0J-249999D01*
G01*
X144006800Y-94443801D01*
G75*
G02*
X143756801Y-94693800I-249999J0D01*
G01*
G37*
%TD.AperFunction*%
%TO.P,R1,2*%
%TO.N,+5V*%
%TA.AperFunction,SMDPad,CuDef*%
G36*
G01*
X143756801Y-92868800D02*
X142856799Y-92868800D01*
G75*
G02*
X142606800Y-92618801I0J249999D01*
G01*
X142606800Y-92093799D01*
G75*
G02*
X142856799Y-91843800I249999J0D01*
G01*
X143756801Y-91843800D01*
G75*
G02*
X144006800Y-92093799I0J-249999D01*
G01*
X144006800Y-92618801D01*
G75*
G02*
X143756801Y-92868800I-249999J0D01*
G01*
G37*
%TD.AperFunction*%
%TD*%
%TO.P,R2,2*%
%TO.N,Net-(R2-Pad2)*%
%TA.AperFunction,SMDPad,CuDef*%
G36*
G01*
X135896400Y-85503599D02*
X135896400Y-86403601D01*
G75*
G02*
X135646401Y-86653600I-249999J0D01*
G01*
X135121399Y-86653600D01*
G75*
G02*
X134871400Y-86403601I0J249999D01*
G01*
X134871400Y-85503599D01*
G75*
G02*
X135121399Y-85253600I249999J0D01*
G01*
X135646401Y-85253600D01*
G75*
G02*
X135896400Y-85503599I0J-249999D01*
G01*
G37*
%TD.AperFunction*%
%TO.P,R2,1*%
%TO.N,/IO0*%
%TA.AperFunction,SMDPad,CuDef*%
G36*
G01*
X137721400Y-85503599D02*
X137721400Y-86403601D01*
G75*
G02*
X137471401Y-86653600I-249999J0D01*
G01*
X136946399Y-86653600D01*
G75*
G02*
X136696400Y-86403601I0J249999D01*
G01*
X136696400Y-85503599D01*
G75*
G02*
X136946399Y-85253600I249999J0D01*
G01*
X137471401Y-85253600D01*
G75*
G02*
X137721400Y-85503599I0J-249999D01*
G01*
G37*
%TD.AperFunction*%
%TD*%
%TO.P,R3,1*%
%TO.N,/IO1*%
%TA.AperFunction,SMDPad,CuDef*%
G36*
G01*
X137670600Y-83268399D02*
X137670600Y-84168401D01*
G75*
G02*
X137420601Y-84418400I-249999J0D01*
G01*
X136895599Y-84418400D01*
G75*
G02*
X136645600Y-84168401I0J249999D01*
G01*
X136645600Y-83268399D01*
G75*
G02*
X136895599Y-83018400I249999J0D01*
G01*
X137420601Y-83018400D01*
G75*
G02*
X137670600Y-83268399I0J-249999D01*
G01*
G37*
%TD.AperFunction*%
%TO.P,R3,2*%
%TO.N,Net-(R3-Pad2)*%
%TA.AperFunction,SMDPad,CuDef*%
G36*
G01*
X135845600Y-83268399D02*
X135845600Y-84168401D01*
G75*
G02*
X135595601Y-84418400I-249999J0D01*
G01*
X135070599Y-84418400D01*
G75*
G02*
X134820600Y-84168401I0J249999D01*
G01*
X134820600Y-83268399D01*
G75*
G02*
X135070599Y-83018400I249999J0D01*
G01*
X135595601Y-83018400D01*
G75*
G02*
X135845600Y-83268399I0J-249999D01*
G01*
G37*
%TD.AperFunction*%
%TD*%
%TO.P,R4,1*%
%TO.N,+5V*%
%TA.AperFunction,SMDPad,CuDef*%
G36*
G01*
X145239800Y-85554399D02*
X145239800Y-86454401D01*
G75*
G02*
X144989801Y-86704400I-249999J0D01*
G01*
X144464799Y-86704400D01*
G75*
G02*
X144214800Y-86454401I0J249999D01*
G01*
X144214800Y-85554399D01*
G75*
G02*
X144464799Y-85304400I249999J0D01*
G01*
X144989801Y-85304400D01*
G75*
G02*
X145239800Y-85554399I0J-249999D01*
G01*
G37*
%TD.AperFunction*%
%TO.P,R4,2*%
%TO.N,Net-(D1-Pad2)*%
%TA.AperFunction,SMDPad,CuDef*%
G36*
G01*
X143414800Y-85554399D02*
X143414800Y-86454401D01*
G75*
G02*
X143164801Y-86704400I-249999J0D01*
G01*
X142639799Y-86704400D01*
G75*
G02*
X142389800Y-86454401I0J249999D01*
G01*
X142389800Y-85554399D01*
G75*
G02*
X142639799Y-85304400I249999J0D01*
G01*
X143164801Y-85304400D01*
G75*
G02*
X143414800Y-85554399I0J-249999D01*
G01*
G37*
%TD.AperFunction*%
%TD*%
%TO.P,R5,2*%
%TO.N,+5V*%
%TA.AperFunction,SMDPad,CuDef*%
G36*
G01*
X144164000Y-84168401D02*
X144164000Y-83268399D01*
G75*
G02*
X144413999Y-83018400I249999J0D01*
G01*
X144939001Y-83018400D01*
G75*
G02*
X145189000Y-83268399I0J-249999D01*
G01*
X145189000Y-84168401D01*
G75*
G02*
X144939001Y-84418400I-249999J0D01*
G01*
X144413999Y-84418400D01*
G75*
G02*
X144164000Y-84168401I0J249999D01*
G01*
G37*
%TD.AperFunction*%
%TO.P,R5,1*%
%TO.N,Net-(D2-Pad2)*%
%TA.AperFunction,SMDPad,CuDef*%
G36*
G01*
X142339000Y-84168401D02*
X142339000Y-83268399D01*
G75*
G02*
X142588999Y-83018400I249999J0D01*
G01*
X143114001Y-83018400D01*
G75*
G02*
X143364000Y-83268399I0J-249999D01*
G01*
X143364000Y-84168401D01*
G75*
G02*
X143114001Y-84418400I-249999J0D01*
G01*
X142588999Y-84418400D01*
G75*
G02*
X142339000Y-84168401I0J249999D01*
G01*
G37*
%TD.AperFunction*%
%TD*%
%TO.P,C12,1*%
%TO.N,/3V3*%
%TA.AperFunction,SMDPad,CuDef*%
G36*
G01*
X131742400Y-68285599D02*
X131742400Y-69585601D01*
G75*
G02*
X131492401Y-69835600I-249999J0D01*
G01*
X130842399Y-69835600D01*
G75*
G02*
X130592400Y-69585601I0J249999D01*
G01*
X130592400Y-68285599D01*
G75*
G02*
X130842399Y-68035600I249999J0D01*
G01*
X131492401Y-68035600D01*
G75*
G02*
X131742400Y-68285599I0J-249999D01*
G01*
G37*
%TD.AperFunction*%
%TO.P,C12,2*%
%TO.N,GND*%
%TA.AperFunction,SMDPad,CuDef*%
G36*
G01*
X128792400Y-68285599D02*
X128792400Y-69585601D01*
G75*
G02*
X128542401Y-69835600I-249999J0D01*
G01*
X127892399Y-69835600D01*
G75*
G02*
X127642400Y-69585601I0J249999D01*
G01*
X127642400Y-68285599D01*
G75*
G02*
X127892399Y-68035600I249999J0D01*
G01*
X128542401Y-68035600D01*
G75*
G02*
X128792400Y-68285599I0J-249999D01*
G01*
G37*
%TD.AperFunction*%
%TD*%
D19*
%TO.P,U4,2*%
%TO.N,/3V3*%
X132994800Y-73761600D03*
D20*
X126694800Y-73761600D03*
%TO.P,U4,3*%
%TO.N,+5V*%
X126694800Y-76061600D03*
%TO.P,U4,1*%
%TO.N,GND*%
X126694800Y-71461600D03*
%TD*%
D21*
%TO.P,Y1,1*%
%TO.N,Net-(C2-Pad1)*%
X120409600Y-90797200D03*
%TO.P,Y1,2*%
%TO.N,GND*%
X120409600Y-92997200D03*
%TO.P,Y1,3*%
%TO.N,Net-(C4-Pad1)*%
X122109600Y-92997200D03*
%TO.P,Y1,4*%
%TO.N,GND*%
X122109600Y-90797200D03*
%TD*%
%TO.P,C2,2*%
%TO.N,GND*%
%TA.AperFunction,SMDPad,CuDef*%
G36*
G01*
X121533800Y-88540400D02*
X121533800Y-88040400D01*
G75*
G02*
X121758800Y-87815400I225000J0D01*
G01*
X122208800Y-87815400D01*
G75*
G02*
X122433800Y-88040400I0J-225000D01*
G01*
X122433800Y-88540400D01*
G75*
G02*
X122208800Y-88765400I-225000J0D01*
G01*
X121758800Y-88765400D01*
G75*
G02*
X121533800Y-88540400I0J225000D01*
G01*
G37*
%TD.AperFunction*%
%TO.P,C2,1*%
%TO.N,Net-(C2-Pad1)*%
%TA.AperFunction,SMDPad,CuDef*%
G36*
G01*
X119983800Y-88540400D02*
X119983800Y-88040400D01*
G75*
G02*
X120208800Y-87815400I225000J0D01*
G01*
X120658800Y-87815400D01*
G75*
G02*
X120883800Y-88040400I0J-225000D01*
G01*
X120883800Y-88540400D01*
G75*
G02*
X120658800Y-88765400I-225000J0D01*
G01*
X120208800Y-88765400D01*
G75*
G02*
X119983800Y-88540400I0J225000D01*
G01*
G37*
%TD.AperFunction*%
%TD*%
%TO.P,C4,1*%
%TO.N,Net-(C4-Pad1)*%
%TA.AperFunction,SMDPad,CuDef*%
G36*
G01*
X122484600Y-95660400D02*
X122484600Y-96160400D01*
G75*
G02*
X122259600Y-96385400I-225000J0D01*
G01*
X121809600Y-96385400D01*
G75*
G02*
X121584600Y-96160400I0J225000D01*
G01*
X121584600Y-95660400D01*
G75*
G02*
X121809600Y-95435400I225000J0D01*
G01*
X122259600Y-95435400D01*
G75*
G02*
X122484600Y-95660400I0J-225000D01*
G01*
G37*
%TD.AperFunction*%
%TO.P,C4,2*%
%TO.N,GND*%
%TA.AperFunction,SMDPad,CuDef*%
G36*
G01*
X120934600Y-95660400D02*
X120934600Y-96160400D01*
G75*
G02*
X120709600Y-96385400I-225000J0D01*
G01*
X120259600Y-96385400D01*
G75*
G02*
X120034600Y-96160400I0J225000D01*
G01*
X120034600Y-95660400D01*
G75*
G02*
X120259600Y-95435400I225000J0D01*
G01*
X120709600Y-95435400D01*
G75*
G02*
X120934600Y-95660400I0J-225000D01*
G01*
G37*
%TD.AperFunction*%
%TD*%
D17*
%TO.P,J5,1*%
%TO.N,+5V*%
X136906000Y-74930000D03*
D18*
%TO.P,J5,2*%
X136906000Y-72390000D03*
%TO.P,J5,3*%
%TO.N,/3V3*%
X139446000Y-74930000D03*
%TO.P,J5,4*%
X139446000Y-72390000D03*
%TO.P,J5,5*%
%TO.N,GND*%
X141986000Y-74930000D03*
%TO.P,J5,6*%
X141986000Y-72390000D03*
%TD*%
D17*
%TO.P,J6,1*%
%TO.N,/IO0*%
X125679200Y-99314000D03*
D18*
%TO.P,J6,2*%
%TO.N,/IO1*%
X123139200Y-99314000D03*
%TO.P,J6,3*%
%TO.N,/IO2*%
X120599200Y-99314000D03*
%TO.P,J6,4*%
%TO.N,/IO3*%
X118059200Y-99314000D03*
%TO.P,J6,5*%
%TO.N,/IO4*%
X115519200Y-99314000D03*
%TD*%
D17*
%TO.P,J9,1*%
%TO.N,/IO5*%
X129387600Y-79197200D03*
D18*
%TO.P,J9,2*%
%TO.N,/IO6*%
X131927600Y-79197200D03*
%TO.P,J9,3*%
%TO.N,/IO7*%
X134467600Y-79197200D03*
%TO.P,J9,4*%
%TO.N,/IO8*%
X137007600Y-79197200D03*
%TO.P,J9,5*%
%TO.N,/IO9*%
X139547600Y-79197200D03*
%TO.P,J9,6*%
%TO.N,/IO10*%
X142087600Y-79197200D03*
%TD*%
%TO.P,R6,2*%
%TO.N,/5VUSB*%
%TA.AperFunction,SMDPad,CuDef*%
G36*
G01*
X112732399Y-87877600D02*
X113632401Y-87877600D01*
G75*
G02*
X113882400Y-88127599I0J-249999D01*
G01*
X113882400Y-88652601D01*
G75*
G02*
X113632401Y-88902600I-249999J0D01*
G01*
X112732399Y-88902600D01*
G75*
G02*
X112482400Y-88652601I0J249999D01*
G01*
X112482400Y-88127599D01*
G75*
G02*
X112732399Y-87877600I249999J0D01*
G01*
G37*
%TD.AperFunction*%
%TO.P,R6,1*%
%TA.AperFunction,SMDPad,CuDef*%
G36*
G01*
X112732399Y-86052600D02*
X113632401Y-86052600D01*
G75*
G02*
X113882400Y-86302599I0J-249999D01*
G01*
X113882400Y-86827601D01*
G75*
G02*
X113632401Y-87077600I-249999J0D01*
G01*
X112732399Y-87077600D01*
G75*
G02*
X112482400Y-86827601I0J249999D01*
G01*
X112482400Y-86302599D01*
G75*
G02*
X112732399Y-86052600I249999J0D01*
G01*
G37*
%TD.AperFunction*%
%TD*%
%TO.P,R7,1*%
%TO.N,/UD+*%
%TA.AperFunction,SMDPad,CuDef*%
G36*
G01*
X114256399Y-89608600D02*
X115156401Y-89608600D01*
G75*
G02*
X115406400Y-89858599I0J-249999D01*
G01*
X115406400Y-90383601D01*
G75*
G02*
X115156401Y-90633600I-249999J0D01*
G01*
X114256399Y-90633600D01*
G75*
G02*
X114006400Y-90383601I0J249999D01*
G01*
X114006400Y-89858599D01*
G75*
G02*
X114256399Y-89608600I249999J0D01*
G01*
G37*
%TD.AperFunction*%
%TO.P,R7,2*%
%TA.AperFunction,SMDPad,CuDef*%
G36*
G01*
X114256399Y-91433600D02*
X115156401Y-91433600D01*
G75*
G02*
X115406400Y-91683599I0J-249999D01*
G01*
X115406400Y-92208601D01*
G75*
G02*
X115156401Y-92458600I-249999J0D01*
G01*
X114256399Y-92458600D01*
G75*
G02*
X114006400Y-92208601I0J249999D01*
G01*
X114006400Y-91683599D01*
G75*
G02*
X114256399Y-91433600I249999J0D01*
G01*
G37*
%TD.AperFunction*%
%TD*%
%TO.P,C13,1*%
%TO.N,/~RESET*%
%TA.AperFunction,SMDPad,CuDef*%
G36*
G01*
X134647600Y-97518200D02*
X134647600Y-98468200D01*
G75*
G02*
X134397600Y-98718200I-250000J0D01*
G01*
X133897600Y-98718200D01*
G75*
G02*
X133647600Y-98468200I0J250000D01*
G01*
X133647600Y-97518200D01*
G75*
G02*
X133897600Y-97268200I250000J0D01*
G01*
X134397600Y-97268200D01*
G75*
G02*
X134647600Y-97518200I0J-250000D01*
G01*
G37*
%TD.AperFunction*%
%TO.P,C13,2*%
%TO.N,Net-(C13-Pad2)*%
%TA.AperFunction,SMDPad,CuDef*%
G36*
G01*
X132747600Y-97518200D02*
X132747600Y-98468200D01*
G75*
G02*
X132497600Y-98718200I-250000J0D01*
G01*
X131997600Y-98718200D01*
G75*
G02*
X131747600Y-98468200I0J250000D01*
G01*
X131747600Y-97518200D01*
G75*
G02*
X131997600Y-97268200I250000J0D01*
G01*
X132497600Y-97268200D01*
G75*
G02*
X132747600Y-97518200I0J-250000D01*
G01*
G37*
%TD.AperFunction*%
%TD*%
D22*
%TO.P,SW1,1*%
%TO.N,/~RESET*%
X138259600Y-98552000D03*
%TO.P,SW1,2*%
%TO.N,GND*%
X147439600Y-98552000D03*
%TD*%
D23*
%TO.N,GND*%
X139141200Y-89814400D03*
X115316000Y-85699600D03*
%TO.N,/~RESET*%
X145237200Y-93167200D03*
%TD*%
D24*
%TO.N,GND*%
X110998000Y-71374000D02*
X118010200Y-71374000D01*
X118010200Y-71374000D02*
X118872000Y-72235800D01*
X118872000Y-72235800D02*
X122529600Y-72235800D01*
X122529600Y-72235800D02*
X125920600Y-72235800D01*
X125920600Y-72235800D02*
X126694800Y-71461600D01*
X128217400Y-68935600D02*
X127914400Y-68935600D01*
X126694800Y-69494800D02*
X126694800Y-71461600D01*
X127914400Y-68935600D02*
X126694800Y-69494800D01*
D25*
X120057800Y-94099000D02*
X120059600Y-94097200D01*
X139115800Y-91717600D02*
X139114000Y-91717600D01*
X138114000Y-90717600D02*
X136093200Y-90717600D01*
X139114000Y-91717600D02*
X138114000Y-90717600D01*
X129846600Y-86512400D02*
X129846600Y-85041000D01*
X122683800Y-85647000D02*
X122683800Y-86512400D01*
X123698000Y-84632800D02*
X122683800Y-85647000D01*
X129438400Y-84632800D02*
X123698000Y-84632800D01*
X129846600Y-85041000D02*
X129438400Y-84632800D01*
D26*
X120059600Y-94097200D02*
X119649600Y-94097200D01*
X120956600Y-84785200D02*
X122683800Y-86512400D01*
X118516400Y-84785200D02*
X120956600Y-84785200D01*
X118008400Y-85293200D02*
X118516400Y-84785200D01*
X118008400Y-92456000D02*
X118008400Y-88747600D01*
X118008400Y-88747600D02*
X118008400Y-85293200D01*
X119649600Y-94097200D02*
X118008400Y-92456000D01*
X118008400Y-88747600D02*
X117144800Y-88747600D01*
X117144800Y-88747600D02*
X117144800Y-87579200D01*
X117144800Y-87579200D02*
X116001800Y-86436200D01*
X116001800Y-86436200D02*
X115976400Y-86410800D01*
X110185200Y-87477600D02*
X114909600Y-87477600D01*
X114909600Y-87477600D02*
X115976400Y-86410800D01*
X110185200Y-87477600D02*
X110185200Y-85902800D01*
X108661200Y-73710800D02*
X110998000Y-71374000D01*
X108661200Y-84683600D02*
X108661200Y-73710800D01*
X108458000Y-84886800D02*
X108661200Y-84683600D01*
X109169200Y-84886800D02*
X108458000Y-84886800D01*
X110185200Y-85902800D02*
X109169200Y-84886800D01*
X110668400Y-92333600D02*
X109656400Y-92333600D01*
X109423200Y-88239600D02*
X110185200Y-87477600D01*
X109423200Y-92100400D02*
X109423200Y-88239600D01*
X109656400Y-92333600D02*
X109423200Y-92100400D01*
X122109600Y-90797200D02*
X122109600Y-89472400D01*
X122683800Y-88898200D02*
X122683800Y-88392000D01*
X122683800Y-88392000D02*
X122683800Y-86512400D01*
X122109600Y-89472400D02*
X122683800Y-88898200D01*
X120057800Y-94099000D02*
X120057800Y-93349000D01*
X120057800Y-93349000D02*
X120409600Y-92997200D01*
X120484600Y-95910400D02*
X120484600Y-94522200D01*
X120484600Y-94522200D02*
X120059600Y-94097200D01*
X122683800Y-88392000D02*
X122085400Y-88392000D01*
X122085400Y-88392000D02*
X121983800Y-88290400D01*
D24*
X141986000Y-74930000D02*
X141986000Y-72390000D01*
D26*
X141986000Y-72390000D02*
X141986000Y-71120000D01*
X128217400Y-67870600D02*
X128217400Y-68935600D01*
X128778000Y-67310000D02*
X128217400Y-67870600D01*
X132080000Y-67310000D02*
X128778000Y-67310000D01*
X134366000Y-69596000D02*
X132080000Y-67310000D01*
X140462000Y-69596000D02*
X134366000Y-69596000D01*
X141986000Y-71120000D02*
X140462000Y-69596000D01*
X141986000Y-74930000D02*
X143764000Y-74930000D01*
X143764000Y-74930000D02*
X144526000Y-74168000D01*
X144526000Y-74168000D02*
X147828000Y-74168000D01*
X147828000Y-74168000D02*
X151892000Y-78232000D01*
X151892000Y-78232000D02*
X151892000Y-82143600D01*
X151892000Y-82143600D02*
X149860000Y-84175600D01*
X139115800Y-91717600D02*
X139115800Y-89839800D01*
X139115800Y-89839800D02*
X139141200Y-89814400D01*
X116001800Y-86385400D02*
X116001800Y-86436200D01*
X115316000Y-85699600D02*
X116001800Y-86385400D01*
D25*
X149860000Y-84175600D02*
X149860000Y-84480400D01*
X147439600Y-95994000D02*
X147439600Y-98552000D01*
X150825200Y-92608400D02*
X147439600Y-95994000D01*
X152603200Y-92608400D02*
X150825200Y-92608400D01*
X154940000Y-90271600D02*
X152603200Y-92608400D01*
X154940000Y-88544400D02*
X154940000Y-90271600D01*
X153060400Y-86664800D02*
X154940000Y-88544400D01*
X152044400Y-86664800D02*
X153060400Y-86664800D01*
X149860000Y-84480400D02*
X152044400Y-86664800D01*
D24*
%TO.N,+5V*%
X109774900Y-82448400D02*
X109774900Y-77597100D01*
X109774900Y-77597100D02*
X110998000Y-76374000D01*
X110998000Y-76374000D02*
X111230400Y-76374000D01*
X112418600Y-75185800D02*
X118872000Y-75185800D01*
X111230400Y-76374000D02*
X112418600Y-75185800D01*
X118872000Y-75185800D02*
X122529600Y-75185800D01*
X122529600Y-75185800D02*
X122734600Y-75185800D01*
X122734600Y-75185800D02*
X123610400Y-76061600D01*
X123610400Y-76061600D02*
X126694800Y-76061600D01*
D25*
X139115800Y-94667600D02*
X139115800Y-94716600D01*
X138164800Y-95667600D02*
X136093200Y-95667600D01*
X139115800Y-94716600D02*
X138164800Y-95667600D01*
D24*
X149860000Y-79095600D02*
X149860000Y-77927200D01*
X149860000Y-77927200D02*
X149199600Y-77266800D01*
X149199600Y-77266800D02*
X149047200Y-77114400D01*
X139115800Y-94667600D02*
X139723600Y-94667600D01*
X139115800Y-94667600D02*
X141173200Y-94667600D01*
D26*
X136499600Y-81838800D02*
X136448800Y-81838800D01*
D24*
X139446000Y-88442800D02*
X141173200Y-90170000D01*
X137718800Y-88442800D02*
X139446000Y-88442800D01*
X136245600Y-86969600D02*
X137718800Y-88442800D01*
D26*
X136245600Y-82042000D02*
X136245600Y-86969600D01*
X136448800Y-81838800D02*
X136245600Y-82042000D01*
D24*
X141173200Y-90170000D02*
X141173200Y-91744800D01*
X141173200Y-91744800D02*
X141173200Y-94667600D01*
D25*
X136499600Y-81838800D02*
X136448800Y-81889600D01*
X144627600Y-81889600D02*
X136448800Y-81889600D01*
D24*
X126694800Y-76061600D02*
X128893600Y-76061600D01*
X136906000Y-76758800D02*
X136906000Y-74930000D01*
X136550400Y-77114400D02*
X136906000Y-76758800D01*
X129946400Y-77114400D02*
X136550400Y-77114400D01*
X128893600Y-76061600D02*
X129946400Y-77114400D01*
X136906000Y-74930000D02*
X136906000Y-72390000D01*
X136550400Y-77114400D02*
X144170400Y-77114400D01*
X144170400Y-77114400D02*
X149047200Y-77114400D01*
X149047200Y-77114400D02*
X149199600Y-77266800D01*
X149199600Y-77266800D02*
X149199600Y-77317600D01*
X149199600Y-77317600D02*
X149199600Y-77266800D01*
X144627600Y-81889600D02*
X144627600Y-77571600D01*
X144627600Y-77571600D02*
X144170400Y-77114400D01*
D26*
X144727300Y-86004400D02*
X144727300Y-83769200D01*
X144727300Y-83769200D02*
X144676500Y-83718400D01*
X144676500Y-83718400D02*
X144676500Y-81938500D01*
X144676500Y-81938500D02*
X144627600Y-81889600D01*
D24*
X143306800Y-92356300D02*
X141784700Y-92356300D01*
X141784700Y-92356300D02*
X141173200Y-91744800D01*
D26*
%TO.N,Net-(C2-Pad1)*%
X120409600Y-90797200D02*
X120409600Y-91199600D01*
X120409600Y-91199600D02*
X121107200Y-91897200D01*
X121107200Y-91897200D02*
X123850400Y-91897200D01*
X123850400Y-91897200D02*
X126593600Y-89154000D01*
X126593600Y-89154000D02*
X128066800Y-89154000D01*
X128066800Y-89154000D02*
X128473200Y-89560400D01*
X128473200Y-89560400D02*
X128473200Y-90717600D01*
X120409600Y-90797200D02*
X120409600Y-88314600D01*
X120409600Y-88314600D02*
X120433800Y-88290400D01*
D25*
%TO.N,Net-(C4-Pad1)*%
X122461400Y-94099000D02*
X122459600Y-94097200D01*
D26*
X122459600Y-94097200D02*
X123072800Y-94097200D01*
X126452400Y-90717600D02*
X127203200Y-90717600D01*
X123072800Y-94097200D02*
X126452400Y-90717600D01*
X122461400Y-94099000D02*
X122461400Y-93349000D01*
X122461400Y-93349000D02*
X122109600Y-92997200D01*
X122034600Y-95910400D02*
X122034600Y-94525800D01*
X122034600Y-94525800D02*
X122461400Y-94099000D01*
%TO.N,Net-(C5-Pad2)*%
X132283200Y-90717600D02*
X132283200Y-89814400D01*
X126896600Y-87729800D02*
X126896600Y-86512400D01*
X127508000Y-88341200D02*
X126896600Y-87729800D01*
X130810000Y-88341200D02*
X127508000Y-88341200D01*
X132283200Y-89814400D02*
X130810000Y-88341200D01*
%TO.N,Net-(D1-Pad2)*%
X141247100Y-86004400D02*
X142902300Y-86004400D01*
%TO.N,Net-(D2-Pad2)*%
X141247100Y-83718400D02*
X142851500Y-83718400D01*
%TO.N,Net-(J1-Pad6)*%
X107818400Y-94783600D02*
X107818400Y-92183600D01*
X107818400Y-92183600D02*
X107818400Y-89883600D01*
X107818400Y-89883600D02*
X107818400Y-87283600D01*
%TO.N,Net-(J1-Pad3)*%
X110668400Y-91033600D02*
X115722400Y-91033600D01*
X129743200Y-92456000D02*
X129743200Y-90717600D01*
X129032000Y-93167200D02*
X129743200Y-92456000D01*
X125018800Y-93167200D02*
X129032000Y-93167200D01*
X123342400Y-94843600D02*
X125018800Y-93167200D01*
X123342400Y-96316800D02*
X123342400Y-94843600D01*
X122631200Y-97028000D02*
X123342400Y-96316800D01*
X119684800Y-97028000D02*
X122631200Y-97028000D01*
X119176800Y-96520000D02*
X119684800Y-97028000D01*
X119176800Y-94488000D02*
X119176800Y-96520000D01*
X115722400Y-91033600D02*
X119176800Y-94488000D01*
D25*
%TO.N,/~RESET*%
X145237200Y-93167200D02*
X144223100Y-94181300D01*
X144223100Y-94181300D02*
X143306800Y-94181300D01*
X134147600Y-97993200D02*
X135026400Y-97993200D01*
X135585200Y-98552000D02*
X138259600Y-98552000D01*
X135026400Y-97993200D02*
X135585200Y-98552000D01*
X138259600Y-98552000D02*
X138107200Y-97198400D01*
X141628500Y-95859600D02*
X143306800Y-94181300D01*
X139446000Y-95859600D02*
X141628500Y-95859600D01*
X138107200Y-97198400D02*
X139446000Y-95859600D01*
%TO.N,/IO1*%
X137158100Y-83718400D02*
X139372100Y-83718400D01*
D26*
X123139200Y-99314000D02*
X123139200Y-99364800D01*
X123139200Y-99364800D02*
X123139200Y-99314000D01*
D25*
X123139200Y-99314000D02*
X123139200Y-99720400D01*
X140309600Y-84655900D02*
X139372100Y-83718400D01*
X140309600Y-87071200D02*
X140309600Y-84655900D01*
X143205200Y-89966800D02*
X140309600Y-87071200D01*
X144170400Y-89966800D02*
X143205200Y-89966800D01*
X145135600Y-90932000D02*
X144170400Y-89966800D01*
X145745200Y-91541600D02*
X145135600Y-90932000D01*
X147269200Y-93065600D02*
X145745200Y-91541600D01*
X147269200Y-94234000D02*
X147269200Y-93065600D01*
X145084800Y-96418400D02*
X147269200Y-94234000D01*
X143865600Y-96418400D02*
X145084800Y-96418400D01*
X141376400Y-98907600D02*
X143865600Y-96418400D01*
X141376400Y-99364800D02*
X141376400Y-98907600D01*
X139954000Y-100787200D02*
X141376400Y-99364800D01*
X124206000Y-100787200D02*
X139954000Y-100787200D01*
X123139200Y-99720400D02*
X124206000Y-100787200D01*
%TO.N,/IO0*%
X139372100Y-86004400D02*
X137259700Y-86004400D01*
X137259700Y-86004400D02*
X137208900Y-85953600D01*
X137208900Y-85953600D02*
X137208900Y-86662900D01*
X126288800Y-99923600D02*
X125679200Y-99314000D01*
X139750800Y-99923600D02*
X126288800Y-99923600D01*
X140411200Y-99263200D02*
X139750800Y-99923600D01*
X140411200Y-98602800D02*
X140411200Y-99263200D01*
X143510000Y-95504000D02*
X140411200Y-98602800D01*
X144627600Y-95504000D02*
X143510000Y-95504000D01*
X146405600Y-93726000D02*
X144627600Y-95504000D01*
X146405600Y-93218000D02*
X146405600Y-93726000D01*
X144322800Y-91135200D02*
X146405600Y-93218000D01*
X143256000Y-91135200D02*
X144322800Y-91135200D01*
X139700000Y-87579200D02*
X143256000Y-91135200D01*
X138125200Y-87579200D02*
X139700000Y-87579200D01*
X137208900Y-86662900D02*
X138125200Y-87579200D01*
D26*
%TO.N,Net-(R2-Pad2)*%
X134823200Y-90717600D02*
X134823200Y-88341200D01*
X135383900Y-87780500D02*
X135383900Y-85953600D01*
X134823200Y-88341200D02*
X135383900Y-87780500D01*
%TO.N,Net-(R3-Pad2)*%
X135333100Y-83718400D02*
X134467600Y-83718400D01*
X133604000Y-90666800D02*
X133553200Y-90717600D01*
X133604000Y-84582000D02*
X133604000Y-90666800D01*
X134467600Y-83718400D02*
X133604000Y-84582000D01*
D24*
%TO.N,/3V3*%
X131167400Y-68935600D02*
X131419600Y-68935600D01*
X132994800Y-69850400D02*
X132994800Y-70205200D01*
X132994800Y-70205200D02*
X132994800Y-73761600D01*
X131419600Y-68935600D02*
X132994800Y-69850400D01*
X126694800Y-73761600D02*
X132994800Y-73761600D01*
X132994800Y-70205200D02*
X139191600Y-70205200D01*
X139395200Y-72339200D02*
X139446000Y-72390000D01*
X139395200Y-70408800D02*
X139395200Y-72339200D01*
X139191600Y-70205200D02*
X139395200Y-70408800D01*
X139446000Y-72390000D02*
X139446000Y-74930000D01*
D25*
%TO.N,/5VUSB*%
X113182400Y-86565100D02*
X113182400Y-86055200D01*
X114049900Y-85289300D02*
X114049900Y-82448400D01*
X113182400Y-86055200D02*
X114049900Y-85289300D01*
X110668400Y-89733600D02*
X110668400Y-88924800D01*
X111101500Y-88491700D02*
X113182400Y-88390100D01*
X110668400Y-88924800D02*
X111101500Y-88491700D01*
D26*
%TO.N,/UD+*%
X110668400Y-90383600D02*
X114443900Y-90383600D01*
X114443900Y-90383600D02*
X114706400Y-90121100D01*
X131013200Y-90717600D02*
X131013200Y-92049600D01*
X114706400Y-92964000D02*
X114706400Y-91946100D01*
X119278400Y-97536000D02*
X114706400Y-92964000D01*
X122936000Y-97536000D02*
X119278400Y-97536000D01*
X124002800Y-96469200D02*
X122936000Y-97536000D01*
X124002800Y-95046800D02*
X124002800Y-96469200D01*
X125323600Y-93726000D02*
X124002800Y-95046800D01*
X129336800Y-93726000D02*
X125323600Y-93726000D01*
X131013200Y-92049600D02*
X129336800Y-93726000D01*
%TO.N,Net-(C13-Pad2)*%
X132247600Y-97993200D02*
X132247600Y-95703200D01*
X132247600Y-95703200D02*
X132283200Y-95667600D01*
%TD*%
D25*
%TO.N,GND*%
X168589000Y-72297600D02*
X166664836Y-72297600D01*
X166772822Y-72102738D01*
X166678631Y-71822525D01*
X166531583Y-71566072D01*
X166337329Y-71343234D01*
X166103334Y-71162575D01*
X165838590Y-71031037D01*
X165641261Y-70971181D01*
X165407200Y-71101331D01*
X165407200Y-72336800D01*
X165427200Y-72336800D01*
X165427200Y-72544800D01*
X165407200Y-72544800D01*
X165407200Y-74876800D01*
X165427200Y-74876800D01*
X165427200Y-75084800D01*
X165407200Y-75084800D01*
X165407200Y-76320269D01*
X165641261Y-76450419D01*
X165838590Y-76390563D01*
X166103334Y-76259025D01*
X166337329Y-76078366D01*
X166531583Y-75855528D01*
X166678631Y-75599075D01*
X166746355Y-75397600D01*
X168589000Y-75397600D01*
X168589000Y-76815333D01*
X160559000Y-76815333D01*
X160559000Y-92348666D01*
X168589001Y-92348666D01*
X168589001Y-92770000D01*
X166621772Y-92770000D01*
X166621772Y-95310000D01*
X166570972Y-95310000D01*
X166570972Y-98410000D01*
X168589001Y-98410000D01*
X168589001Y-101279000D01*
X163098572Y-101279000D01*
X163098572Y-98612000D01*
X156941429Y-98612000D01*
X156941429Y-101279000D01*
X140455941Y-101279000D01*
X140473296Y-101257853D01*
X141847058Y-99884091D01*
X141873769Y-99862170D01*
X141961245Y-99755581D01*
X142026245Y-99633975D01*
X142066272Y-99502024D01*
X142076400Y-99399190D01*
X142076400Y-99399188D01*
X142079787Y-99364801D01*
X142078527Y-99352000D01*
X145688416Y-99352000D01*
X145701120Y-99480991D01*
X145738746Y-99605024D01*
X145799846Y-99719334D01*
X145882072Y-99819528D01*
X145982266Y-99901754D01*
X146096576Y-99962854D01*
X146220609Y-100000480D01*
X146349600Y-100013184D01*
X147171100Y-100010000D01*
X147335600Y-99845500D01*
X147335600Y-98656000D01*
X147543600Y-98656000D01*
X147543600Y-99845500D01*
X147708100Y-100010000D01*
X148529600Y-100013184D01*
X148658591Y-100000480D01*
X148782624Y-99962854D01*
X148896934Y-99901754D01*
X148997128Y-99819528D01*
X149079354Y-99719334D01*
X149140454Y-99605024D01*
X149178080Y-99480991D01*
X149190784Y-99352000D01*
X149187600Y-98820500D01*
X149023100Y-98656000D01*
X147543600Y-98656000D01*
X147335600Y-98656000D01*
X145856100Y-98656000D01*
X145691600Y-98820500D01*
X145688416Y-99352000D01*
X142078527Y-99352000D01*
X142076400Y-99330414D01*
X142076400Y-99197549D01*
X143521949Y-97752000D01*
X145688416Y-97752000D01*
X145691600Y-98283500D01*
X145856100Y-98448000D01*
X147335600Y-98448000D01*
X147335600Y-97258500D01*
X147543600Y-97258500D01*
X147543600Y-98448000D01*
X149023100Y-98448000D01*
X149187600Y-98283500D01*
X149190784Y-97752000D01*
X149178080Y-97623009D01*
X149140454Y-97498976D01*
X149079354Y-97384666D01*
X148997128Y-97284472D01*
X148896934Y-97202246D01*
X148782624Y-97141146D01*
X148658591Y-97103520D01*
X148529600Y-97090816D01*
X147708100Y-97094000D01*
X147543600Y-97258500D01*
X147335600Y-97258500D01*
X147171100Y-97094000D01*
X146349600Y-97090816D01*
X146220609Y-97103520D01*
X146096576Y-97141146D01*
X145982266Y-97202246D01*
X145882072Y-97284472D01*
X145799846Y-97384666D01*
X145738746Y-97498976D01*
X145701120Y-97623009D01*
X145688416Y-97752000D01*
X143521949Y-97752000D01*
X144155549Y-97118400D01*
X145050413Y-97118400D01*
X145084800Y-97121787D01*
X145119187Y-97118400D01*
X145119190Y-97118400D01*
X145222024Y-97108272D01*
X145353975Y-97068245D01*
X145475581Y-97003245D01*
X145582170Y-96915770D01*
X145604096Y-96889053D01*
X147739863Y-94753287D01*
X147766569Y-94731370D01*
X147788487Y-94704663D01*
X147788492Y-94704658D01*
X147854045Y-94624782D01*
X147919045Y-94503175D01*
X147925213Y-94482842D01*
X147959072Y-94371224D01*
X147969200Y-94268390D01*
X147969200Y-94268388D01*
X147972587Y-94234001D01*
X147969200Y-94199614D01*
X147969200Y-94090800D01*
X151048400Y-94090800D01*
X151048400Y-97190800D01*
X153479769Y-97190800D01*
X153564569Y-97443075D01*
X153711617Y-97699528D01*
X153905871Y-97922366D01*
X154139866Y-98103025D01*
X154404610Y-98234563D01*
X154601939Y-98294419D01*
X154836000Y-98164269D01*
X154836000Y-96928800D01*
X154816000Y-96928800D01*
X154816000Y-96720800D01*
X154836000Y-96720800D01*
X154836000Y-94388800D01*
X154816000Y-94388800D01*
X154816000Y-94180800D01*
X154836000Y-94180800D01*
X154836000Y-92945331D01*
X155044000Y-92945331D01*
X155044000Y-94180800D01*
X155064000Y-94180800D01*
X155064000Y-94388800D01*
X155044000Y-94388800D01*
X155044000Y-96720800D01*
X155064000Y-96720800D01*
X155064000Y-96928800D01*
X155044000Y-96928800D01*
X155044000Y-98164269D01*
X155278061Y-98294419D01*
X155475390Y-98234563D01*
X155740134Y-98103025D01*
X155974129Y-97922366D01*
X156168383Y-97699528D01*
X156266441Y-97528514D01*
X156392549Y-97717248D01*
X156587552Y-97912251D01*
X156816851Y-98065464D01*
X157071635Y-98170999D01*
X157342112Y-98224800D01*
X157617888Y-98224800D01*
X157888365Y-98170999D01*
X158143149Y-98065464D01*
X158372448Y-97912251D01*
X158567451Y-97717248D01*
X158720664Y-97487949D01*
X158750000Y-97417126D01*
X158779336Y-97487949D01*
X158932549Y-97717248D01*
X159127552Y-97912251D01*
X159356851Y-98065464D01*
X159611635Y-98170999D01*
X159882112Y-98224800D01*
X160157888Y-98224800D01*
X160428365Y-98170999D01*
X160683149Y-98065464D01*
X160912448Y-97912251D01*
X161107451Y-97717248D01*
X161260664Y-97487949D01*
X161290000Y-97417126D01*
X161319336Y-97487949D01*
X161472549Y-97717248D01*
X161667552Y-97912251D01*
X161896851Y-98065464D01*
X162151635Y-98170999D01*
X162422112Y-98224800D01*
X162697888Y-98224800D01*
X162968365Y-98170999D01*
X163223149Y-98065464D01*
X163452448Y-97912251D01*
X163647451Y-97717248D01*
X163800664Y-97487949D01*
X163830000Y-97417126D01*
X163859336Y-97487949D01*
X164012549Y-97717248D01*
X164207552Y-97912251D01*
X164436851Y-98065464D01*
X164691635Y-98170999D01*
X164962112Y-98224800D01*
X165237888Y-98224800D01*
X165508365Y-98170999D01*
X165763149Y-98065464D01*
X165992448Y-97912251D01*
X166187451Y-97717248D01*
X166340664Y-97487949D01*
X166446199Y-97233165D01*
X166500000Y-96962688D01*
X166500000Y-96686912D01*
X166446199Y-96416435D01*
X166340664Y-96161651D01*
X166187451Y-95932352D01*
X165992448Y-95737349D01*
X165917785Y-95687461D01*
X165950000Y-95687461D01*
X166057819Y-95676842D01*
X166161494Y-95645392D01*
X166257042Y-95594321D01*
X166340790Y-95525590D01*
X166409521Y-95441842D01*
X166460592Y-95346294D01*
X166492042Y-95242619D01*
X166502661Y-95134800D01*
X166502661Y-93434800D01*
X166492042Y-93326981D01*
X166460592Y-93223306D01*
X166409521Y-93127758D01*
X166340790Y-93044010D01*
X166257042Y-92975279D01*
X166161494Y-92924208D01*
X166057819Y-92892758D01*
X165950000Y-92882139D01*
X164250000Y-92882139D01*
X164142181Y-92892758D01*
X164038506Y-92924208D01*
X163942958Y-92975279D01*
X163859210Y-93044010D01*
X163790479Y-93127758D01*
X163739408Y-93223306D01*
X163707958Y-93326981D01*
X163697339Y-93434800D01*
X163697339Y-93467015D01*
X163647451Y-93392352D01*
X163452448Y-93197349D01*
X163223149Y-93044136D01*
X162968365Y-92938601D01*
X162697888Y-92884800D01*
X162422112Y-92884800D01*
X162151635Y-92938601D01*
X161896851Y-93044136D01*
X161667552Y-93197349D01*
X161472549Y-93392352D01*
X161319336Y-93621651D01*
X161290000Y-93692474D01*
X161260664Y-93621651D01*
X161107451Y-93392352D01*
X160912448Y-93197349D01*
X160683149Y-93044136D01*
X160428365Y-92938601D01*
X160157888Y-92884800D01*
X159882112Y-92884800D01*
X159611635Y-92938601D01*
X159356851Y-93044136D01*
X159127552Y-93197349D01*
X158932549Y-93392352D01*
X158779336Y-93621651D01*
X158750000Y-93692474D01*
X158720664Y-93621651D01*
X158567451Y-93392352D01*
X158372448Y-93197349D01*
X158143149Y-93044136D01*
X157888365Y-92938601D01*
X157617888Y-92884800D01*
X157342112Y-92884800D01*
X157071635Y-92938601D01*
X156816851Y-93044136D01*
X156587552Y-93197349D01*
X156392549Y-93392352D01*
X156266441Y-93581086D01*
X156168383Y-93410072D01*
X155974129Y-93187234D01*
X155740134Y-93006575D01*
X155475390Y-92875037D01*
X155278061Y-92815181D01*
X155044000Y-92945331D01*
X154836000Y-92945331D01*
X154601939Y-92815181D01*
X154404610Y-92875037D01*
X154139866Y-93006575D01*
X153905871Y-93187234D01*
X153711617Y-93410072D01*
X153564569Y-93666525D01*
X153470378Y-93946738D01*
X153600086Y-94180798D01*
X153548400Y-94180798D01*
X153548400Y-94090800D01*
X151048400Y-94090800D01*
X147969200Y-94090800D01*
X147969200Y-93099986D01*
X147972587Y-93065599D01*
X147969200Y-93031210D01*
X147959072Y-92928376D01*
X147919045Y-92796425D01*
X147854045Y-92674819D01*
X147766570Y-92568230D01*
X147739853Y-92546304D01*
X147223410Y-92029861D01*
X148220800Y-92029861D01*
X148328619Y-92019242D01*
X148432294Y-91987792D01*
X148527842Y-91936721D01*
X148611590Y-91867990D01*
X148680321Y-91784242D01*
X148731392Y-91688694D01*
X148762842Y-91585019D01*
X148773461Y-91477200D01*
X148773461Y-91444985D01*
X148823349Y-91519648D01*
X149018352Y-91714651D01*
X149247651Y-91867864D01*
X149502435Y-91973399D01*
X149772912Y-92027200D01*
X150048688Y-92027200D01*
X150319165Y-91973399D01*
X150573949Y-91867864D01*
X150803248Y-91714651D01*
X150998251Y-91519648D01*
X151151464Y-91290349D01*
X151256999Y-91035565D01*
X151310800Y-90765088D01*
X151310800Y-90489312D01*
X151266381Y-90266000D01*
X153040000Y-90266000D01*
X153040000Y-85476000D01*
X160323467Y-85476000D01*
X160323467Y-79276000D01*
X151690134Y-79276000D01*
X151690134Y-85166000D01*
X150991328Y-85166000D01*
X151138225Y-84975734D01*
X151269763Y-84710990D01*
X151329619Y-84513661D01*
X151199469Y-84279600D01*
X149964000Y-84279600D01*
X149964000Y-84299600D01*
X149756000Y-84299600D01*
X149756000Y-84279600D01*
X149736000Y-84279600D01*
X149736000Y-84071600D01*
X149756000Y-84071600D01*
X149756000Y-84051600D01*
X149964000Y-84051600D01*
X149964000Y-84071600D01*
X151199469Y-84071600D01*
X151329619Y-83837539D01*
X151269763Y-83640210D01*
X151138225Y-83375466D01*
X150957566Y-83141471D01*
X150734728Y-82947217D01*
X150563714Y-82849159D01*
X150752448Y-82723051D01*
X150947451Y-82528048D01*
X151100664Y-82298749D01*
X151206199Y-82043965D01*
X151260000Y-81773488D01*
X151260000Y-81497712D01*
X151206199Y-81227235D01*
X151100664Y-80972451D01*
X150947451Y-80743152D01*
X150752448Y-80548149D01*
X150523149Y-80394936D01*
X150452326Y-80365600D01*
X150523149Y-80336264D01*
X150752448Y-80183051D01*
X150947451Y-79988048D01*
X151100664Y-79758749D01*
X151206199Y-79503965D01*
X151260000Y-79233488D01*
X151260000Y-78957712D01*
X151206199Y-78687235D01*
X151100664Y-78432451D01*
X150947451Y-78203152D01*
X150752448Y-78008149D01*
X150661859Y-77947619D01*
X150663870Y-77927200D01*
X150660000Y-77887907D01*
X150648424Y-77770373D01*
X150602679Y-77619572D01*
X150564008Y-77547224D01*
X150528393Y-77480593D01*
X150453470Y-77389299D01*
X150453469Y-77389298D01*
X150428422Y-77358778D01*
X150397902Y-77333731D01*
X149793073Y-76728903D01*
X149768022Y-76698378D01*
X149737498Y-76673328D01*
X149640673Y-76576503D01*
X149615622Y-76545978D01*
X149493806Y-76446007D01*
X149354828Y-76371721D01*
X149204027Y-76325976D01*
X149086493Y-76314400D01*
X149086491Y-76314400D01*
X149047200Y-76310530D01*
X149007909Y-76314400D01*
X144209691Y-76314400D01*
X144170400Y-76310530D01*
X144131109Y-76314400D01*
X142572438Y-76314400D01*
X142786134Y-76208225D01*
X143020129Y-76027566D01*
X143214383Y-75804728D01*
X143361431Y-75548275D01*
X143455622Y-75268062D01*
X143325913Y-75034000D01*
X142090000Y-75034000D01*
X142090000Y-75054000D01*
X141882000Y-75054000D01*
X141882000Y-75034000D01*
X141862000Y-75034000D01*
X141862000Y-74826000D01*
X141882000Y-74826000D01*
X141882000Y-72494000D01*
X142090000Y-72494000D01*
X142090000Y-74826000D01*
X143325913Y-74826000D01*
X143455622Y-74591938D01*
X143361431Y-74311725D01*
X143214383Y-74055272D01*
X143020129Y-73832434D01*
X142796787Y-73660000D01*
X143020129Y-73487566D01*
X143214383Y-73264728D01*
X143361431Y-73008275D01*
X143455622Y-72728062D01*
X143325913Y-72494000D01*
X142090000Y-72494000D01*
X141882000Y-72494000D01*
X141862000Y-72494000D01*
X141862000Y-72286000D01*
X141882000Y-72286000D01*
X141882000Y-71050531D01*
X142090000Y-71050531D01*
X142090000Y-72286000D01*
X143325913Y-72286000D01*
X143455622Y-72051938D01*
X143361431Y-71771725D01*
X143214383Y-71515272D01*
X143020129Y-71292434D01*
X142786134Y-71111775D01*
X142521390Y-70980237D01*
X142342586Y-70926000D01*
X151330972Y-70926000D01*
X151330972Y-74026000D01*
X151381772Y-74026000D01*
X151381772Y-76566000D01*
X153824629Y-76566000D01*
X153824629Y-76120910D01*
X153833679Y-76137842D01*
X153902410Y-76221590D01*
X153986158Y-76290321D01*
X154081706Y-76341392D01*
X154185381Y-76372842D01*
X154293200Y-76383461D01*
X155993200Y-76383461D01*
X156101019Y-76372842D01*
X156204694Y-76341392D01*
X156300242Y-76290321D01*
X156383990Y-76221590D01*
X156452721Y-76137842D01*
X156503792Y-76042294D01*
X156535242Y-75938619D01*
X156545861Y-75830800D01*
X156545861Y-75798585D01*
X156595749Y-75873248D01*
X156790752Y-76068251D01*
X157020051Y-76221464D01*
X157274835Y-76326999D01*
X157545312Y-76380800D01*
X157821088Y-76380800D01*
X158091565Y-76326999D01*
X158346349Y-76221464D01*
X158575648Y-76068251D01*
X158770651Y-75873248D01*
X158923864Y-75643949D01*
X158953200Y-75573126D01*
X158982536Y-75643949D01*
X159135749Y-75873248D01*
X159330752Y-76068251D01*
X159560051Y-76221464D01*
X159814835Y-76326999D01*
X160085312Y-76380800D01*
X160361088Y-76380800D01*
X160631565Y-76326999D01*
X160886349Y-76221464D01*
X161115648Y-76068251D01*
X161310651Y-75873248D01*
X161463864Y-75643949D01*
X161493200Y-75573126D01*
X161522536Y-75643949D01*
X161675749Y-75873248D01*
X161870752Y-76068251D01*
X162100051Y-76221464D01*
X162354835Y-76326999D01*
X162625312Y-76380800D01*
X162901088Y-76380800D01*
X163171565Y-76326999D01*
X163426349Y-76221464D01*
X163655648Y-76068251D01*
X163850651Y-75873248D01*
X163976759Y-75684514D01*
X164074817Y-75855528D01*
X164269071Y-76078366D01*
X164503066Y-76259025D01*
X164767810Y-76390563D01*
X164965139Y-76450419D01*
X165199200Y-76320269D01*
X165199200Y-75084800D01*
X165179200Y-75084800D01*
X165179200Y-74876800D01*
X165199200Y-74876800D01*
X165199200Y-72544800D01*
X165179200Y-72544800D01*
X165179200Y-72336800D01*
X165199200Y-72336800D01*
X165199200Y-71101331D01*
X164965139Y-70971181D01*
X164767810Y-71031037D01*
X164503066Y-71162575D01*
X164269071Y-71343234D01*
X164074817Y-71566072D01*
X163976759Y-71737086D01*
X163850651Y-71548352D01*
X163655648Y-71353349D01*
X163426349Y-71200136D01*
X163171565Y-71094601D01*
X162901088Y-71040800D01*
X162625312Y-71040800D01*
X162354835Y-71094601D01*
X162100051Y-71200136D01*
X161870752Y-71353349D01*
X161675749Y-71548352D01*
X161522536Y-71777651D01*
X161493200Y-71848474D01*
X161463864Y-71777651D01*
X161310651Y-71548352D01*
X161115648Y-71353349D01*
X160886349Y-71200136D01*
X160631565Y-71094601D01*
X160361088Y-71040800D01*
X160085312Y-71040800D01*
X159814835Y-71094601D01*
X159560051Y-71200136D01*
X159330752Y-71353349D01*
X159135749Y-71548352D01*
X158982536Y-71777651D01*
X158953200Y-71848474D01*
X158923864Y-71777651D01*
X158770651Y-71548352D01*
X158575648Y-71353349D01*
X158346349Y-71200136D01*
X158091565Y-71094601D01*
X157821088Y-71040800D01*
X157545312Y-71040800D01*
X157274835Y-71094601D01*
X157020051Y-71200136D01*
X156790752Y-71353349D01*
X156595749Y-71548352D01*
X156442536Y-71777651D01*
X156413200Y-71848474D01*
X156383864Y-71777651D01*
X156230651Y-71548352D01*
X156035648Y-71353349D01*
X155806349Y-71200136D01*
X155551565Y-71094601D01*
X155281088Y-71040800D01*
X155005312Y-71040800D01*
X154734835Y-71094601D01*
X154480051Y-71200136D01*
X154250752Y-71353349D01*
X154055749Y-71548352D01*
X153902536Y-71777651D01*
X153797001Y-72032435D01*
X153773829Y-72148929D01*
X153773829Y-70926000D01*
X151330972Y-70926000D01*
X142342586Y-70926000D01*
X142324061Y-70920381D01*
X142090000Y-71050531D01*
X141882000Y-71050531D01*
X141647939Y-70920381D01*
X141450610Y-70980237D01*
X141185866Y-71111775D01*
X140951871Y-71292434D01*
X140757617Y-71515272D01*
X140659559Y-71686286D01*
X140533451Y-71497552D01*
X140338448Y-71302549D01*
X140195200Y-71206834D01*
X140195200Y-70448091D01*
X140199070Y-70408800D01*
X140188662Y-70303128D01*
X140183624Y-70251973D01*
X140137879Y-70101172D01*
X140063593Y-69962194D01*
X140063434Y-69962000D01*
X143864286Y-69962000D01*
X143864286Y-67624000D01*
X157363715Y-67624000D01*
X157363715Y-70724000D01*
X163692286Y-70724000D01*
X163692286Y-67624000D01*
X157363715Y-67624000D01*
X143864286Y-67624000D01*
X143864286Y-66869000D01*
X168589000Y-66869000D01*
X168589000Y-72297600D01*
%TA.AperFunction,Conductor*%
D27*
G36*
X168589000Y-72297600D02*
G01*
X166664836Y-72297600D01*
X166772822Y-72102738D01*
X166678631Y-71822525D01*
X166531583Y-71566072D01*
X166337329Y-71343234D01*
X166103334Y-71162575D01*
X165838590Y-71031037D01*
X165641261Y-70971181D01*
X165407200Y-71101331D01*
X165407200Y-72336800D01*
X165427200Y-72336800D01*
X165427200Y-72544800D01*
X165407200Y-72544800D01*
X165407200Y-74876800D01*
X165427200Y-74876800D01*
X165427200Y-75084800D01*
X165407200Y-75084800D01*
X165407200Y-76320269D01*
X165641261Y-76450419D01*
X165838590Y-76390563D01*
X166103334Y-76259025D01*
X166337329Y-76078366D01*
X166531583Y-75855528D01*
X166678631Y-75599075D01*
X166746355Y-75397600D01*
X168589000Y-75397600D01*
X168589000Y-76815333D01*
X160559000Y-76815333D01*
X160559000Y-92348666D01*
X168589001Y-92348666D01*
X168589001Y-92770000D01*
X166621772Y-92770000D01*
X166621772Y-95310000D01*
X166570972Y-95310000D01*
X166570972Y-98410000D01*
X168589001Y-98410000D01*
X168589001Y-101279000D01*
X163098572Y-101279000D01*
X163098572Y-98612000D01*
X156941429Y-98612000D01*
X156941429Y-101279000D01*
X140455941Y-101279000D01*
X140473296Y-101257853D01*
X141847058Y-99884091D01*
X141873769Y-99862170D01*
X141961245Y-99755581D01*
X142026245Y-99633975D01*
X142066272Y-99502024D01*
X142076400Y-99399190D01*
X142076400Y-99399188D01*
X142079787Y-99364801D01*
X142078527Y-99352000D01*
X145688416Y-99352000D01*
X145701120Y-99480991D01*
X145738746Y-99605024D01*
X145799846Y-99719334D01*
X145882072Y-99819528D01*
X145982266Y-99901754D01*
X146096576Y-99962854D01*
X146220609Y-100000480D01*
X146349600Y-100013184D01*
X147171100Y-100010000D01*
X147335600Y-99845500D01*
X147335600Y-98656000D01*
X147543600Y-98656000D01*
X147543600Y-99845500D01*
X147708100Y-100010000D01*
X148529600Y-100013184D01*
X148658591Y-100000480D01*
X148782624Y-99962854D01*
X148896934Y-99901754D01*
X148997128Y-99819528D01*
X149079354Y-99719334D01*
X149140454Y-99605024D01*
X149178080Y-99480991D01*
X149190784Y-99352000D01*
X149187600Y-98820500D01*
X149023100Y-98656000D01*
X147543600Y-98656000D01*
X147335600Y-98656000D01*
X145856100Y-98656000D01*
X145691600Y-98820500D01*
X145688416Y-99352000D01*
X142078527Y-99352000D01*
X142076400Y-99330414D01*
X142076400Y-99197549D01*
X143521949Y-97752000D01*
X145688416Y-97752000D01*
X145691600Y-98283500D01*
X145856100Y-98448000D01*
X147335600Y-98448000D01*
X147335600Y-97258500D01*
X147543600Y-97258500D01*
X147543600Y-98448000D01*
X149023100Y-98448000D01*
X149187600Y-98283500D01*
X149190784Y-97752000D01*
X149178080Y-97623009D01*
X149140454Y-97498976D01*
X149079354Y-97384666D01*
X148997128Y-97284472D01*
X148896934Y-97202246D01*
X148782624Y-97141146D01*
X148658591Y-97103520D01*
X148529600Y-97090816D01*
X147708100Y-97094000D01*
X147543600Y-97258500D01*
X147335600Y-97258500D01*
X147171100Y-97094000D01*
X146349600Y-97090816D01*
X146220609Y-97103520D01*
X146096576Y-97141146D01*
X145982266Y-97202246D01*
X145882072Y-97284472D01*
X145799846Y-97384666D01*
X145738746Y-97498976D01*
X145701120Y-97623009D01*
X145688416Y-97752000D01*
X143521949Y-97752000D01*
X144155549Y-97118400D01*
X145050413Y-97118400D01*
X145084800Y-97121787D01*
X145119187Y-97118400D01*
X145119190Y-97118400D01*
X145222024Y-97108272D01*
X145353975Y-97068245D01*
X145475581Y-97003245D01*
X145582170Y-96915770D01*
X145604096Y-96889053D01*
X147739863Y-94753287D01*
X147766569Y-94731370D01*
X147788487Y-94704663D01*
X147788492Y-94704658D01*
X147854045Y-94624782D01*
X147919045Y-94503175D01*
X147925213Y-94482842D01*
X147959072Y-94371224D01*
X147969200Y-94268390D01*
X147969200Y-94268388D01*
X147972587Y-94234001D01*
X147969200Y-94199614D01*
X147969200Y-94090800D01*
X151048400Y-94090800D01*
X151048400Y-97190800D01*
X153479769Y-97190800D01*
X153564569Y-97443075D01*
X153711617Y-97699528D01*
X153905871Y-97922366D01*
X154139866Y-98103025D01*
X154404610Y-98234563D01*
X154601939Y-98294419D01*
X154836000Y-98164269D01*
X154836000Y-96928800D01*
X154816000Y-96928800D01*
X154816000Y-96720800D01*
X154836000Y-96720800D01*
X154836000Y-94388800D01*
X154816000Y-94388800D01*
X154816000Y-94180800D01*
X154836000Y-94180800D01*
X154836000Y-92945331D01*
X155044000Y-92945331D01*
X155044000Y-94180800D01*
X155064000Y-94180800D01*
X155064000Y-94388800D01*
X155044000Y-94388800D01*
X155044000Y-96720800D01*
X155064000Y-96720800D01*
X155064000Y-96928800D01*
X155044000Y-96928800D01*
X155044000Y-98164269D01*
X155278061Y-98294419D01*
X155475390Y-98234563D01*
X155740134Y-98103025D01*
X155974129Y-97922366D01*
X156168383Y-97699528D01*
X156266441Y-97528514D01*
X156392549Y-97717248D01*
X156587552Y-97912251D01*
X156816851Y-98065464D01*
X157071635Y-98170999D01*
X157342112Y-98224800D01*
X157617888Y-98224800D01*
X157888365Y-98170999D01*
X158143149Y-98065464D01*
X158372448Y-97912251D01*
X158567451Y-97717248D01*
X158720664Y-97487949D01*
X158750000Y-97417126D01*
X158779336Y-97487949D01*
X158932549Y-97717248D01*
X159127552Y-97912251D01*
X159356851Y-98065464D01*
X159611635Y-98170999D01*
X159882112Y-98224800D01*
X160157888Y-98224800D01*
X160428365Y-98170999D01*
X160683149Y-98065464D01*
X160912448Y-97912251D01*
X161107451Y-97717248D01*
X161260664Y-97487949D01*
X161290000Y-97417126D01*
X161319336Y-97487949D01*
X161472549Y-97717248D01*
X161667552Y-97912251D01*
X161896851Y-98065464D01*
X162151635Y-98170999D01*
X162422112Y-98224800D01*
X162697888Y-98224800D01*
X162968365Y-98170999D01*
X163223149Y-98065464D01*
X163452448Y-97912251D01*
X163647451Y-97717248D01*
X163800664Y-97487949D01*
X163830000Y-97417126D01*
X163859336Y-97487949D01*
X164012549Y-97717248D01*
X164207552Y-97912251D01*
X164436851Y-98065464D01*
X164691635Y-98170999D01*
X164962112Y-98224800D01*
X165237888Y-98224800D01*
X165508365Y-98170999D01*
X165763149Y-98065464D01*
X165992448Y-97912251D01*
X166187451Y-97717248D01*
X166340664Y-97487949D01*
X166446199Y-97233165D01*
X166500000Y-96962688D01*
X166500000Y-96686912D01*
X166446199Y-96416435D01*
X166340664Y-96161651D01*
X166187451Y-95932352D01*
X165992448Y-95737349D01*
X165917785Y-95687461D01*
X165950000Y-95687461D01*
X166057819Y-95676842D01*
X166161494Y-95645392D01*
X166257042Y-95594321D01*
X166340790Y-95525590D01*
X166409521Y-95441842D01*
X166460592Y-95346294D01*
X166492042Y-95242619D01*
X166502661Y-95134800D01*
X166502661Y-93434800D01*
X166492042Y-93326981D01*
X166460592Y-93223306D01*
X166409521Y-93127758D01*
X166340790Y-93044010D01*
X166257042Y-92975279D01*
X166161494Y-92924208D01*
X166057819Y-92892758D01*
X165950000Y-92882139D01*
X164250000Y-92882139D01*
X164142181Y-92892758D01*
X164038506Y-92924208D01*
X163942958Y-92975279D01*
X163859210Y-93044010D01*
X163790479Y-93127758D01*
X163739408Y-93223306D01*
X163707958Y-93326981D01*
X163697339Y-93434800D01*
X163697339Y-93467015D01*
X163647451Y-93392352D01*
X163452448Y-93197349D01*
X163223149Y-93044136D01*
X162968365Y-92938601D01*
X162697888Y-92884800D01*
X162422112Y-92884800D01*
X162151635Y-92938601D01*
X161896851Y-93044136D01*
X161667552Y-93197349D01*
X161472549Y-93392352D01*
X161319336Y-93621651D01*
X161290000Y-93692474D01*
X161260664Y-93621651D01*
X161107451Y-93392352D01*
X160912448Y-93197349D01*
X160683149Y-93044136D01*
X160428365Y-92938601D01*
X160157888Y-92884800D01*
X159882112Y-92884800D01*
X159611635Y-92938601D01*
X159356851Y-93044136D01*
X159127552Y-93197349D01*
X158932549Y-93392352D01*
X158779336Y-93621651D01*
X158750000Y-93692474D01*
X158720664Y-93621651D01*
X158567451Y-93392352D01*
X158372448Y-93197349D01*
X158143149Y-93044136D01*
X157888365Y-92938601D01*
X157617888Y-92884800D01*
X157342112Y-92884800D01*
X157071635Y-92938601D01*
X156816851Y-93044136D01*
X156587552Y-93197349D01*
X156392549Y-93392352D01*
X156266441Y-93581086D01*
X156168383Y-93410072D01*
X155974129Y-93187234D01*
X155740134Y-93006575D01*
X155475390Y-92875037D01*
X155278061Y-92815181D01*
X155044000Y-92945331D01*
X154836000Y-92945331D01*
X154601939Y-92815181D01*
X154404610Y-92875037D01*
X154139866Y-93006575D01*
X153905871Y-93187234D01*
X153711617Y-93410072D01*
X153564569Y-93666525D01*
X153470378Y-93946738D01*
X153600086Y-94180798D01*
X153548400Y-94180798D01*
X153548400Y-94090800D01*
X151048400Y-94090800D01*
X147969200Y-94090800D01*
X147969200Y-93099986D01*
X147972587Y-93065599D01*
X147969200Y-93031210D01*
X147959072Y-92928376D01*
X147919045Y-92796425D01*
X147854045Y-92674819D01*
X147766570Y-92568230D01*
X147739853Y-92546304D01*
X147223410Y-92029861D01*
X148220800Y-92029861D01*
X148328619Y-92019242D01*
X148432294Y-91987792D01*
X148527842Y-91936721D01*
X148611590Y-91867990D01*
X148680321Y-91784242D01*
X148731392Y-91688694D01*
X148762842Y-91585019D01*
X148773461Y-91477200D01*
X148773461Y-91444985D01*
X148823349Y-91519648D01*
X149018352Y-91714651D01*
X149247651Y-91867864D01*
X149502435Y-91973399D01*
X149772912Y-92027200D01*
X150048688Y-92027200D01*
X150319165Y-91973399D01*
X150573949Y-91867864D01*
X150803248Y-91714651D01*
X150998251Y-91519648D01*
X151151464Y-91290349D01*
X151256999Y-91035565D01*
X151310800Y-90765088D01*
X151310800Y-90489312D01*
X151266381Y-90266000D01*
X153040000Y-90266000D01*
X153040000Y-85476000D01*
X160323467Y-85476000D01*
X160323467Y-79276000D01*
X151690134Y-79276000D01*
X151690134Y-85166000D01*
X150991328Y-85166000D01*
X151138225Y-84975734D01*
X151269763Y-84710990D01*
X151329619Y-84513661D01*
X151199469Y-84279600D01*
X149964000Y-84279600D01*
X149964000Y-84299600D01*
X149756000Y-84299600D01*
X149756000Y-84279600D01*
X149736000Y-84279600D01*
X149736000Y-84071600D01*
X149756000Y-84071600D01*
X149756000Y-84051600D01*
X149964000Y-84051600D01*
X149964000Y-84071600D01*
X151199469Y-84071600D01*
X151329619Y-83837539D01*
X151269763Y-83640210D01*
X151138225Y-83375466D01*
X150957566Y-83141471D01*
X150734728Y-82947217D01*
X150563714Y-82849159D01*
X150752448Y-82723051D01*
X150947451Y-82528048D01*
X151100664Y-82298749D01*
X151206199Y-82043965D01*
X151260000Y-81773488D01*
X151260000Y-81497712D01*
X151206199Y-81227235D01*
X151100664Y-80972451D01*
X150947451Y-80743152D01*
X150752448Y-80548149D01*
X150523149Y-80394936D01*
X150452326Y-80365600D01*
X150523149Y-80336264D01*
X150752448Y-80183051D01*
X150947451Y-79988048D01*
X151100664Y-79758749D01*
X151206199Y-79503965D01*
X151260000Y-79233488D01*
X151260000Y-78957712D01*
X151206199Y-78687235D01*
X151100664Y-78432451D01*
X150947451Y-78203152D01*
X150752448Y-78008149D01*
X150661859Y-77947619D01*
X150663870Y-77927200D01*
X150660000Y-77887907D01*
X150648424Y-77770373D01*
X150602679Y-77619572D01*
X150564008Y-77547224D01*
X150528393Y-77480593D01*
X150453470Y-77389299D01*
X150453469Y-77389298D01*
X150428422Y-77358778D01*
X150397902Y-77333731D01*
X149793073Y-76728903D01*
X149768022Y-76698378D01*
X149737498Y-76673328D01*
X149640673Y-76576503D01*
X149615622Y-76545978D01*
X149493806Y-76446007D01*
X149354828Y-76371721D01*
X149204027Y-76325976D01*
X149086493Y-76314400D01*
X149086491Y-76314400D01*
X149047200Y-76310530D01*
X149007909Y-76314400D01*
X144209691Y-76314400D01*
X144170400Y-76310530D01*
X144131109Y-76314400D01*
X142572438Y-76314400D01*
X142786134Y-76208225D01*
X143020129Y-76027566D01*
X143214383Y-75804728D01*
X143361431Y-75548275D01*
X143455622Y-75268062D01*
X143325913Y-75034000D01*
X142090000Y-75034000D01*
X142090000Y-75054000D01*
X141882000Y-75054000D01*
X141882000Y-75034000D01*
X141862000Y-75034000D01*
X141862000Y-74826000D01*
X141882000Y-74826000D01*
X141882000Y-72494000D01*
X142090000Y-72494000D01*
X142090000Y-74826000D01*
X143325913Y-74826000D01*
X143455622Y-74591938D01*
X143361431Y-74311725D01*
X143214383Y-74055272D01*
X143020129Y-73832434D01*
X142796787Y-73660000D01*
X143020129Y-73487566D01*
X143214383Y-73264728D01*
X143361431Y-73008275D01*
X143455622Y-72728062D01*
X143325913Y-72494000D01*
X142090000Y-72494000D01*
X141882000Y-72494000D01*
X141862000Y-72494000D01*
X141862000Y-72286000D01*
X141882000Y-72286000D01*
X141882000Y-71050531D01*
X142090000Y-71050531D01*
X142090000Y-72286000D01*
X143325913Y-72286000D01*
X143455622Y-72051938D01*
X143361431Y-71771725D01*
X143214383Y-71515272D01*
X143020129Y-71292434D01*
X142786134Y-71111775D01*
X142521390Y-70980237D01*
X142342586Y-70926000D01*
X151330972Y-70926000D01*
X151330972Y-74026000D01*
X151381772Y-74026000D01*
X151381772Y-76566000D01*
X153824629Y-76566000D01*
X153824629Y-76120910D01*
X153833679Y-76137842D01*
X153902410Y-76221590D01*
X153986158Y-76290321D01*
X154081706Y-76341392D01*
X154185381Y-76372842D01*
X154293200Y-76383461D01*
X155993200Y-76383461D01*
X156101019Y-76372842D01*
X156204694Y-76341392D01*
X156300242Y-76290321D01*
X156383990Y-76221590D01*
X156452721Y-76137842D01*
X156503792Y-76042294D01*
X156535242Y-75938619D01*
X156545861Y-75830800D01*
X156545861Y-75798585D01*
X156595749Y-75873248D01*
X156790752Y-76068251D01*
X157020051Y-76221464D01*
X157274835Y-76326999D01*
X157545312Y-76380800D01*
X157821088Y-76380800D01*
X158091565Y-76326999D01*
X158346349Y-76221464D01*
X158575648Y-76068251D01*
X158770651Y-75873248D01*
X158923864Y-75643949D01*
X158953200Y-75573126D01*
X158982536Y-75643949D01*
X159135749Y-75873248D01*
X159330752Y-76068251D01*
X159560051Y-76221464D01*
X159814835Y-76326999D01*
X160085312Y-76380800D01*
X160361088Y-76380800D01*
X160631565Y-76326999D01*
X160886349Y-76221464D01*
X161115648Y-76068251D01*
X161310651Y-75873248D01*
X161463864Y-75643949D01*
X161493200Y-75573126D01*
X161522536Y-75643949D01*
X161675749Y-75873248D01*
X161870752Y-76068251D01*
X162100051Y-76221464D01*
X162354835Y-76326999D01*
X162625312Y-76380800D01*
X162901088Y-76380800D01*
X163171565Y-76326999D01*
X163426349Y-76221464D01*
X163655648Y-76068251D01*
X163850651Y-75873248D01*
X163976759Y-75684514D01*
X164074817Y-75855528D01*
X164269071Y-76078366D01*
X164503066Y-76259025D01*
X164767810Y-76390563D01*
X164965139Y-76450419D01*
X165199200Y-76320269D01*
X165199200Y-75084800D01*
X165179200Y-75084800D01*
X165179200Y-74876800D01*
X165199200Y-74876800D01*
X165199200Y-72544800D01*
X165179200Y-72544800D01*
X165179200Y-72336800D01*
X165199200Y-72336800D01*
X165199200Y-71101331D01*
X164965139Y-70971181D01*
X164767810Y-71031037D01*
X164503066Y-71162575D01*
X164269071Y-71343234D01*
X164074817Y-71566072D01*
X163976759Y-71737086D01*
X163850651Y-71548352D01*
X163655648Y-71353349D01*
X163426349Y-71200136D01*
X163171565Y-71094601D01*
X162901088Y-71040800D01*
X162625312Y-71040800D01*
X162354835Y-71094601D01*
X162100051Y-71200136D01*
X161870752Y-71353349D01*
X161675749Y-71548352D01*
X161522536Y-71777651D01*
X161493200Y-71848474D01*
X161463864Y-71777651D01*
X161310651Y-71548352D01*
X161115648Y-71353349D01*
X160886349Y-71200136D01*
X160631565Y-71094601D01*
X160361088Y-71040800D01*
X160085312Y-71040800D01*
X159814835Y-71094601D01*
X159560051Y-71200136D01*
X159330752Y-71353349D01*
X159135749Y-71548352D01*
X158982536Y-71777651D01*
X158953200Y-71848474D01*
X158923864Y-71777651D01*
X158770651Y-71548352D01*
X158575648Y-71353349D01*
X158346349Y-71200136D01*
X158091565Y-71094601D01*
X157821088Y-71040800D01*
X157545312Y-71040800D01*
X157274835Y-71094601D01*
X157020051Y-71200136D01*
X156790752Y-71353349D01*
X156595749Y-71548352D01*
X156442536Y-71777651D01*
X156413200Y-71848474D01*
X156383864Y-71777651D01*
X156230651Y-71548352D01*
X156035648Y-71353349D01*
X155806349Y-71200136D01*
X155551565Y-71094601D01*
X155281088Y-71040800D01*
X155005312Y-71040800D01*
X154734835Y-71094601D01*
X154480051Y-71200136D01*
X154250752Y-71353349D01*
X154055749Y-71548352D01*
X153902536Y-71777651D01*
X153797001Y-72032435D01*
X153773829Y-72148929D01*
X153773829Y-70926000D01*
X151330972Y-70926000D01*
X142342586Y-70926000D01*
X142324061Y-70920381D01*
X142090000Y-71050531D01*
X141882000Y-71050531D01*
X141647939Y-70920381D01*
X141450610Y-70980237D01*
X141185866Y-71111775D01*
X140951871Y-71292434D01*
X140757617Y-71515272D01*
X140659559Y-71686286D01*
X140533451Y-71497552D01*
X140338448Y-71302549D01*
X140195200Y-71206834D01*
X140195200Y-70448091D01*
X140199070Y-70408800D01*
X140188662Y-70303128D01*
X140183624Y-70251973D01*
X140137879Y-70101172D01*
X140063593Y-69962194D01*
X140063434Y-69962000D01*
X143864286Y-69962000D01*
X143864286Y-67624000D01*
X157363715Y-67624000D01*
X157363715Y-70724000D01*
X163692286Y-70724000D01*
X163692286Y-67624000D01*
X157363715Y-67624000D01*
X143864286Y-67624000D01*
X143864286Y-66869000D01*
X168589000Y-66869000D01*
X168589000Y-72297600D01*
G37*
%TD.AperFunction*%
D25*
X113453739Y-92208601D02*
X113469162Y-92365192D01*
X113514838Y-92515766D01*
X113589012Y-92654535D01*
X113688833Y-92776167D01*
X113810465Y-92875988D01*
X113949234Y-92950162D01*
X114029160Y-92974407D01*
X114031400Y-92997152D01*
X114031400Y-92997158D01*
X114036015Y-93044010D01*
X114041167Y-93096323D01*
X114047178Y-93116139D01*
X114079764Y-93223560D01*
X114139209Y-93334774D01*
X114142443Y-93340824D01*
X114205656Y-93417850D01*
X114205663Y-93417857D01*
X114226794Y-93443605D01*
X114252544Y-93464738D01*
X118777658Y-97989852D01*
X118798794Y-98015606D01*
X118901576Y-98099958D01*
X119018839Y-98162636D01*
X119086848Y-98183266D01*
X119146075Y-98201233D01*
X119171107Y-98203698D01*
X119245241Y-98211000D01*
X119245247Y-98211000D01*
X119278399Y-98214265D01*
X119311551Y-98211000D01*
X119730023Y-98211000D01*
X119706752Y-98226549D01*
X119511749Y-98421552D01*
X119358536Y-98650851D01*
X119329200Y-98721674D01*
X119299864Y-98650851D01*
X119146651Y-98421552D01*
X118951648Y-98226549D01*
X118722349Y-98073336D01*
X118467565Y-97967801D01*
X118197088Y-97914000D01*
X117921312Y-97914000D01*
X117650835Y-97967801D01*
X117396051Y-98073336D01*
X117166752Y-98226549D01*
X116971749Y-98421552D01*
X116818536Y-98650851D01*
X116789200Y-98721674D01*
X116759864Y-98650851D01*
X116606651Y-98421552D01*
X116411648Y-98226549D01*
X116182349Y-98073336D01*
X115927565Y-97967801D01*
X115657088Y-97914000D01*
X115381312Y-97914000D01*
X115110835Y-97967801D01*
X114856051Y-98073336D01*
X114626752Y-98226549D01*
X114431749Y-98421552D01*
X114278536Y-98650851D01*
X114173001Y-98905635D01*
X114119200Y-99176112D01*
X114119200Y-99451888D01*
X114173001Y-99722365D01*
X114278536Y-99977149D01*
X114431749Y-100206448D01*
X114626752Y-100401451D01*
X114856051Y-100554664D01*
X115110835Y-100660199D01*
X115381312Y-100714000D01*
X115657088Y-100714000D01*
X115927565Y-100660199D01*
X116182349Y-100554664D01*
X116411648Y-100401451D01*
X116606651Y-100206448D01*
X116759864Y-99977149D01*
X116789200Y-99906326D01*
X116818536Y-99977149D01*
X116971749Y-100206448D01*
X117166752Y-100401451D01*
X117396051Y-100554664D01*
X117650835Y-100660199D01*
X117921312Y-100714000D01*
X118197088Y-100714000D01*
X118467565Y-100660199D01*
X118722349Y-100554664D01*
X118951648Y-100401451D01*
X119146651Y-100206448D01*
X119299864Y-99977149D01*
X119329200Y-99906326D01*
X119358536Y-99977149D01*
X119511749Y-100206448D01*
X119706752Y-100401451D01*
X119936051Y-100554664D01*
X120190835Y-100660199D01*
X120461312Y-100714000D01*
X120737088Y-100714000D01*
X121007565Y-100660199D01*
X121262349Y-100554664D01*
X121491648Y-100401451D01*
X121686651Y-100206448D01*
X121839864Y-99977149D01*
X121869200Y-99906326D01*
X121898536Y-99977149D01*
X122051749Y-100206448D01*
X122246752Y-100401451D01*
X122476051Y-100554664D01*
X122730835Y-100660199D01*
X123001312Y-100714000D01*
X123142851Y-100714000D01*
X123686708Y-101257858D01*
X123704059Y-101279000D01*
X107001000Y-101279000D01*
X107001000Y-96486261D01*
X108768400Y-96486261D01*
X108876219Y-96475642D01*
X108979894Y-96444192D01*
X109075442Y-96393121D01*
X109159190Y-96324390D01*
X109227921Y-96240642D01*
X109278992Y-96145094D01*
X109310442Y-96041419D01*
X109321061Y-95933600D01*
X109321061Y-93633600D01*
X109310442Y-93525781D01*
X109278992Y-93422106D01*
X109245048Y-93358600D01*
X109278992Y-93295094D01*
X109310442Y-93191419D01*
X109321061Y-93083600D01*
X109321061Y-92667850D01*
X109359343Y-92790922D01*
X109421247Y-92904798D01*
X109504178Y-93004410D01*
X109604948Y-93085929D01*
X109719686Y-93146222D01*
X109843981Y-93182972D01*
X109973058Y-93194768D01*
X110399900Y-93191600D01*
X110564400Y-93027100D01*
X110564400Y-92436261D01*
X110772400Y-92436261D01*
X110772400Y-93027100D01*
X110936900Y-93191600D01*
X111363742Y-93194768D01*
X111492819Y-93182972D01*
X111617114Y-93146222D01*
X111731852Y-93085929D01*
X111832622Y-93004410D01*
X111915553Y-92904798D01*
X111977457Y-92790922D01*
X112015955Y-92667156D01*
X112026400Y-92548100D01*
X111861900Y-92383600D01*
X111599710Y-92383600D01*
X111675442Y-92343121D01*
X111747968Y-92283600D01*
X111861900Y-92283600D01*
X112026400Y-92119100D01*
X112015955Y-92000044D01*
X111977457Y-91876278D01*
X111921061Y-91772534D01*
X111921061Y-91708600D01*
X113453739Y-91708600D01*
X113453739Y-92208601D01*
%TA.AperFunction,Conductor*%
D27*
G36*
X113453739Y-92208601D02*
G01*
X113469162Y-92365192D01*
X113514838Y-92515766D01*
X113589012Y-92654535D01*
X113688833Y-92776167D01*
X113810465Y-92875988D01*
X113949234Y-92950162D01*
X114029160Y-92974407D01*
X114031400Y-92997152D01*
X114031400Y-92997158D01*
X114036015Y-93044010D01*
X114041167Y-93096323D01*
X114047178Y-93116139D01*
X114079764Y-93223560D01*
X114139209Y-93334774D01*
X114142443Y-93340824D01*
X114205656Y-93417850D01*
X114205663Y-93417857D01*
X114226794Y-93443605D01*
X114252544Y-93464738D01*
X118777658Y-97989852D01*
X118798794Y-98015606D01*
X118901576Y-98099958D01*
X119018839Y-98162636D01*
X119086848Y-98183266D01*
X119146075Y-98201233D01*
X119171107Y-98203698D01*
X119245241Y-98211000D01*
X119245247Y-98211000D01*
X119278399Y-98214265D01*
X119311551Y-98211000D01*
X119730023Y-98211000D01*
X119706752Y-98226549D01*
X119511749Y-98421552D01*
X119358536Y-98650851D01*
X119329200Y-98721674D01*
X119299864Y-98650851D01*
X119146651Y-98421552D01*
X118951648Y-98226549D01*
X118722349Y-98073336D01*
X118467565Y-97967801D01*
X118197088Y-97914000D01*
X117921312Y-97914000D01*
X117650835Y-97967801D01*
X117396051Y-98073336D01*
X117166752Y-98226549D01*
X116971749Y-98421552D01*
X116818536Y-98650851D01*
X116789200Y-98721674D01*
X116759864Y-98650851D01*
X116606651Y-98421552D01*
X116411648Y-98226549D01*
X116182349Y-98073336D01*
X115927565Y-97967801D01*
X115657088Y-97914000D01*
X115381312Y-97914000D01*
X115110835Y-97967801D01*
X114856051Y-98073336D01*
X114626752Y-98226549D01*
X114431749Y-98421552D01*
X114278536Y-98650851D01*
X114173001Y-98905635D01*
X114119200Y-99176112D01*
X114119200Y-99451888D01*
X114173001Y-99722365D01*
X114278536Y-99977149D01*
X114431749Y-100206448D01*
X114626752Y-100401451D01*
X114856051Y-100554664D01*
X115110835Y-100660199D01*
X115381312Y-100714000D01*
X115657088Y-100714000D01*
X115927565Y-100660199D01*
X116182349Y-100554664D01*
X116411648Y-100401451D01*
X116606651Y-100206448D01*
X116759864Y-99977149D01*
X116789200Y-99906326D01*
X116818536Y-99977149D01*
X116971749Y-100206448D01*
X117166752Y-100401451D01*
X117396051Y-100554664D01*
X117650835Y-100660199D01*
X117921312Y-100714000D01*
X118197088Y-100714000D01*
X118467565Y-100660199D01*
X118722349Y-100554664D01*
X118951648Y-100401451D01*
X119146651Y-100206448D01*
X119299864Y-99977149D01*
X119329200Y-99906326D01*
X119358536Y-99977149D01*
X119511749Y-100206448D01*
X119706752Y-100401451D01*
X119936051Y-100554664D01*
X120190835Y-100660199D01*
X120461312Y-100714000D01*
X120737088Y-100714000D01*
X121007565Y-100660199D01*
X121262349Y-100554664D01*
X121491648Y-100401451D01*
X121686651Y-100206448D01*
X121839864Y-99977149D01*
X121869200Y-99906326D01*
X121898536Y-99977149D01*
X122051749Y-100206448D01*
X122246752Y-100401451D01*
X122476051Y-100554664D01*
X122730835Y-100660199D01*
X123001312Y-100714000D01*
X123142851Y-100714000D01*
X123686708Y-101257858D01*
X123704059Y-101279000D01*
X107001000Y-101279000D01*
X107001000Y-96486261D01*
X108768400Y-96486261D01*
X108876219Y-96475642D01*
X108979894Y-96444192D01*
X109075442Y-96393121D01*
X109159190Y-96324390D01*
X109227921Y-96240642D01*
X109278992Y-96145094D01*
X109310442Y-96041419D01*
X109321061Y-95933600D01*
X109321061Y-93633600D01*
X109310442Y-93525781D01*
X109278992Y-93422106D01*
X109245048Y-93358600D01*
X109278992Y-93295094D01*
X109310442Y-93191419D01*
X109321061Y-93083600D01*
X109321061Y-92667850D01*
X109359343Y-92790922D01*
X109421247Y-92904798D01*
X109504178Y-93004410D01*
X109604948Y-93085929D01*
X109719686Y-93146222D01*
X109843981Y-93182972D01*
X109973058Y-93194768D01*
X110399900Y-93191600D01*
X110564400Y-93027100D01*
X110564400Y-92436261D01*
X110772400Y-92436261D01*
X110772400Y-93027100D01*
X110936900Y-93191600D01*
X111363742Y-93194768D01*
X111492819Y-93182972D01*
X111617114Y-93146222D01*
X111731852Y-93085929D01*
X111832622Y-93004410D01*
X111915553Y-92904798D01*
X111977457Y-92790922D01*
X112015955Y-92667156D01*
X112026400Y-92548100D01*
X111861900Y-92383600D01*
X111599710Y-92383600D01*
X111675442Y-92343121D01*
X111747968Y-92283600D01*
X111861900Y-92283600D01*
X112026400Y-92119100D01*
X112015955Y-92000044D01*
X111977457Y-91876278D01*
X111921061Y-91772534D01*
X111921061Y-91708600D01*
X113453739Y-91708600D01*
X113453739Y-92208601D01*
G37*
%TD.AperFunction*%
D25*
X135535715Y-69405200D02*
X133663945Y-69405200D01*
X133663193Y-69403794D01*
X133647121Y-69384210D01*
X133633797Y-69362661D01*
X133597242Y-69323432D01*
X133563222Y-69281978D01*
X133543636Y-69265905D01*
X133526365Y-69247370D01*
X133482849Y-69216018D01*
X133441405Y-69182007D01*
X133384407Y-69151541D01*
X132295061Y-68518902D01*
X132295061Y-68285599D01*
X132279638Y-68129008D01*
X132233962Y-67978434D01*
X132159788Y-67839665D01*
X132059967Y-67718033D01*
X131938335Y-67618212D01*
X131799566Y-67544038D01*
X131648992Y-67498362D01*
X131492401Y-67482939D01*
X130842399Y-67482939D01*
X130685808Y-67498362D01*
X130535234Y-67544038D01*
X130396465Y-67618212D01*
X130274833Y-67718033D01*
X130175012Y-67839665D01*
X130100838Y-67978434D01*
X130055162Y-68129008D01*
X130039739Y-68285599D01*
X130039739Y-69585601D01*
X130055162Y-69742192D01*
X130100838Y-69892766D01*
X130175012Y-70031535D01*
X130274833Y-70153167D01*
X130396465Y-70252988D01*
X130535234Y-70327162D01*
X130685808Y-70372838D01*
X130842399Y-70388261D01*
X131492401Y-70388261D01*
X131648992Y-70372838D01*
X131799566Y-70327162D01*
X131938335Y-70252988D01*
X132003274Y-70199694D01*
X132194800Y-70310923D01*
X132194800Y-71308939D01*
X131994800Y-71308939D01*
X131886981Y-71319558D01*
X131783306Y-71351008D01*
X131687758Y-71402079D01*
X131604010Y-71470810D01*
X131535279Y-71554558D01*
X131484208Y-71650106D01*
X131452758Y-71753781D01*
X131442139Y-71861600D01*
X131442139Y-72961600D01*
X128242537Y-72961600D01*
X128236842Y-72903781D01*
X128205392Y-72800106D01*
X128154321Y-72704558D01*
X128145073Y-72693289D01*
X128162328Y-72679128D01*
X128244554Y-72578934D01*
X128305654Y-72464624D01*
X128343280Y-72340591D01*
X128355984Y-72211600D01*
X128352800Y-71730100D01*
X128188300Y-71565600D01*
X126798800Y-71565600D01*
X126798800Y-71585600D01*
X126590800Y-71585600D01*
X126590800Y-71565600D01*
X125201300Y-71565600D01*
X125036800Y-71730100D01*
X125033616Y-72211600D01*
X125046320Y-72340591D01*
X125083946Y-72464624D01*
X125145046Y-72578934D01*
X125227272Y-72679128D01*
X125244527Y-72693289D01*
X125235279Y-72704558D01*
X125184208Y-72800106D01*
X125152758Y-72903781D01*
X125142139Y-73011600D01*
X125142139Y-74511600D01*
X125152758Y-74619419D01*
X125184208Y-74723094D01*
X125235279Y-74818642D01*
X125304010Y-74902390D01*
X125315232Y-74911600D01*
X125304010Y-74920810D01*
X125235279Y-75004558D01*
X125184208Y-75100106D01*
X125152758Y-75203781D01*
X125147063Y-75261600D01*
X123982261Y-75261600D01*
X123982261Y-74860799D01*
X123966838Y-74704208D01*
X123921162Y-74553634D01*
X123846988Y-74414865D01*
X123747167Y-74293233D01*
X123625535Y-74193412D01*
X123486766Y-74119238D01*
X123336192Y-74073562D01*
X123179601Y-74058139D01*
X121879599Y-74058139D01*
X121723008Y-74073562D01*
X121572434Y-74119238D01*
X121433665Y-74193412D01*
X121312033Y-74293233D01*
X121236065Y-74385800D01*
X120165535Y-74385800D01*
X120089567Y-74293233D01*
X119967935Y-74193412D01*
X119829166Y-74119238D01*
X119678592Y-74073562D01*
X119522001Y-74058139D01*
X118221999Y-74058139D01*
X118065408Y-74073562D01*
X117914834Y-74119238D01*
X117776065Y-74193412D01*
X117654433Y-74293233D01*
X117578465Y-74385800D01*
X112457891Y-74385800D01*
X112418600Y-74381930D01*
X112379309Y-74385800D01*
X112379307Y-74385800D01*
X112261773Y-74397376D01*
X112110972Y-74443121D01*
X111971993Y-74517407D01*
X111881177Y-74591938D01*
X111850178Y-74617378D01*
X111825131Y-74647898D01*
X111739992Y-74733037D01*
X111523041Y-74643173D01*
X111175284Y-74574000D01*
X110820716Y-74574000D01*
X110472959Y-74643173D01*
X110145380Y-74778861D01*
X109850567Y-74975849D01*
X109599849Y-75226567D01*
X109402861Y-75521380D01*
X109267173Y-75848959D01*
X109198000Y-76196716D01*
X109198000Y-76551284D01*
X109267173Y-76899041D01*
X109288969Y-76951661D01*
X109236998Y-77003632D01*
X109206479Y-77028678D01*
X109181432Y-77059198D01*
X109181431Y-77059199D01*
X109106507Y-77150494D01*
X109032221Y-77289473D01*
X108986477Y-77440273D01*
X108971030Y-77597100D01*
X108974901Y-77636400D01*
X108974900Y-80365123D01*
X108894833Y-80430833D01*
X108795012Y-80552465D01*
X108720838Y-80691234D01*
X108675162Y-80841808D01*
X108659739Y-80998399D01*
X108659739Y-83898401D01*
X108675162Y-84054992D01*
X108720838Y-84205566D01*
X108795012Y-84344335D01*
X108894833Y-84465967D01*
X109016465Y-84565788D01*
X109155234Y-84639962D01*
X109305808Y-84685638D01*
X109462399Y-84701061D01*
X110087401Y-84701061D01*
X110243992Y-84685638D01*
X110394566Y-84639962D01*
X110533335Y-84565788D01*
X110654967Y-84465967D01*
X110754788Y-84344335D01*
X110828962Y-84205566D01*
X110874638Y-84054992D01*
X110890061Y-83898401D01*
X110890061Y-80998399D01*
X110874638Y-80841808D01*
X110828962Y-80691234D01*
X110754788Y-80552465D01*
X110654967Y-80430833D01*
X110574900Y-80365124D01*
X110574900Y-78125104D01*
X110820716Y-78174000D01*
X111175284Y-78174000D01*
X111523041Y-78104827D01*
X111850620Y-77969139D01*
X112145433Y-77772151D01*
X112396151Y-77521433D01*
X112593139Y-77226620D01*
X112728827Y-76899041D01*
X112798000Y-76551284D01*
X112798000Y-76196716D01*
X112756046Y-75985800D01*
X117578465Y-75985800D01*
X117654433Y-76078367D01*
X117776065Y-76178188D01*
X117914834Y-76252362D01*
X118065408Y-76298038D01*
X118221999Y-76313461D01*
X119522001Y-76313461D01*
X119678592Y-76298038D01*
X119829166Y-76252362D01*
X119967935Y-76178188D01*
X120089567Y-76078367D01*
X120165535Y-75985800D01*
X121236065Y-75985800D01*
X121312033Y-76078367D01*
X121433665Y-76178188D01*
X121572434Y-76252362D01*
X121723008Y-76298038D01*
X121879599Y-76313461D01*
X122730890Y-76313461D01*
X123016930Y-76599501D01*
X123041978Y-76630022D01*
X123072498Y-76655069D01*
X123163793Y-76729993D01*
X123217689Y-76758801D01*
X123302772Y-76804279D01*
X123453573Y-76850024D01*
X123571107Y-76861600D01*
X123571116Y-76861600D01*
X123610399Y-76865469D01*
X123649682Y-76861600D01*
X125147063Y-76861600D01*
X125152758Y-76919419D01*
X125184208Y-77023094D01*
X125235279Y-77118642D01*
X125304010Y-77202390D01*
X125387758Y-77271121D01*
X125483306Y-77322192D01*
X125586981Y-77353642D01*
X125694800Y-77364261D01*
X127694800Y-77364261D01*
X127802619Y-77353642D01*
X127906294Y-77322192D01*
X128001842Y-77271121D01*
X128085590Y-77202390D01*
X128154321Y-77118642D01*
X128205392Y-77023094D01*
X128236842Y-76919419D01*
X128242537Y-76861600D01*
X128562230Y-76861600D01*
X129352930Y-77652301D01*
X129377978Y-77682822D01*
X129408498Y-77707869D01*
X129499793Y-77782793D01*
X129521768Y-77794539D01*
X128537600Y-77794539D01*
X128429781Y-77805158D01*
X128326106Y-77836608D01*
X128230558Y-77887679D01*
X128146810Y-77956410D01*
X128078079Y-78040158D01*
X128027008Y-78135706D01*
X127995558Y-78239381D01*
X127984939Y-78347200D01*
X127984939Y-80047200D01*
X127995558Y-80155019D01*
X128027008Y-80258694D01*
X128078079Y-80354242D01*
X128146810Y-80437990D01*
X128230558Y-80506721D01*
X128326106Y-80557792D01*
X128392722Y-80578000D01*
X125423143Y-80578000D01*
X125423143Y-83678000D01*
X130608857Y-83678000D01*
X130608857Y-80578000D01*
X130382478Y-80578000D01*
X130449094Y-80557792D01*
X130544642Y-80506721D01*
X130628390Y-80437990D01*
X130697121Y-80354242D01*
X130748192Y-80258694D01*
X130779642Y-80155019D01*
X130790261Y-80047200D01*
X130790261Y-80014985D01*
X130840149Y-80089648D01*
X131035152Y-80284651D01*
X131264451Y-80437864D01*
X131519235Y-80543399D01*
X131789712Y-80597200D01*
X132065488Y-80597200D01*
X132335965Y-80543399D01*
X132590749Y-80437864D01*
X132820048Y-80284651D01*
X133015051Y-80089648D01*
X133168264Y-79860349D01*
X133197600Y-79789526D01*
X133226936Y-79860349D01*
X133380149Y-80089648D01*
X133575152Y-80284651D01*
X133804451Y-80437864D01*
X134059235Y-80543399D01*
X134329712Y-80597200D01*
X134605488Y-80597200D01*
X134875965Y-80543399D01*
X135130749Y-80437864D01*
X135360048Y-80284651D01*
X135555051Y-80089648D01*
X135708264Y-79860349D01*
X135737600Y-79789526D01*
X135766936Y-79860349D01*
X135920149Y-80089648D01*
X136115152Y-80284651D01*
X136344451Y-80437864D01*
X136599235Y-80543399D01*
X136869712Y-80597200D01*
X137145488Y-80597200D01*
X137415965Y-80543399D01*
X137670749Y-80437864D01*
X137900048Y-80284651D01*
X138095051Y-80089648D01*
X138248264Y-79860349D01*
X138277600Y-79789526D01*
X138306936Y-79860349D01*
X138460149Y-80089648D01*
X138655152Y-80284651D01*
X138884451Y-80437864D01*
X139139235Y-80543399D01*
X139409712Y-80597200D01*
X139685488Y-80597200D01*
X139955965Y-80543399D01*
X140210749Y-80437864D01*
X140440048Y-80284651D01*
X140635051Y-80089648D01*
X140788264Y-79860349D01*
X140817600Y-79789526D01*
X140846936Y-79860349D01*
X141000149Y-80089648D01*
X141195152Y-80284651D01*
X141424451Y-80437864D01*
X141679235Y-80543399D01*
X141949712Y-80597200D01*
X142225488Y-80597200D01*
X142495965Y-80543399D01*
X142750749Y-80437864D01*
X142980048Y-80284651D01*
X143175051Y-80089648D01*
X143328264Y-79860349D01*
X143433799Y-79605565D01*
X143487600Y-79335088D01*
X143487600Y-79059312D01*
X143433799Y-78788835D01*
X143328264Y-78534051D01*
X143175051Y-78304752D01*
X142980048Y-78109749D01*
X142750749Y-77956536D01*
X142649024Y-77914400D01*
X143827601Y-77914400D01*
X143827600Y-81189600D01*
X136769981Y-81189600D01*
X136768774Y-81188955D01*
X136636823Y-81148929D01*
X136499599Y-81135413D01*
X136362376Y-81148929D01*
X136230426Y-81188955D01*
X136108819Y-81253955D01*
X136104646Y-81257379D01*
X136071976Y-81274842D01*
X135969194Y-81359194D01*
X135948054Y-81384953D01*
X135791745Y-81541261D01*
X135765994Y-81562395D01*
X135744863Y-81588143D01*
X135744856Y-81588150D01*
X135710479Y-81630039D01*
X135681642Y-81665177D01*
X135618964Y-81782440D01*
X135601867Y-81838801D01*
X135581683Y-81905341D01*
X135580367Y-81909678D01*
X135570600Y-82008842D01*
X135570600Y-82008848D01*
X135567335Y-82042000D01*
X135570600Y-82075152D01*
X135570600Y-82465739D01*
X135070599Y-82465739D01*
X134914008Y-82481162D01*
X134763434Y-82526838D01*
X134624665Y-82601012D01*
X134503033Y-82700833D01*
X134403212Y-82822465D01*
X134329038Y-82961234D01*
X134297692Y-83064568D01*
X134208038Y-83091764D01*
X134145360Y-83125266D01*
X134090776Y-83154442D01*
X134090774Y-83154443D01*
X134090775Y-83154443D01*
X134013749Y-83217656D01*
X134013742Y-83217663D01*
X133987994Y-83238794D01*
X133966862Y-83264543D01*
X133150144Y-84081262D01*
X133124394Y-84102395D01*
X133103263Y-84128143D01*
X133103256Y-84128150D01*
X133067064Y-84172251D01*
X133040042Y-84205177D01*
X132977364Y-84322440D01*
X132938767Y-84449678D01*
X132929000Y-84548842D01*
X132929000Y-84548848D01*
X132925735Y-84582000D01*
X132929000Y-84615152D01*
X132929001Y-89377150D01*
X132918200Y-89386014D01*
X132823578Y-89308359D01*
X132702097Y-89243426D01*
X132651459Y-89228065D01*
X131310742Y-87887348D01*
X131289606Y-87861594D01*
X131186824Y-87777242D01*
X131069561Y-87714564D01*
X131015030Y-87698022D01*
X131032454Y-87665424D01*
X131070080Y-87541391D01*
X131082784Y-87412400D01*
X131079600Y-86780900D01*
X130915100Y-86616400D01*
X129950600Y-86616400D01*
X129950600Y-86636400D01*
X129742600Y-86636400D01*
X129742600Y-86616400D01*
X128778100Y-86616400D01*
X128613600Y-86780900D01*
X128610416Y-87412400D01*
X128623120Y-87541391D01*
X128660746Y-87665424D01*
X128661161Y-87666200D01*
X127841499Y-87666200D01*
X127888988Y-87608335D01*
X127963162Y-87469566D01*
X128008838Y-87318992D01*
X128024261Y-87162401D01*
X128024261Y-85862399D01*
X128008838Y-85705808D01*
X127980504Y-85612400D01*
X128610416Y-85612400D01*
X128613600Y-86243900D01*
X128778100Y-86408400D01*
X129742600Y-86408400D01*
X129742600Y-85118900D01*
X129950600Y-85118900D01*
X129950600Y-86408400D01*
X130915100Y-86408400D01*
X131079600Y-86243900D01*
X131082784Y-85612400D01*
X131070080Y-85483409D01*
X131032454Y-85359376D01*
X130971354Y-85245066D01*
X130889128Y-85144872D01*
X130788934Y-85062646D01*
X130674624Y-85001546D01*
X130550591Y-84963920D01*
X130421600Y-84951216D01*
X130115100Y-84954400D01*
X129950600Y-85118900D01*
X129742600Y-85118900D01*
X129578100Y-84954400D01*
X129271600Y-84951216D01*
X129142609Y-84963920D01*
X129018576Y-85001546D01*
X128904266Y-85062646D01*
X128804072Y-85144872D01*
X128721846Y-85245066D01*
X128660746Y-85359376D01*
X128623120Y-85483409D01*
X128610416Y-85612400D01*
X127980504Y-85612400D01*
X127963162Y-85555234D01*
X127888988Y-85416465D01*
X127789167Y-85294833D01*
X127667535Y-85195012D01*
X127528766Y-85120838D01*
X127378192Y-85075162D01*
X127221601Y-85059739D01*
X126571599Y-85059739D01*
X126415008Y-85075162D01*
X126264434Y-85120838D01*
X126125665Y-85195012D01*
X126004033Y-85294833D01*
X125904212Y-85416465D01*
X125830038Y-85555234D01*
X125784362Y-85705808D01*
X125768939Y-85862399D01*
X125768939Y-87162401D01*
X125784362Y-87318992D01*
X125830038Y-87469566D01*
X125904212Y-87608335D01*
X126004033Y-87729967D01*
X126125665Y-87829788D01*
X126240116Y-87890964D01*
X126269964Y-87989360D01*
X126332642Y-88106623D01*
X126332643Y-88106624D01*
X126395856Y-88183650D01*
X126395863Y-88183657D01*
X126416994Y-88209405D01*
X126442744Y-88230538D01*
X126691206Y-88479000D01*
X126626752Y-88479000D01*
X126593600Y-88475735D01*
X126560448Y-88479000D01*
X126560441Y-88479000D01*
X126473792Y-88487534D01*
X126461276Y-88488767D01*
X126344868Y-88524079D01*
X126334039Y-88527364D01*
X126216776Y-88590042D01*
X126216774Y-88590043D01*
X126216775Y-88590043D01*
X126140549Y-88652601D01*
X126113994Y-88674394D01*
X126092858Y-88700148D01*
X123570806Y-91222200D01*
X123368755Y-91222200D01*
X123367600Y-91065700D01*
X123203100Y-90901200D01*
X122213600Y-90901200D01*
X122213600Y-90921200D01*
X122005600Y-90921200D01*
X122005600Y-90901200D01*
X121985600Y-90901200D01*
X121985600Y-90693200D01*
X122005600Y-90693200D01*
X122005600Y-89603700D01*
X122213600Y-89603700D01*
X122213600Y-90693200D01*
X123203100Y-90693200D01*
X123367600Y-90528700D01*
X123370784Y-90097200D01*
X123358080Y-89968209D01*
X123320454Y-89844176D01*
X123259354Y-89729866D01*
X123177128Y-89629672D01*
X123076934Y-89547446D01*
X122962624Y-89486346D01*
X122838591Y-89448720D01*
X122709600Y-89436016D01*
X122378100Y-89439200D01*
X122213600Y-89603700D01*
X122005600Y-89603700D01*
X121841100Y-89439200D01*
X121509600Y-89436016D01*
X121380609Y-89448720D01*
X121256576Y-89486346D01*
X121142266Y-89547446D01*
X121128699Y-89558580D01*
X121117419Y-89555158D01*
X121084600Y-89551926D01*
X121084600Y-89247969D01*
X121166466Y-89315154D01*
X121280776Y-89376254D01*
X121404809Y-89413880D01*
X121533800Y-89426584D01*
X121715300Y-89423400D01*
X121879800Y-89258900D01*
X121879800Y-88394400D01*
X122087800Y-88394400D01*
X122087800Y-89258900D01*
X122252300Y-89423400D01*
X122433800Y-89426584D01*
X122562791Y-89413880D01*
X122686824Y-89376254D01*
X122801134Y-89315154D01*
X122901328Y-89232928D01*
X122983554Y-89132734D01*
X123044654Y-89018424D01*
X123082280Y-88894391D01*
X123094984Y-88765400D01*
X123091800Y-88558900D01*
X122927300Y-88394400D01*
X122087800Y-88394400D01*
X121879800Y-88394400D01*
X121859800Y-88394400D01*
X121859800Y-88186400D01*
X121879800Y-88186400D01*
X121879800Y-87321900D01*
X122087800Y-87321900D01*
X122087800Y-88186400D01*
X122927300Y-88186400D01*
X123091800Y-88021900D01*
X123094984Y-87815400D01*
X123082280Y-87686409D01*
X123044654Y-87562376D01*
X122983554Y-87448066D01*
X122901328Y-87347872D01*
X122801134Y-87265646D01*
X122686824Y-87204546D01*
X122562791Y-87166920D01*
X122433800Y-87154216D01*
X122252300Y-87157400D01*
X122087800Y-87321900D01*
X121879800Y-87321900D01*
X121715300Y-87157400D01*
X121533800Y-87154216D01*
X121404809Y-87166920D01*
X121280776Y-87204546D01*
X121166466Y-87265646D01*
X121066272Y-87347872D01*
X121047566Y-87370666D01*
X120956398Y-87321935D01*
X120810514Y-87277682D01*
X120658800Y-87262739D01*
X120208800Y-87262739D01*
X120057086Y-87277682D01*
X119911202Y-87321935D01*
X119776755Y-87393799D01*
X119658911Y-87490511D01*
X119562199Y-87608355D01*
X119490335Y-87742802D01*
X119446082Y-87888686D01*
X119431139Y-88040400D01*
X119431139Y-88540400D01*
X119446082Y-88692114D01*
X119490335Y-88837998D01*
X119562199Y-88972445D01*
X119658911Y-89090289D01*
X119734601Y-89152406D01*
X119734601Y-89551926D01*
X119701781Y-89555158D01*
X119598106Y-89586608D01*
X119502558Y-89637679D01*
X119418810Y-89706410D01*
X119350079Y-89790158D01*
X119299008Y-89885706D01*
X119267558Y-89989381D01*
X119256939Y-90097200D01*
X119256939Y-91497200D01*
X119267558Y-91605019D01*
X119299008Y-91708694D01*
X119350079Y-91804242D01*
X119359327Y-91815511D01*
X119342072Y-91829672D01*
X119259846Y-91929866D01*
X119198746Y-92044176D01*
X119161120Y-92168209D01*
X119148416Y-92297200D01*
X119151600Y-92728700D01*
X119316100Y-92893200D01*
X120305600Y-92893200D01*
X120305600Y-92873200D01*
X120513600Y-92873200D01*
X120513600Y-92893200D01*
X120533600Y-92893200D01*
X120533600Y-93101200D01*
X120513600Y-93101200D01*
X120513600Y-94190700D01*
X120678100Y-94355200D01*
X121009600Y-94358384D01*
X121138591Y-94345680D01*
X121262624Y-94308054D01*
X121376934Y-94246954D01*
X121390501Y-94235820D01*
X121401781Y-94239242D01*
X121421364Y-94241171D01*
X121407965Y-94266239D01*
X121369367Y-94393477D01*
X121356335Y-94525800D01*
X121359601Y-94558962D01*
X121359601Y-94932971D01*
X121301934Y-94885646D01*
X121187624Y-94824546D01*
X121063591Y-94786920D01*
X120934600Y-94774216D01*
X120753100Y-94777400D01*
X120588600Y-94941900D01*
X120588600Y-95806400D01*
X120608600Y-95806400D01*
X120608600Y-96014400D01*
X120588600Y-96014400D01*
X120588600Y-96034400D01*
X120380600Y-96034400D01*
X120380600Y-96014400D01*
X120360600Y-96014400D01*
X120360600Y-95806400D01*
X120380600Y-95806400D01*
X120380600Y-94941900D01*
X120216100Y-94777400D01*
X120034600Y-94774216D01*
X119905609Y-94786920D01*
X119851800Y-94803243D01*
X119851800Y-94521151D01*
X119855065Y-94487999D01*
X119851800Y-94454847D01*
X119851800Y-94454841D01*
X119842269Y-94358070D01*
X120141100Y-94355200D01*
X120305600Y-94190700D01*
X120305600Y-93101200D01*
X119316100Y-93101200D01*
X119151600Y-93265700D01*
X119149824Y-93506430D01*
X116223142Y-90579748D01*
X116202006Y-90553994D01*
X116099224Y-90469642D01*
X115981961Y-90406964D01*
X115957491Y-90399541D01*
X115959061Y-90383601D01*
X115959061Y-89858599D01*
X115943638Y-89702008D01*
X115897962Y-89551434D01*
X115823788Y-89412665D01*
X115723967Y-89291033D01*
X115602335Y-89191212D01*
X115463566Y-89117038D01*
X115312992Y-89071362D01*
X115156401Y-89055939D01*
X114322556Y-89055939D01*
X114373962Y-88959766D01*
X114419638Y-88809192D01*
X114435061Y-88652601D01*
X114435061Y-88127599D01*
X114419638Y-87971008D01*
X114373962Y-87820434D01*
X114299788Y-87681665D01*
X114199967Y-87560033D01*
X114099522Y-87477600D01*
X114199967Y-87395167D01*
X114299788Y-87273535D01*
X114373962Y-87134766D01*
X114419638Y-86984192D01*
X114435061Y-86827601D01*
X114435061Y-86302599D01*
X114419638Y-86146008D01*
X114373962Y-85995434D01*
X114352732Y-85955716D01*
X114503749Y-85822386D01*
X114547269Y-85786670D01*
X114577204Y-85750195D01*
X114609356Y-85715636D01*
X114620855Y-85697005D01*
X114634745Y-85680081D01*
X114656996Y-85638453D01*
X114681780Y-85598299D01*
X114689422Y-85577788D01*
X114699745Y-85558475D01*
X114713449Y-85513299D01*
X114729921Y-85469088D01*
X114733414Y-85447482D01*
X114739772Y-85426524D01*
X114744399Y-85379547D01*
X114751930Y-85332968D01*
X114749900Y-85276696D01*
X114749900Y-84597022D01*
X114808335Y-84565788D01*
X114929967Y-84465967D01*
X115029788Y-84344335D01*
X115103962Y-84205566D01*
X115149638Y-84054992D01*
X115165061Y-83898401D01*
X115165061Y-82209000D01*
X118389143Y-82209000D01*
X118389143Y-78559000D01*
X114274857Y-78559000D01*
X114274857Y-80195739D01*
X113737399Y-80195739D01*
X113580808Y-80211162D01*
X113430234Y-80256838D01*
X113291465Y-80331012D01*
X113169833Y-80430833D01*
X113070012Y-80552465D01*
X112995838Y-80691234D01*
X112950162Y-80841808D01*
X112934739Y-80998399D01*
X112934739Y-83898401D01*
X112950162Y-84054992D01*
X112995838Y-84205566D01*
X113070012Y-84344335D01*
X113169833Y-84465967D01*
X113291465Y-84565788D01*
X113349900Y-84597022D01*
X113349900Y-84973537D01*
X112753670Y-85499939D01*
X112732399Y-85499939D01*
X112575808Y-85515362D01*
X112425234Y-85561038D01*
X112286465Y-85635212D01*
X112164833Y-85735033D01*
X112065012Y-85856665D01*
X111990838Y-85995434D01*
X111945162Y-86146008D01*
X111929739Y-86302599D01*
X111929739Y-86827601D01*
X111945162Y-86984192D01*
X111990838Y-87134766D01*
X112065012Y-87273535D01*
X112164833Y-87395167D01*
X112265278Y-87477600D01*
X112164833Y-87560033D01*
X112065012Y-87681665D01*
X112030897Y-87745488D01*
X111118831Y-87790020D01*
X111101500Y-87788313D01*
X111050097Y-87793376D01*
X111033015Y-87794210D01*
X111015884Y-87796746D01*
X110964276Y-87801829D01*
X110947818Y-87806822D01*
X110930797Y-87809341D01*
X110881963Y-87826798D01*
X110832325Y-87841855D01*
X110817147Y-87849968D01*
X110800955Y-87855756D01*
X110756484Y-87882393D01*
X110710718Y-87906855D01*
X110697413Y-87917774D01*
X110682663Y-87926609D01*
X110644228Y-87961423D01*
X110630843Y-87972408D01*
X110618753Y-87984498D01*
X110580467Y-88019177D01*
X110570087Y-88033164D01*
X110197742Y-88405509D01*
X110171031Y-88427430D01*
X110149110Y-88454141D01*
X110149108Y-88454143D01*
X110083555Y-88534019D01*
X110018555Y-88655626D01*
X110007696Y-88691424D01*
X109978528Y-88787576D01*
X109969215Y-88882134D01*
X109965013Y-88924800D01*
X109968400Y-88959187D01*
X109968400Y-88980939D01*
X109860581Y-88991558D01*
X109756906Y-89023008D01*
X109661358Y-89074079D01*
X109577610Y-89142810D01*
X109508879Y-89226558D01*
X109457808Y-89322106D01*
X109426358Y-89425781D01*
X109415739Y-89533600D01*
X109415739Y-89933600D01*
X109426358Y-90041419D01*
X109431570Y-90058600D01*
X109426358Y-90075781D01*
X109415739Y-90183600D01*
X109415739Y-90583600D01*
X109426358Y-90691419D01*
X109431570Y-90708600D01*
X109426358Y-90725781D01*
X109415739Y-90833600D01*
X109415739Y-91233600D01*
X109426358Y-91341419D01*
X109431570Y-91358600D01*
X109426358Y-91375781D01*
X109415739Y-91483600D01*
X109415739Y-91772534D01*
X109359343Y-91876278D01*
X109321061Y-91999350D01*
X109321061Y-91283600D01*
X109310442Y-91175781D01*
X109278992Y-91072106D01*
X109258410Y-91033600D01*
X109278992Y-90995094D01*
X109310442Y-90891419D01*
X109321061Y-90783600D01*
X109321061Y-88983600D01*
X109310442Y-88875781D01*
X109278992Y-88772106D01*
X109245048Y-88708600D01*
X109278992Y-88645094D01*
X109310442Y-88541419D01*
X109321061Y-88433600D01*
X109321061Y-86133600D01*
X109310442Y-86025781D01*
X109278992Y-85922106D01*
X109227921Y-85826558D01*
X109159190Y-85742810D01*
X109075442Y-85674079D01*
X108979894Y-85623008D01*
X108876219Y-85591558D01*
X108768400Y-85580939D01*
X107001000Y-85580939D01*
X107001000Y-72624000D01*
X109086816Y-72624000D01*
X109099520Y-72752991D01*
X109137146Y-72877024D01*
X109198246Y-72991334D01*
X109280472Y-73091528D01*
X109380666Y-73173754D01*
X109494976Y-73234854D01*
X109619009Y-73272480D01*
X109748000Y-73285184D01*
X110729500Y-73282000D01*
X110894000Y-73117500D01*
X110894000Y-71478000D01*
X111102000Y-71478000D01*
X111102000Y-73117500D01*
X111266500Y-73282000D01*
X112248000Y-73285184D01*
X112376991Y-73272480D01*
X112501024Y-73234854D01*
X112615334Y-73173754D01*
X112715528Y-73091528D01*
X112797754Y-72991334D01*
X112858854Y-72877024D01*
X112878943Y-72810800D01*
X117310816Y-72810800D01*
X117323520Y-72939791D01*
X117361146Y-73063824D01*
X117422246Y-73178134D01*
X117504472Y-73278328D01*
X117604666Y-73360554D01*
X117718976Y-73421654D01*
X117843009Y-73459280D01*
X117972000Y-73471984D01*
X118603500Y-73468800D01*
X118768000Y-73304300D01*
X118768000Y-72339800D01*
X118976000Y-72339800D01*
X118976000Y-73304300D01*
X119140500Y-73468800D01*
X119772000Y-73471984D01*
X119900991Y-73459280D01*
X120025024Y-73421654D01*
X120139334Y-73360554D01*
X120239528Y-73278328D01*
X120321754Y-73178134D01*
X120382854Y-73063824D01*
X120420480Y-72939791D01*
X120433184Y-72810800D01*
X120968416Y-72810800D01*
X120981120Y-72939791D01*
X121018746Y-73063824D01*
X121079846Y-73178134D01*
X121162072Y-73278328D01*
X121262266Y-73360554D01*
X121376576Y-73421654D01*
X121500609Y-73459280D01*
X121629600Y-73471984D01*
X122261100Y-73468800D01*
X122425600Y-73304300D01*
X122425600Y-72339800D01*
X122633600Y-72339800D01*
X122633600Y-73304300D01*
X122798100Y-73468800D01*
X123429600Y-73471984D01*
X123558591Y-73459280D01*
X123682624Y-73421654D01*
X123796934Y-73360554D01*
X123897128Y-73278328D01*
X123979354Y-73178134D01*
X124040454Y-73063824D01*
X124078080Y-72939791D01*
X124090784Y-72810800D01*
X124087600Y-72504300D01*
X123923100Y-72339800D01*
X122633600Y-72339800D01*
X122425600Y-72339800D01*
X121136100Y-72339800D01*
X120971600Y-72504300D01*
X120968416Y-72810800D01*
X120433184Y-72810800D01*
X120430000Y-72504300D01*
X120265500Y-72339800D01*
X118976000Y-72339800D01*
X118768000Y-72339800D01*
X117478500Y-72339800D01*
X117314000Y-72504300D01*
X117310816Y-72810800D01*
X112878943Y-72810800D01*
X112896480Y-72752991D01*
X112909184Y-72624000D01*
X112906000Y-71642500D01*
X112741500Y-71478000D01*
X111102000Y-71478000D01*
X110894000Y-71478000D01*
X109254500Y-71478000D01*
X109090000Y-71642500D01*
X109086816Y-72624000D01*
X107001000Y-72624000D01*
X107001000Y-70124000D01*
X109086816Y-70124000D01*
X109090000Y-71105500D01*
X109254500Y-71270000D01*
X110894000Y-71270000D01*
X110894000Y-69630500D01*
X111102000Y-69630500D01*
X111102000Y-71270000D01*
X112741500Y-71270000D01*
X112906000Y-71105500D01*
X112909184Y-70124000D01*
X112896480Y-69995009D01*
X112858854Y-69870976D01*
X112797754Y-69756666D01*
X112715528Y-69656472D01*
X112615334Y-69574246D01*
X112501024Y-69513146D01*
X112376991Y-69475520D01*
X112248000Y-69462816D01*
X111266500Y-69466000D01*
X111102000Y-69630500D01*
X110894000Y-69630500D01*
X110729500Y-69466000D01*
X109748000Y-69462816D01*
X109619009Y-69475520D01*
X109494976Y-69513146D01*
X109380666Y-69574246D01*
X109280472Y-69656472D01*
X109198246Y-69756666D01*
X109137146Y-69870976D01*
X109099520Y-69995009D01*
X109086816Y-70124000D01*
X107001000Y-70124000D01*
X107001000Y-67383000D01*
X115632286Y-67383000D01*
X115632286Y-71033000D01*
X117774838Y-71033000D01*
X117718976Y-71049946D01*
X117604666Y-71111046D01*
X117504472Y-71193272D01*
X117422246Y-71293466D01*
X117361146Y-71407776D01*
X117323520Y-71531809D01*
X117310816Y-71660800D01*
X117314000Y-71967300D01*
X117478500Y-72131800D01*
X118768000Y-72131800D01*
X118768000Y-72111800D01*
X118976000Y-72111800D01*
X118976000Y-72131800D01*
X120265500Y-72131800D01*
X120430000Y-71967300D01*
X120433184Y-71660800D01*
X120420480Y-71531809D01*
X120382854Y-71407776D01*
X120321754Y-71293466D01*
X120239528Y-71193272D01*
X120139334Y-71111046D01*
X120025024Y-71049946D01*
X119969162Y-71033000D01*
X121432438Y-71033000D01*
X121376576Y-71049946D01*
X121262266Y-71111046D01*
X121162072Y-71193272D01*
X121079846Y-71293466D01*
X121018746Y-71407776D01*
X120981120Y-71531809D01*
X120968416Y-71660800D01*
X120971600Y-71967300D01*
X121136100Y-72131800D01*
X122425600Y-72131800D01*
X122425600Y-71167300D01*
X122633600Y-71167300D01*
X122633600Y-72131800D01*
X123923100Y-72131800D01*
X124087600Y-71967300D01*
X124090784Y-71660800D01*
X124078080Y-71531809D01*
X124040454Y-71407776D01*
X123979354Y-71293466D01*
X123897128Y-71193272D01*
X123796934Y-71111046D01*
X123682624Y-71049946D01*
X123558591Y-71012320D01*
X123429600Y-70999616D01*
X122798100Y-71002800D01*
X122633600Y-71167300D01*
X122425600Y-71167300D01*
X122261100Y-71002800D01*
X121629600Y-70999616D01*
X121603715Y-71002165D01*
X121603715Y-70711600D01*
X125033616Y-70711600D01*
X125036800Y-71193100D01*
X125201300Y-71357600D01*
X126590800Y-71357600D01*
X126590800Y-70218100D01*
X126798800Y-70218100D01*
X126798800Y-71357600D01*
X128188300Y-71357600D01*
X128352800Y-71193100D01*
X128355984Y-70711600D01*
X128343280Y-70582609D01*
X128316279Y-70493600D01*
X128321402Y-70493600D01*
X128321402Y-70329102D01*
X128485900Y-70493600D01*
X128792400Y-70496784D01*
X128921391Y-70484080D01*
X129045424Y-70446454D01*
X129159734Y-70385354D01*
X129259928Y-70303128D01*
X129342154Y-70202934D01*
X129403254Y-70088624D01*
X129440880Y-69964591D01*
X129453584Y-69835600D01*
X129450400Y-69204100D01*
X129285900Y-69039600D01*
X128321400Y-69039600D01*
X128321400Y-69059600D01*
X128113400Y-69059600D01*
X128113400Y-69039600D01*
X127148900Y-69039600D01*
X126984400Y-69204100D01*
X126981216Y-69835600D01*
X126993920Y-69964591D01*
X127020845Y-70053350D01*
X126963300Y-70053600D01*
X126798800Y-70218100D01*
X126590800Y-70218100D01*
X126426300Y-70053600D01*
X125694800Y-70050416D01*
X125565809Y-70063120D01*
X125441776Y-70100746D01*
X125327466Y-70161846D01*
X125227272Y-70244072D01*
X125145046Y-70344266D01*
X125083946Y-70458576D01*
X125046320Y-70582609D01*
X125033616Y-70711600D01*
X121603715Y-70711600D01*
X121603715Y-68035600D01*
X126981216Y-68035600D01*
X126984400Y-68667100D01*
X127148900Y-68831600D01*
X128113400Y-68831600D01*
X128113400Y-67542100D01*
X128321400Y-67542100D01*
X128321400Y-68831600D01*
X129285900Y-68831600D01*
X129450400Y-68667100D01*
X129453584Y-68035600D01*
X129440880Y-67906609D01*
X129403254Y-67782576D01*
X129342154Y-67668266D01*
X129259928Y-67568072D01*
X129159734Y-67485846D01*
X129045424Y-67424746D01*
X128921391Y-67387120D01*
X128792400Y-67374416D01*
X128485900Y-67377600D01*
X128321400Y-67542100D01*
X128113400Y-67542100D01*
X127948900Y-67377600D01*
X127642400Y-67374416D01*
X127513409Y-67387120D01*
X127389376Y-67424746D01*
X127275066Y-67485846D01*
X127174872Y-67568072D01*
X127092646Y-67668266D01*
X127031546Y-67782576D01*
X126993920Y-67906609D01*
X126981216Y-68035600D01*
X121603715Y-68035600D01*
X121603715Y-67383000D01*
X115632286Y-67383000D01*
X107001000Y-67383000D01*
X107001000Y-66869000D01*
X135535715Y-66869000D01*
X135535715Y-69405200D01*
%TA.AperFunction,Conductor*%
D27*
G36*
X135535715Y-69405200D02*
G01*
X133663945Y-69405200D01*
X133663193Y-69403794D01*
X133647121Y-69384210D01*
X133633797Y-69362661D01*
X133597242Y-69323432D01*
X133563222Y-69281978D01*
X133543636Y-69265905D01*
X133526365Y-69247370D01*
X133482849Y-69216018D01*
X133441405Y-69182007D01*
X133384407Y-69151541D01*
X132295061Y-68518902D01*
X132295061Y-68285599D01*
X132279638Y-68129008D01*
X132233962Y-67978434D01*
X132159788Y-67839665D01*
X132059967Y-67718033D01*
X131938335Y-67618212D01*
X131799566Y-67544038D01*
X131648992Y-67498362D01*
X131492401Y-67482939D01*
X130842399Y-67482939D01*
X130685808Y-67498362D01*
X130535234Y-67544038D01*
X130396465Y-67618212D01*
X130274833Y-67718033D01*
X130175012Y-67839665D01*
X130100838Y-67978434D01*
X130055162Y-68129008D01*
X130039739Y-68285599D01*
X130039739Y-69585601D01*
X130055162Y-69742192D01*
X130100838Y-69892766D01*
X130175012Y-70031535D01*
X130274833Y-70153167D01*
X130396465Y-70252988D01*
X130535234Y-70327162D01*
X130685808Y-70372838D01*
X130842399Y-70388261D01*
X131492401Y-70388261D01*
X131648992Y-70372838D01*
X131799566Y-70327162D01*
X131938335Y-70252988D01*
X132003274Y-70199694D01*
X132194800Y-70310923D01*
X132194800Y-71308939D01*
X131994800Y-71308939D01*
X131886981Y-71319558D01*
X131783306Y-71351008D01*
X131687758Y-71402079D01*
X131604010Y-71470810D01*
X131535279Y-71554558D01*
X131484208Y-71650106D01*
X131452758Y-71753781D01*
X131442139Y-71861600D01*
X131442139Y-72961600D01*
X128242537Y-72961600D01*
X128236842Y-72903781D01*
X128205392Y-72800106D01*
X128154321Y-72704558D01*
X128145073Y-72693289D01*
X128162328Y-72679128D01*
X128244554Y-72578934D01*
X128305654Y-72464624D01*
X128343280Y-72340591D01*
X128355984Y-72211600D01*
X128352800Y-71730100D01*
X128188300Y-71565600D01*
X126798800Y-71565600D01*
X126798800Y-71585600D01*
X126590800Y-71585600D01*
X126590800Y-71565600D01*
X125201300Y-71565600D01*
X125036800Y-71730100D01*
X125033616Y-72211600D01*
X125046320Y-72340591D01*
X125083946Y-72464624D01*
X125145046Y-72578934D01*
X125227272Y-72679128D01*
X125244527Y-72693289D01*
X125235279Y-72704558D01*
X125184208Y-72800106D01*
X125152758Y-72903781D01*
X125142139Y-73011600D01*
X125142139Y-74511600D01*
X125152758Y-74619419D01*
X125184208Y-74723094D01*
X125235279Y-74818642D01*
X125304010Y-74902390D01*
X125315232Y-74911600D01*
X125304010Y-74920810D01*
X125235279Y-75004558D01*
X125184208Y-75100106D01*
X125152758Y-75203781D01*
X125147063Y-75261600D01*
X123982261Y-75261600D01*
X123982261Y-74860799D01*
X123966838Y-74704208D01*
X123921162Y-74553634D01*
X123846988Y-74414865D01*
X123747167Y-74293233D01*
X123625535Y-74193412D01*
X123486766Y-74119238D01*
X123336192Y-74073562D01*
X123179601Y-74058139D01*
X121879599Y-74058139D01*
X121723008Y-74073562D01*
X121572434Y-74119238D01*
X121433665Y-74193412D01*
X121312033Y-74293233D01*
X121236065Y-74385800D01*
X120165535Y-74385800D01*
X120089567Y-74293233D01*
X119967935Y-74193412D01*
X119829166Y-74119238D01*
X119678592Y-74073562D01*
X119522001Y-74058139D01*
X118221999Y-74058139D01*
X118065408Y-74073562D01*
X117914834Y-74119238D01*
X117776065Y-74193412D01*
X117654433Y-74293233D01*
X117578465Y-74385800D01*
X112457891Y-74385800D01*
X112418600Y-74381930D01*
X112379309Y-74385800D01*
X112379307Y-74385800D01*
X112261773Y-74397376D01*
X112110972Y-74443121D01*
X111971993Y-74517407D01*
X111881177Y-74591938D01*
X111850178Y-74617378D01*
X111825131Y-74647898D01*
X111739992Y-74733037D01*
X111523041Y-74643173D01*
X111175284Y-74574000D01*
X110820716Y-74574000D01*
X110472959Y-74643173D01*
X110145380Y-74778861D01*
X109850567Y-74975849D01*
X109599849Y-75226567D01*
X109402861Y-75521380D01*
X109267173Y-75848959D01*
X109198000Y-76196716D01*
X109198000Y-76551284D01*
X109267173Y-76899041D01*
X109288969Y-76951661D01*
X109236998Y-77003632D01*
X109206479Y-77028678D01*
X109181432Y-77059198D01*
X109181431Y-77059199D01*
X109106507Y-77150494D01*
X109032221Y-77289473D01*
X108986477Y-77440273D01*
X108971030Y-77597100D01*
X108974901Y-77636400D01*
X108974900Y-80365123D01*
X108894833Y-80430833D01*
X108795012Y-80552465D01*
X108720838Y-80691234D01*
X108675162Y-80841808D01*
X108659739Y-80998399D01*
X108659739Y-83898401D01*
X108675162Y-84054992D01*
X108720838Y-84205566D01*
X108795012Y-84344335D01*
X108894833Y-84465967D01*
X109016465Y-84565788D01*
X109155234Y-84639962D01*
X109305808Y-84685638D01*
X109462399Y-84701061D01*
X110087401Y-84701061D01*
X110243992Y-84685638D01*
X110394566Y-84639962D01*
X110533335Y-84565788D01*
X110654967Y-84465967D01*
X110754788Y-84344335D01*
X110828962Y-84205566D01*
X110874638Y-84054992D01*
X110890061Y-83898401D01*
X110890061Y-80998399D01*
X110874638Y-80841808D01*
X110828962Y-80691234D01*
X110754788Y-80552465D01*
X110654967Y-80430833D01*
X110574900Y-80365124D01*
X110574900Y-78125104D01*
X110820716Y-78174000D01*
X111175284Y-78174000D01*
X111523041Y-78104827D01*
X111850620Y-77969139D01*
X112145433Y-77772151D01*
X112396151Y-77521433D01*
X112593139Y-77226620D01*
X112728827Y-76899041D01*
X112798000Y-76551284D01*
X112798000Y-76196716D01*
X112756046Y-75985800D01*
X117578465Y-75985800D01*
X117654433Y-76078367D01*
X117776065Y-76178188D01*
X117914834Y-76252362D01*
X118065408Y-76298038D01*
X118221999Y-76313461D01*
X119522001Y-76313461D01*
X119678592Y-76298038D01*
X119829166Y-76252362D01*
X119967935Y-76178188D01*
X120089567Y-76078367D01*
X120165535Y-75985800D01*
X121236065Y-75985800D01*
X121312033Y-76078367D01*
X121433665Y-76178188D01*
X121572434Y-76252362D01*
X121723008Y-76298038D01*
X121879599Y-76313461D01*
X122730890Y-76313461D01*
X123016930Y-76599501D01*
X123041978Y-76630022D01*
X123072498Y-76655069D01*
X123163793Y-76729993D01*
X123217689Y-76758801D01*
X123302772Y-76804279D01*
X123453573Y-76850024D01*
X123571107Y-76861600D01*
X123571116Y-76861600D01*
X123610399Y-76865469D01*
X123649682Y-76861600D01*
X125147063Y-76861600D01*
X125152758Y-76919419D01*
X125184208Y-77023094D01*
X125235279Y-77118642D01*
X125304010Y-77202390D01*
X125387758Y-77271121D01*
X125483306Y-77322192D01*
X125586981Y-77353642D01*
X125694800Y-77364261D01*
X127694800Y-77364261D01*
X127802619Y-77353642D01*
X127906294Y-77322192D01*
X128001842Y-77271121D01*
X128085590Y-77202390D01*
X128154321Y-77118642D01*
X128205392Y-77023094D01*
X128236842Y-76919419D01*
X128242537Y-76861600D01*
X128562230Y-76861600D01*
X129352930Y-77652301D01*
X129377978Y-77682822D01*
X129408498Y-77707869D01*
X129499793Y-77782793D01*
X129521768Y-77794539D01*
X128537600Y-77794539D01*
X128429781Y-77805158D01*
X128326106Y-77836608D01*
X128230558Y-77887679D01*
X128146810Y-77956410D01*
X128078079Y-78040158D01*
X128027008Y-78135706D01*
X127995558Y-78239381D01*
X127984939Y-78347200D01*
X127984939Y-80047200D01*
X127995558Y-80155019D01*
X128027008Y-80258694D01*
X128078079Y-80354242D01*
X128146810Y-80437990D01*
X128230558Y-80506721D01*
X128326106Y-80557792D01*
X128392722Y-80578000D01*
X125423143Y-80578000D01*
X125423143Y-83678000D01*
X130608857Y-83678000D01*
X130608857Y-80578000D01*
X130382478Y-80578000D01*
X130449094Y-80557792D01*
X130544642Y-80506721D01*
X130628390Y-80437990D01*
X130697121Y-80354242D01*
X130748192Y-80258694D01*
X130779642Y-80155019D01*
X130790261Y-80047200D01*
X130790261Y-80014985D01*
X130840149Y-80089648D01*
X131035152Y-80284651D01*
X131264451Y-80437864D01*
X131519235Y-80543399D01*
X131789712Y-80597200D01*
X132065488Y-80597200D01*
X132335965Y-80543399D01*
X132590749Y-80437864D01*
X132820048Y-80284651D01*
X133015051Y-80089648D01*
X133168264Y-79860349D01*
X133197600Y-79789526D01*
X133226936Y-79860349D01*
X133380149Y-80089648D01*
X133575152Y-80284651D01*
X133804451Y-80437864D01*
X134059235Y-80543399D01*
X134329712Y-80597200D01*
X134605488Y-80597200D01*
X134875965Y-80543399D01*
X135130749Y-80437864D01*
X135360048Y-80284651D01*
X135555051Y-80089648D01*
X135708264Y-79860349D01*
X135737600Y-79789526D01*
X135766936Y-79860349D01*
X135920149Y-80089648D01*
X136115152Y-80284651D01*
X136344451Y-80437864D01*
X136599235Y-80543399D01*
X136869712Y-80597200D01*
X137145488Y-80597200D01*
X137415965Y-80543399D01*
X137670749Y-80437864D01*
X137900048Y-80284651D01*
X138095051Y-80089648D01*
X138248264Y-79860349D01*
X138277600Y-79789526D01*
X138306936Y-79860349D01*
X138460149Y-80089648D01*
X138655152Y-80284651D01*
X138884451Y-80437864D01*
X139139235Y-80543399D01*
X139409712Y-80597200D01*
X139685488Y-80597200D01*
X139955965Y-80543399D01*
X140210749Y-80437864D01*
X140440048Y-80284651D01*
X140635051Y-80089648D01*
X140788264Y-79860349D01*
X140817600Y-79789526D01*
X140846936Y-79860349D01*
X141000149Y-80089648D01*
X141195152Y-80284651D01*
X141424451Y-80437864D01*
X141679235Y-80543399D01*
X141949712Y-80597200D01*
X142225488Y-80597200D01*
X142495965Y-80543399D01*
X142750749Y-80437864D01*
X142980048Y-80284651D01*
X143175051Y-80089648D01*
X143328264Y-79860349D01*
X143433799Y-79605565D01*
X143487600Y-79335088D01*
X143487600Y-79059312D01*
X143433799Y-78788835D01*
X143328264Y-78534051D01*
X143175051Y-78304752D01*
X142980048Y-78109749D01*
X142750749Y-77956536D01*
X142649024Y-77914400D01*
X143827601Y-77914400D01*
X143827600Y-81189600D01*
X136769981Y-81189600D01*
X136768774Y-81188955D01*
X136636823Y-81148929D01*
X136499599Y-81135413D01*
X136362376Y-81148929D01*
X136230426Y-81188955D01*
X136108819Y-81253955D01*
X136104646Y-81257379D01*
X136071976Y-81274842D01*
X135969194Y-81359194D01*
X135948054Y-81384953D01*
X135791745Y-81541261D01*
X135765994Y-81562395D01*
X135744863Y-81588143D01*
X135744856Y-81588150D01*
X135710479Y-81630039D01*
X135681642Y-81665177D01*
X135618964Y-81782440D01*
X135601867Y-81838801D01*
X135581683Y-81905341D01*
X135580367Y-81909678D01*
X135570600Y-82008842D01*
X135570600Y-82008848D01*
X135567335Y-82042000D01*
X135570600Y-82075152D01*
X135570600Y-82465739D01*
X135070599Y-82465739D01*
X134914008Y-82481162D01*
X134763434Y-82526838D01*
X134624665Y-82601012D01*
X134503033Y-82700833D01*
X134403212Y-82822465D01*
X134329038Y-82961234D01*
X134297692Y-83064568D01*
X134208038Y-83091764D01*
X134145360Y-83125266D01*
X134090776Y-83154442D01*
X134090774Y-83154443D01*
X134090775Y-83154443D01*
X134013749Y-83217656D01*
X134013742Y-83217663D01*
X133987994Y-83238794D01*
X133966862Y-83264543D01*
X133150144Y-84081262D01*
X133124394Y-84102395D01*
X133103263Y-84128143D01*
X133103256Y-84128150D01*
X133067064Y-84172251D01*
X133040042Y-84205177D01*
X132977364Y-84322440D01*
X132938767Y-84449678D01*
X132929000Y-84548842D01*
X132929000Y-84548848D01*
X132925735Y-84582000D01*
X132929000Y-84615152D01*
X132929001Y-89377150D01*
X132918200Y-89386014D01*
X132823578Y-89308359D01*
X132702097Y-89243426D01*
X132651459Y-89228065D01*
X131310742Y-87887348D01*
X131289606Y-87861594D01*
X131186824Y-87777242D01*
X131069561Y-87714564D01*
X131015030Y-87698022D01*
X131032454Y-87665424D01*
X131070080Y-87541391D01*
X131082784Y-87412400D01*
X131079600Y-86780900D01*
X130915100Y-86616400D01*
X129950600Y-86616400D01*
X129950600Y-86636400D01*
X129742600Y-86636400D01*
X129742600Y-86616400D01*
X128778100Y-86616400D01*
X128613600Y-86780900D01*
X128610416Y-87412400D01*
X128623120Y-87541391D01*
X128660746Y-87665424D01*
X128661161Y-87666200D01*
X127841499Y-87666200D01*
X127888988Y-87608335D01*
X127963162Y-87469566D01*
X128008838Y-87318992D01*
X128024261Y-87162401D01*
X128024261Y-85862399D01*
X128008838Y-85705808D01*
X127980504Y-85612400D01*
X128610416Y-85612400D01*
X128613600Y-86243900D01*
X128778100Y-86408400D01*
X129742600Y-86408400D01*
X129742600Y-85118900D01*
X129950600Y-85118900D01*
X129950600Y-86408400D01*
X130915100Y-86408400D01*
X131079600Y-86243900D01*
X131082784Y-85612400D01*
X131070080Y-85483409D01*
X131032454Y-85359376D01*
X130971354Y-85245066D01*
X130889128Y-85144872D01*
X130788934Y-85062646D01*
X130674624Y-85001546D01*
X130550591Y-84963920D01*
X130421600Y-84951216D01*
X130115100Y-84954400D01*
X129950600Y-85118900D01*
X129742600Y-85118900D01*
X129578100Y-84954400D01*
X129271600Y-84951216D01*
X129142609Y-84963920D01*
X129018576Y-85001546D01*
X128904266Y-85062646D01*
X128804072Y-85144872D01*
X128721846Y-85245066D01*
X128660746Y-85359376D01*
X128623120Y-85483409D01*
X128610416Y-85612400D01*
X127980504Y-85612400D01*
X127963162Y-85555234D01*
X127888988Y-85416465D01*
X127789167Y-85294833D01*
X127667535Y-85195012D01*
X127528766Y-85120838D01*
X127378192Y-85075162D01*
X127221601Y-85059739D01*
X126571599Y-85059739D01*
X126415008Y-85075162D01*
X126264434Y-85120838D01*
X126125665Y-85195012D01*
X126004033Y-85294833D01*
X125904212Y-85416465D01*
X125830038Y-85555234D01*
X125784362Y-85705808D01*
X125768939Y-85862399D01*
X125768939Y-87162401D01*
X125784362Y-87318992D01*
X125830038Y-87469566D01*
X125904212Y-87608335D01*
X126004033Y-87729967D01*
X126125665Y-87829788D01*
X126240116Y-87890964D01*
X126269964Y-87989360D01*
X126332642Y-88106623D01*
X126332643Y-88106624D01*
X126395856Y-88183650D01*
X126395863Y-88183657D01*
X126416994Y-88209405D01*
X126442744Y-88230538D01*
X126691206Y-88479000D01*
X126626752Y-88479000D01*
X126593600Y-88475735D01*
X126560448Y-88479000D01*
X126560441Y-88479000D01*
X126473792Y-88487534D01*
X126461276Y-88488767D01*
X126344868Y-88524079D01*
X126334039Y-88527364D01*
X126216776Y-88590042D01*
X126216774Y-88590043D01*
X126216775Y-88590043D01*
X126140549Y-88652601D01*
X126113994Y-88674394D01*
X126092858Y-88700148D01*
X123570806Y-91222200D01*
X123368755Y-91222200D01*
X123367600Y-91065700D01*
X123203100Y-90901200D01*
X122213600Y-90901200D01*
X122213600Y-90921200D01*
X122005600Y-90921200D01*
X122005600Y-90901200D01*
X121985600Y-90901200D01*
X121985600Y-90693200D01*
X122005600Y-90693200D01*
X122005600Y-89603700D01*
X122213600Y-89603700D01*
X122213600Y-90693200D01*
X123203100Y-90693200D01*
X123367600Y-90528700D01*
X123370784Y-90097200D01*
X123358080Y-89968209D01*
X123320454Y-89844176D01*
X123259354Y-89729866D01*
X123177128Y-89629672D01*
X123076934Y-89547446D01*
X122962624Y-89486346D01*
X122838591Y-89448720D01*
X122709600Y-89436016D01*
X122378100Y-89439200D01*
X122213600Y-89603700D01*
X122005600Y-89603700D01*
X121841100Y-89439200D01*
X121509600Y-89436016D01*
X121380609Y-89448720D01*
X121256576Y-89486346D01*
X121142266Y-89547446D01*
X121128699Y-89558580D01*
X121117419Y-89555158D01*
X121084600Y-89551926D01*
X121084600Y-89247969D01*
X121166466Y-89315154D01*
X121280776Y-89376254D01*
X121404809Y-89413880D01*
X121533800Y-89426584D01*
X121715300Y-89423400D01*
X121879800Y-89258900D01*
X121879800Y-88394400D01*
X122087800Y-88394400D01*
X122087800Y-89258900D01*
X122252300Y-89423400D01*
X122433800Y-89426584D01*
X122562791Y-89413880D01*
X122686824Y-89376254D01*
X122801134Y-89315154D01*
X122901328Y-89232928D01*
X122983554Y-89132734D01*
X123044654Y-89018424D01*
X123082280Y-88894391D01*
X123094984Y-88765400D01*
X123091800Y-88558900D01*
X122927300Y-88394400D01*
X122087800Y-88394400D01*
X121879800Y-88394400D01*
X121859800Y-88394400D01*
X121859800Y-88186400D01*
X121879800Y-88186400D01*
X121879800Y-87321900D01*
X122087800Y-87321900D01*
X122087800Y-88186400D01*
X122927300Y-88186400D01*
X123091800Y-88021900D01*
X123094984Y-87815400D01*
X123082280Y-87686409D01*
X123044654Y-87562376D01*
X122983554Y-87448066D01*
X122901328Y-87347872D01*
X122801134Y-87265646D01*
X122686824Y-87204546D01*
X122562791Y-87166920D01*
X122433800Y-87154216D01*
X122252300Y-87157400D01*
X122087800Y-87321900D01*
X121879800Y-87321900D01*
X121715300Y-87157400D01*
X121533800Y-87154216D01*
X121404809Y-87166920D01*
X121280776Y-87204546D01*
X121166466Y-87265646D01*
X121066272Y-87347872D01*
X121047566Y-87370666D01*
X120956398Y-87321935D01*
X120810514Y-87277682D01*
X120658800Y-87262739D01*
X120208800Y-87262739D01*
X120057086Y-87277682D01*
X119911202Y-87321935D01*
X119776755Y-87393799D01*
X119658911Y-87490511D01*
X119562199Y-87608355D01*
X119490335Y-87742802D01*
X119446082Y-87888686D01*
X119431139Y-88040400D01*
X119431139Y-88540400D01*
X119446082Y-88692114D01*
X119490335Y-88837998D01*
X119562199Y-88972445D01*
X119658911Y-89090289D01*
X119734601Y-89152406D01*
X119734601Y-89551926D01*
X119701781Y-89555158D01*
X119598106Y-89586608D01*
X119502558Y-89637679D01*
X119418810Y-89706410D01*
X119350079Y-89790158D01*
X119299008Y-89885706D01*
X119267558Y-89989381D01*
X119256939Y-90097200D01*
X119256939Y-91497200D01*
X119267558Y-91605019D01*
X119299008Y-91708694D01*
X119350079Y-91804242D01*
X119359327Y-91815511D01*
X119342072Y-91829672D01*
X119259846Y-91929866D01*
X119198746Y-92044176D01*
X119161120Y-92168209D01*
X119148416Y-92297200D01*
X119151600Y-92728700D01*
X119316100Y-92893200D01*
X120305600Y-92893200D01*
X120305600Y-92873200D01*
X120513600Y-92873200D01*
X120513600Y-92893200D01*
X120533600Y-92893200D01*
X120533600Y-93101200D01*
X120513600Y-93101200D01*
X120513600Y-94190700D01*
X120678100Y-94355200D01*
X121009600Y-94358384D01*
X121138591Y-94345680D01*
X121262624Y-94308054D01*
X121376934Y-94246954D01*
X121390501Y-94235820D01*
X121401781Y-94239242D01*
X121421364Y-94241171D01*
X121407965Y-94266239D01*
X121369367Y-94393477D01*
X121356335Y-94525800D01*
X121359601Y-94558962D01*
X121359601Y-94932971D01*
X121301934Y-94885646D01*
X121187624Y-94824546D01*
X121063591Y-94786920D01*
X120934600Y-94774216D01*
X120753100Y-94777400D01*
X120588600Y-94941900D01*
X120588600Y-95806400D01*
X120608600Y-95806400D01*
X120608600Y-96014400D01*
X120588600Y-96014400D01*
X120588600Y-96034400D01*
X120380600Y-96034400D01*
X120380600Y-96014400D01*
X120360600Y-96014400D01*
X120360600Y-95806400D01*
X120380600Y-95806400D01*
X120380600Y-94941900D01*
X120216100Y-94777400D01*
X120034600Y-94774216D01*
X119905609Y-94786920D01*
X119851800Y-94803243D01*
X119851800Y-94521151D01*
X119855065Y-94487999D01*
X119851800Y-94454847D01*
X119851800Y-94454841D01*
X119842269Y-94358070D01*
X120141100Y-94355200D01*
X120305600Y-94190700D01*
X120305600Y-93101200D01*
X119316100Y-93101200D01*
X119151600Y-93265700D01*
X119149824Y-93506430D01*
X116223142Y-90579748D01*
X116202006Y-90553994D01*
X116099224Y-90469642D01*
X115981961Y-90406964D01*
X115957491Y-90399541D01*
X115959061Y-90383601D01*
X115959061Y-89858599D01*
X115943638Y-89702008D01*
X115897962Y-89551434D01*
X115823788Y-89412665D01*
X115723967Y-89291033D01*
X115602335Y-89191212D01*
X115463566Y-89117038D01*
X115312992Y-89071362D01*
X115156401Y-89055939D01*
X114322556Y-89055939D01*
X114373962Y-88959766D01*
X114419638Y-88809192D01*
X114435061Y-88652601D01*
X114435061Y-88127599D01*
X114419638Y-87971008D01*
X114373962Y-87820434D01*
X114299788Y-87681665D01*
X114199967Y-87560033D01*
X114099522Y-87477600D01*
X114199967Y-87395167D01*
X114299788Y-87273535D01*
X114373962Y-87134766D01*
X114419638Y-86984192D01*
X114435061Y-86827601D01*
X114435061Y-86302599D01*
X114419638Y-86146008D01*
X114373962Y-85995434D01*
X114352732Y-85955716D01*
X114503749Y-85822386D01*
X114547269Y-85786670D01*
X114577204Y-85750195D01*
X114609356Y-85715636D01*
X114620855Y-85697005D01*
X114634745Y-85680081D01*
X114656996Y-85638453D01*
X114681780Y-85598299D01*
X114689422Y-85577788D01*
X114699745Y-85558475D01*
X114713449Y-85513299D01*
X114729921Y-85469088D01*
X114733414Y-85447482D01*
X114739772Y-85426524D01*
X114744399Y-85379547D01*
X114751930Y-85332968D01*
X114749900Y-85276696D01*
X114749900Y-84597022D01*
X114808335Y-84565788D01*
X114929967Y-84465967D01*
X115029788Y-84344335D01*
X115103962Y-84205566D01*
X115149638Y-84054992D01*
X115165061Y-83898401D01*
X115165061Y-82209000D01*
X118389143Y-82209000D01*
X118389143Y-78559000D01*
X114274857Y-78559000D01*
X114274857Y-80195739D01*
X113737399Y-80195739D01*
X113580808Y-80211162D01*
X113430234Y-80256838D01*
X113291465Y-80331012D01*
X113169833Y-80430833D01*
X113070012Y-80552465D01*
X112995838Y-80691234D01*
X112950162Y-80841808D01*
X112934739Y-80998399D01*
X112934739Y-83898401D01*
X112950162Y-84054992D01*
X112995838Y-84205566D01*
X113070012Y-84344335D01*
X113169833Y-84465967D01*
X113291465Y-84565788D01*
X113349900Y-84597022D01*
X113349900Y-84973537D01*
X112753670Y-85499939D01*
X112732399Y-85499939D01*
X112575808Y-85515362D01*
X112425234Y-85561038D01*
X112286465Y-85635212D01*
X112164833Y-85735033D01*
X112065012Y-85856665D01*
X111990838Y-85995434D01*
X111945162Y-86146008D01*
X111929739Y-86302599D01*
X111929739Y-86827601D01*
X111945162Y-86984192D01*
X111990838Y-87134766D01*
X112065012Y-87273535D01*
X112164833Y-87395167D01*
X112265278Y-87477600D01*
X112164833Y-87560033D01*
X112065012Y-87681665D01*
X112030897Y-87745488D01*
X111118831Y-87790020D01*
X111101500Y-87788313D01*
X111050097Y-87793376D01*
X111033015Y-87794210D01*
X111015884Y-87796746D01*
X110964276Y-87801829D01*
X110947818Y-87806822D01*
X110930797Y-87809341D01*
X110881963Y-87826798D01*
X110832325Y-87841855D01*
X110817147Y-87849968D01*
X110800955Y-87855756D01*
X110756484Y-87882393D01*
X110710718Y-87906855D01*
X110697413Y-87917774D01*
X110682663Y-87926609D01*
X110644228Y-87961423D01*
X110630843Y-87972408D01*
X110618753Y-87984498D01*
X110580467Y-88019177D01*
X110570087Y-88033164D01*
X110197742Y-88405509D01*
X110171031Y-88427430D01*
X110149110Y-88454141D01*
X110149108Y-88454143D01*
X110083555Y-88534019D01*
X110018555Y-88655626D01*
X110007696Y-88691424D01*
X109978528Y-88787576D01*
X109969215Y-88882134D01*
X109965013Y-88924800D01*
X109968400Y-88959187D01*
X109968400Y-88980939D01*
X109860581Y-88991558D01*
X109756906Y-89023008D01*
X109661358Y-89074079D01*
X109577610Y-89142810D01*
X109508879Y-89226558D01*
X109457808Y-89322106D01*
X109426358Y-89425781D01*
X109415739Y-89533600D01*
X109415739Y-89933600D01*
X109426358Y-90041419D01*
X109431570Y-90058600D01*
X109426358Y-90075781D01*
X109415739Y-90183600D01*
X109415739Y-90583600D01*
X109426358Y-90691419D01*
X109431570Y-90708600D01*
X109426358Y-90725781D01*
X109415739Y-90833600D01*
X109415739Y-91233600D01*
X109426358Y-91341419D01*
X109431570Y-91358600D01*
X109426358Y-91375781D01*
X109415739Y-91483600D01*
X109415739Y-91772534D01*
X109359343Y-91876278D01*
X109321061Y-91999350D01*
X109321061Y-91283600D01*
X109310442Y-91175781D01*
X109278992Y-91072106D01*
X109258410Y-91033600D01*
X109278992Y-90995094D01*
X109310442Y-90891419D01*
X109321061Y-90783600D01*
X109321061Y-88983600D01*
X109310442Y-88875781D01*
X109278992Y-88772106D01*
X109245048Y-88708600D01*
X109278992Y-88645094D01*
X109310442Y-88541419D01*
X109321061Y-88433600D01*
X109321061Y-86133600D01*
X109310442Y-86025781D01*
X109278992Y-85922106D01*
X109227921Y-85826558D01*
X109159190Y-85742810D01*
X109075442Y-85674079D01*
X108979894Y-85623008D01*
X108876219Y-85591558D01*
X108768400Y-85580939D01*
X107001000Y-85580939D01*
X107001000Y-72624000D01*
X109086816Y-72624000D01*
X109099520Y-72752991D01*
X109137146Y-72877024D01*
X109198246Y-72991334D01*
X109280472Y-73091528D01*
X109380666Y-73173754D01*
X109494976Y-73234854D01*
X109619009Y-73272480D01*
X109748000Y-73285184D01*
X110729500Y-73282000D01*
X110894000Y-73117500D01*
X110894000Y-71478000D01*
X111102000Y-71478000D01*
X111102000Y-73117500D01*
X111266500Y-73282000D01*
X112248000Y-73285184D01*
X112376991Y-73272480D01*
X112501024Y-73234854D01*
X112615334Y-73173754D01*
X112715528Y-73091528D01*
X112797754Y-72991334D01*
X112858854Y-72877024D01*
X112878943Y-72810800D01*
X117310816Y-72810800D01*
X117323520Y-72939791D01*
X117361146Y-73063824D01*
X117422246Y-73178134D01*
X117504472Y-73278328D01*
X117604666Y-73360554D01*
X117718976Y-73421654D01*
X117843009Y-73459280D01*
X117972000Y-73471984D01*
X118603500Y-73468800D01*
X118768000Y-73304300D01*
X118768000Y-72339800D01*
X118976000Y-72339800D01*
X118976000Y-73304300D01*
X119140500Y-73468800D01*
X119772000Y-73471984D01*
X119900991Y-73459280D01*
X120025024Y-73421654D01*
X120139334Y-73360554D01*
X120239528Y-73278328D01*
X120321754Y-73178134D01*
X120382854Y-73063824D01*
X120420480Y-72939791D01*
X120433184Y-72810800D01*
X120968416Y-72810800D01*
X120981120Y-72939791D01*
X121018746Y-73063824D01*
X121079846Y-73178134D01*
X121162072Y-73278328D01*
X121262266Y-73360554D01*
X121376576Y-73421654D01*
X121500609Y-73459280D01*
X121629600Y-73471984D01*
X122261100Y-73468800D01*
X122425600Y-73304300D01*
X122425600Y-72339800D01*
X122633600Y-72339800D01*
X122633600Y-73304300D01*
X122798100Y-73468800D01*
X123429600Y-73471984D01*
X123558591Y-73459280D01*
X123682624Y-73421654D01*
X123796934Y-73360554D01*
X123897128Y-73278328D01*
X123979354Y-73178134D01*
X124040454Y-73063824D01*
X124078080Y-72939791D01*
X124090784Y-72810800D01*
X124087600Y-72504300D01*
X123923100Y-72339800D01*
X122633600Y-72339800D01*
X122425600Y-72339800D01*
X121136100Y-72339800D01*
X120971600Y-72504300D01*
X120968416Y-72810800D01*
X120433184Y-72810800D01*
X120430000Y-72504300D01*
X120265500Y-72339800D01*
X118976000Y-72339800D01*
X118768000Y-72339800D01*
X117478500Y-72339800D01*
X117314000Y-72504300D01*
X117310816Y-72810800D01*
X112878943Y-72810800D01*
X112896480Y-72752991D01*
X112909184Y-72624000D01*
X112906000Y-71642500D01*
X112741500Y-71478000D01*
X111102000Y-71478000D01*
X110894000Y-71478000D01*
X109254500Y-71478000D01*
X109090000Y-71642500D01*
X109086816Y-72624000D01*
X107001000Y-72624000D01*
X107001000Y-70124000D01*
X109086816Y-70124000D01*
X109090000Y-71105500D01*
X109254500Y-71270000D01*
X110894000Y-71270000D01*
X110894000Y-69630500D01*
X111102000Y-69630500D01*
X111102000Y-71270000D01*
X112741500Y-71270000D01*
X112906000Y-71105500D01*
X112909184Y-70124000D01*
X112896480Y-69995009D01*
X112858854Y-69870976D01*
X112797754Y-69756666D01*
X112715528Y-69656472D01*
X112615334Y-69574246D01*
X112501024Y-69513146D01*
X112376991Y-69475520D01*
X112248000Y-69462816D01*
X111266500Y-69466000D01*
X111102000Y-69630500D01*
X110894000Y-69630500D01*
X110729500Y-69466000D01*
X109748000Y-69462816D01*
X109619009Y-69475520D01*
X109494976Y-69513146D01*
X109380666Y-69574246D01*
X109280472Y-69656472D01*
X109198246Y-69756666D01*
X109137146Y-69870976D01*
X109099520Y-69995009D01*
X109086816Y-70124000D01*
X107001000Y-70124000D01*
X107001000Y-67383000D01*
X115632286Y-67383000D01*
X115632286Y-71033000D01*
X117774838Y-71033000D01*
X117718976Y-71049946D01*
X117604666Y-71111046D01*
X117504472Y-71193272D01*
X117422246Y-71293466D01*
X117361146Y-71407776D01*
X117323520Y-71531809D01*
X117310816Y-71660800D01*
X117314000Y-71967300D01*
X117478500Y-72131800D01*
X118768000Y-72131800D01*
X118768000Y-72111800D01*
X118976000Y-72111800D01*
X118976000Y-72131800D01*
X120265500Y-72131800D01*
X120430000Y-71967300D01*
X120433184Y-71660800D01*
X120420480Y-71531809D01*
X120382854Y-71407776D01*
X120321754Y-71293466D01*
X120239528Y-71193272D01*
X120139334Y-71111046D01*
X120025024Y-71049946D01*
X119969162Y-71033000D01*
X121432438Y-71033000D01*
X121376576Y-71049946D01*
X121262266Y-71111046D01*
X121162072Y-71193272D01*
X121079846Y-71293466D01*
X121018746Y-71407776D01*
X120981120Y-71531809D01*
X120968416Y-71660800D01*
X120971600Y-71967300D01*
X121136100Y-72131800D01*
X122425600Y-72131800D01*
X122425600Y-71167300D01*
X122633600Y-71167300D01*
X122633600Y-72131800D01*
X123923100Y-72131800D01*
X124087600Y-71967300D01*
X124090784Y-71660800D01*
X124078080Y-71531809D01*
X124040454Y-71407776D01*
X123979354Y-71293466D01*
X123897128Y-71193272D01*
X123796934Y-71111046D01*
X123682624Y-71049946D01*
X123558591Y-71012320D01*
X123429600Y-70999616D01*
X122798100Y-71002800D01*
X122633600Y-71167300D01*
X122425600Y-71167300D01*
X122261100Y-71002800D01*
X121629600Y-70999616D01*
X121603715Y-71002165D01*
X121603715Y-70711600D01*
X125033616Y-70711600D01*
X125036800Y-71193100D01*
X125201300Y-71357600D01*
X126590800Y-71357600D01*
X126590800Y-70218100D01*
X126798800Y-70218100D01*
X126798800Y-71357600D01*
X128188300Y-71357600D01*
X128352800Y-71193100D01*
X128355984Y-70711600D01*
X128343280Y-70582609D01*
X128316279Y-70493600D01*
X128321402Y-70493600D01*
X128321402Y-70329102D01*
X128485900Y-70493600D01*
X128792400Y-70496784D01*
X128921391Y-70484080D01*
X129045424Y-70446454D01*
X129159734Y-70385354D01*
X129259928Y-70303128D01*
X129342154Y-70202934D01*
X129403254Y-70088624D01*
X129440880Y-69964591D01*
X129453584Y-69835600D01*
X129450400Y-69204100D01*
X129285900Y-69039600D01*
X128321400Y-69039600D01*
X128321400Y-69059600D01*
X128113400Y-69059600D01*
X128113400Y-69039600D01*
X127148900Y-69039600D01*
X126984400Y-69204100D01*
X126981216Y-69835600D01*
X126993920Y-69964591D01*
X127020845Y-70053350D01*
X126963300Y-70053600D01*
X126798800Y-70218100D01*
X126590800Y-70218100D01*
X126426300Y-70053600D01*
X125694800Y-70050416D01*
X125565809Y-70063120D01*
X125441776Y-70100746D01*
X125327466Y-70161846D01*
X125227272Y-70244072D01*
X125145046Y-70344266D01*
X125083946Y-70458576D01*
X125046320Y-70582609D01*
X125033616Y-70711600D01*
X121603715Y-70711600D01*
X121603715Y-68035600D01*
X126981216Y-68035600D01*
X126984400Y-68667100D01*
X127148900Y-68831600D01*
X128113400Y-68831600D01*
X128113400Y-67542100D01*
X128321400Y-67542100D01*
X128321400Y-68831600D01*
X129285900Y-68831600D01*
X129450400Y-68667100D01*
X129453584Y-68035600D01*
X129440880Y-67906609D01*
X129403254Y-67782576D01*
X129342154Y-67668266D01*
X129259928Y-67568072D01*
X129159734Y-67485846D01*
X129045424Y-67424746D01*
X128921391Y-67387120D01*
X128792400Y-67374416D01*
X128485900Y-67377600D01*
X128321400Y-67542100D01*
X128113400Y-67542100D01*
X127948900Y-67377600D01*
X127642400Y-67374416D01*
X127513409Y-67387120D01*
X127389376Y-67424746D01*
X127275066Y-67485846D01*
X127174872Y-67568072D01*
X127092646Y-67668266D01*
X127031546Y-67782576D01*
X126993920Y-67906609D01*
X126981216Y-68035600D01*
X121603715Y-68035600D01*
X121603715Y-67383000D01*
X115632286Y-67383000D01*
X107001000Y-67383000D01*
X107001000Y-66869000D01*
X135535715Y-66869000D01*
X135535715Y-69405200D01*
G37*
%TD.AperFunction*%
D25*
X137125330Y-88980701D02*
X137150378Y-89011222D01*
X137180898Y-89036269D01*
X137272193Y-89111193D01*
X137312494Y-89132734D01*
X137411172Y-89185479D01*
X137561973Y-89231224D01*
X137679507Y-89242800D01*
X137679516Y-89242800D01*
X137718799Y-89246669D01*
X137758082Y-89242800D01*
X139114630Y-89242800D01*
X140373200Y-90501371D01*
X140373200Y-90587536D01*
X140268824Y-90531746D01*
X140144791Y-90494120D01*
X140015800Y-90481416D01*
X139384300Y-90484600D01*
X139219800Y-90649100D01*
X139219800Y-91613600D01*
X139239800Y-91613600D01*
X139239800Y-91821600D01*
X139219800Y-91821600D01*
X139219800Y-92786100D01*
X139384300Y-92950600D01*
X140015800Y-92953784D01*
X140144791Y-92941080D01*
X140268824Y-92903454D01*
X140373200Y-92847664D01*
X140373201Y-93823570D01*
X140333367Y-93775033D01*
X140211735Y-93675212D01*
X140072966Y-93601038D01*
X139922392Y-93555362D01*
X139765801Y-93539939D01*
X138465799Y-93539939D01*
X138309208Y-93555362D01*
X138158634Y-93601038D01*
X138019865Y-93675212D01*
X137898233Y-93775033D01*
X137798412Y-93896665D01*
X137724238Y-94035434D01*
X137678562Y-94186008D01*
X137663139Y-94342599D01*
X137663139Y-94967600D01*
X136945861Y-94967600D01*
X136945861Y-94842600D01*
X136932360Y-94705518D01*
X136892374Y-94573703D01*
X136827441Y-94452222D01*
X136740056Y-94345744D01*
X136633578Y-94258359D01*
X136512097Y-94193426D01*
X136380282Y-94153440D01*
X136243200Y-94139939D01*
X135943200Y-94139939D01*
X135806118Y-94153440D01*
X135674303Y-94193426D01*
X135552822Y-94258359D01*
X135458200Y-94336014D01*
X135363578Y-94258359D01*
X135242097Y-94193426D01*
X135110282Y-94153440D01*
X134973200Y-94139939D01*
X134673200Y-94139939D01*
X134536118Y-94153440D01*
X134404303Y-94193426D01*
X134282822Y-94258359D01*
X134188200Y-94336014D01*
X134093578Y-94258359D01*
X133972097Y-94193426D01*
X133840282Y-94153440D01*
X133703200Y-94139939D01*
X133403200Y-94139939D01*
X133266118Y-94153440D01*
X133134303Y-94193426D01*
X133012822Y-94258359D01*
X132918200Y-94336014D01*
X132823578Y-94258359D01*
X132702097Y-94193426D01*
X132570282Y-94153440D01*
X132433200Y-94139939D01*
X132133200Y-94139939D01*
X131996118Y-94153440D01*
X131864303Y-94193426D01*
X131742822Y-94258359D01*
X131648200Y-94336014D01*
X131553578Y-94258359D01*
X131432097Y-94193426D01*
X131300282Y-94153440D01*
X131163200Y-94139939D01*
X130863200Y-94139939D01*
X130726118Y-94153440D01*
X130594303Y-94193426D01*
X130472822Y-94258359D01*
X130378200Y-94336014D01*
X130283578Y-94258359D01*
X130162097Y-94193426D01*
X130030282Y-94153440D01*
X129893200Y-94139939D01*
X129877455Y-94139939D01*
X131467052Y-92550342D01*
X131492806Y-92529206D01*
X131523177Y-92492200D01*
X131577157Y-92426425D01*
X131582861Y-92415755D01*
X131639836Y-92309161D01*
X131650495Y-92274024D01*
X131678433Y-92181924D01*
X131683897Y-92126445D01*
X131688200Y-92082759D01*
X131688200Y-92082752D01*
X131688267Y-92082069D01*
X131742822Y-92126841D01*
X131864303Y-92191774D01*
X131996118Y-92231760D01*
X132133200Y-92245261D01*
X132433200Y-92245261D01*
X132570282Y-92231760D01*
X132702097Y-92191774D01*
X132823578Y-92126841D01*
X132918200Y-92049186D01*
X133012822Y-92126841D01*
X133134303Y-92191774D01*
X133266118Y-92231760D01*
X133403200Y-92245261D01*
X133703200Y-92245261D01*
X133840282Y-92231760D01*
X133972097Y-92191774D01*
X134093578Y-92126841D01*
X134188200Y-92049186D01*
X134282822Y-92126841D01*
X134404303Y-92191774D01*
X134536118Y-92231760D01*
X134673200Y-92245261D01*
X134973200Y-92245261D01*
X135110282Y-92231760D01*
X135242097Y-92191774D01*
X135318242Y-92151074D01*
X135325672Y-92160128D01*
X135425866Y-92242354D01*
X135540176Y-92303454D01*
X135664209Y-92341080D01*
X135793200Y-92353784D01*
X135824700Y-92350600D01*
X135989200Y-92186100D01*
X135989200Y-90821600D01*
X136197200Y-90821600D01*
X136197200Y-92186100D01*
X136361700Y-92350600D01*
X136393200Y-92353784D01*
X136522191Y-92341080D01*
X136646224Y-92303454D01*
X136666530Y-92292600D01*
X137554616Y-92292600D01*
X137567320Y-92421591D01*
X137604946Y-92545624D01*
X137666046Y-92659934D01*
X137748272Y-92760128D01*
X137848466Y-92842354D01*
X137962776Y-92903454D01*
X138086809Y-92941080D01*
X138215800Y-92953784D01*
X138847300Y-92950600D01*
X139011800Y-92786100D01*
X139011800Y-91821600D01*
X137722300Y-91821600D01*
X137557800Y-91986100D01*
X137554616Y-92292600D01*
X136666530Y-92292600D01*
X136760534Y-92242354D01*
X136860728Y-92160128D01*
X136942954Y-92059934D01*
X137004054Y-91945624D01*
X137041680Y-91821591D01*
X137054384Y-91692600D01*
X137051906Y-91142600D01*
X137554616Y-91142600D01*
X137557800Y-91449100D01*
X137722300Y-91613600D01*
X139011800Y-91613600D01*
X139011800Y-90649100D01*
X138847300Y-90484600D01*
X138215800Y-90481416D01*
X138086809Y-90494120D01*
X137962776Y-90531746D01*
X137848466Y-90592846D01*
X137748272Y-90675072D01*
X137666046Y-90775266D01*
X137604946Y-90889576D01*
X137567320Y-91013609D01*
X137554616Y-91142600D01*
X137051906Y-91142600D01*
X137051200Y-90986100D01*
X136886700Y-90821600D01*
X136197200Y-90821600D01*
X135989200Y-90821600D01*
X135969200Y-90821600D01*
X135969200Y-90613600D01*
X135989200Y-90613600D01*
X135989200Y-89249100D01*
X136197200Y-89249100D01*
X136197200Y-90613600D01*
X136886700Y-90613600D01*
X137051200Y-90449100D01*
X137054384Y-89742600D01*
X137041680Y-89613609D01*
X137004054Y-89489576D01*
X136942954Y-89375266D01*
X136860728Y-89275072D01*
X136760534Y-89192846D01*
X136646224Y-89131746D01*
X136522191Y-89094120D01*
X136393200Y-89081416D01*
X136361700Y-89084600D01*
X136197200Y-89249100D01*
X135989200Y-89249100D01*
X135824700Y-89084600D01*
X135793200Y-89081416D01*
X135664209Y-89094120D01*
X135540176Y-89131746D01*
X135498200Y-89154183D01*
X135498200Y-88620794D01*
X135837757Y-88281237D01*
X135863505Y-88260106D01*
X135884638Y-88234356D01*
X135884644Y-88234350D01*
X135927379Y-88182277D01*
X135947858Y-88157324D01*
X136010536Y-88040061D01*
X136031483Y-87971008D01*
X136049133Y-87912824D01*
X136049879Y-87905249D01*
X137125330Y-88980701D01*
%TA.AperFunction,Conductor*%
D27*
G36*
X137125330Y-88980701D02*
G01*
X137150378Y-89011222D01*
X137180898Y-89036269D01*
X137272193Y-89111193D01*
X137312494Y-89132734D01*
X137411172Y-89185479D01*
X137561973Y-89231224D01*
X137679507Y-89242800D01*
X137679516Y-89242800D01*
X137718799Y-89246669D01*
X137758082Y-89242800D01*
X139114630Y-89242800D01*
X140373200Y-90501371D01*
X140373200Y-90587536D01*
X140268824Y-90531746D01*
X140144791Y-90494120D01*
X140015800Y-90481416D01*
X139384300Y-90484600D01*
X139219800Y-90649100D01*
X139219800Y-91613600D01*
X139239800Y-91613600D01*
X139239800Y-91821600D01*
X139219800Y-91821600D01*
X139219800Y-92786100D01*
X139384300Y-92950600D01*
X140015800Y-92953784D01*
X140144791Y-92941080D01*
X140268824Y-92903454D01*
X140373200Y-92847664D01*
X140373201Y-93823570D01*
X140333367Y-93775033D01*
X140211735Y-93675212D01*
X140072966Y-93601038D01*
X139922392Y-93555362D01*
X139765801Y-93539939D01*
X138465799Y-93539939D01*
X138309208Y-93555362D01*
X138158634Y-93601038D01*
X138019865Y-93675212D01*
X137898233Y-93775033D01*
X137798412Y-93896665D01*
X137724238Y-94035434D01*
X137678562Y-94186008D01*
X137663139Y-94342599D01*
X137663139Y-94967600D01*
X136945861Y-94967600D01*
X136945861Y-94842600D01*
X136932360Y-94705518D01*
X136892374Y-94573703D01*
X136827441Y-94452222D01*
X136740056Y-94345744D01*
X136633578Y-94258359D01*
X136512097Y-94193426D01*
X136380282Y-94153440D01*
X136243200Y-94139939D01*
X135943200Y-94139939D01*
X135806118Y-94153440D01*
X135674303Y-94193426D01*
X135552822Y-94258359D01*
X135458200Y-94336014D01*
X135363578Y-94258359D01*
X135242097Y-94193426D01*
X135110282Y-94153440D01*
X134973200Y-94139939D01*
X134673200Y-94139939D01*
X134536118Y-94153440D01*
X134404303Y-94193426D01*
X134282822Y-94258359D01*
X134188200Y-94336014D01*
X134093578Y-94258359D01*
X133972097Y-94193426D01*
X133840282Y-94153440D01*
X133703200Y-94139939D01*
X133403200Y-94139939D01*
X133266118Y-94153440D01*
X133134303Y-94193426D01*
X133012822Y-94258359D01*
X132918200Y-94336014D01*
X132823578Y-94258359D01*
X132702097Y-94193426D01*
X132570282Y-94153440D01*
X132433200Y-94139939D01*
X132133200Y-94139939D01*
X131996118Y-94153440D01*
X131864303Y-94193426D01*
X131742822Y-94258359D01*
X131648200Y-94336014D01*
X131553578Y-94258359D01*
X131432097Y-94193426D01*
X131300282Y-94153440D01*
X131163200Y-94139939D01*
X130863200Y-94139939D01*
X130726118Y-94153440D01*
X130594303Y-94193426D01*
X130472822Y-94258359D01*
X130378200Y-94336014D01*
X130283578Y-94258359D01*
X130162097Y-94193426D01*
X130030282Y-94153440D01*
X129893200Y-94139939D01*
X129877455Y-94139939D01*
X131467052Y-92550342D01*
X131492806Y-92529206D01*
X131523177Y-92492200D01*
X131577157Y-92426425D01*
X131582861Y-92415755D01*
X131639836Y-92309161D01*
X131650495Y-92274024D01*
X131678433Y-92181924D01*
X131683897Y-92126445D01*
X131688200Y-92082759D01*
X131688200Y-92082752D01*
X131688267Y-92082069D01*
X131742822Y-92126841D01*
X131864303Y-92191774D01*
X131996118Y-92231760D01*
X132133200Y-92245261D01*
X132433200Y-92245261D01*
X132570282Y-92231760D01*
X132702097Y-92191774D01*
X132823578Y-92126841D01*
X132918200Y-92049186D01*
X133012822Y-92126841D01*
X133134303Y-92191774D01*
X133266118Y-92231760D01*
X133403200Y-92245261D01*
X133703200Y-92245261D01*
X133840282Y-92231760D01*
X133972097Y-92191774D01*
X134093578Y-92126841D01*
X134188200Y-92049186D01*
X134282822Y-92126841D01*
X134404303Y-92191774D01*
X134536118Y-92231760D01*
X134673200Y-92245261D01*
X134973200Y-92245261D01*
X135110282Y-92231760D01*
X135242097Y-92191774D01*
X135318242Y-92151074D01*
X135325672Y-92160128D01*
X135425866Y-92242354D01*
X135540176Y-92303454D01*
X135664209Y-92341080D01*
X135793200Y-92353784D01*
X135824700Y-92350600D01*
X135989200Y-92186100D01*
X135989200Y-90821600D01*
X136197200Y-90821600D01*
X136197200Y-92186100D01*
X136361700Y-92350600D01*
X136393200Y-92353784D01*
X136522191Y-92341080D01*
X136646224Y-92303454D01*
X136666530Y-92292600D01*
X137554616Y-92292600D01*
X137567320Y-92421591D01*
X137604946Y-92545624D01*
X137666046Y-92659934D01*
X137748272Y-92760128D01*
X137848466Y-92842354D01*
X137962776Y-92903454D01*
X138086809Y-92941080D01*
X138215800Y-92953784D01*
X138847300Y-92950600D01*
X139011800Y-92786100D01*
X139011800Y-91821600D01*
X137722300Y-91821600D01*
X137557800Y-91986100D01*
X137554616Y-92292600D01*
X136666530Y-92292600D01*
X136760534Y-92242354D01*
X136860728Y-92160128D01*
X136942954Y-92059934D01*
X137004054Y-91945624D01*
X137041680Y-91821591D01*
X137054384Y-91692600D01*
X137051906Y-91142600D01*
X137554616Y-91142600D01*
X137557800Y-91449100D01*
X137722300Y-91613600D01*
X139011800Y-91613600D01*
X139011800Y-90649100D01*
X138847300Y-90484600D01*
X138215800Y-90481416D01*
X138086809Y-90494120D01*
X137962776Y-90531746D01*
X137848466Y-90592846D01*
X137748272Y-90675072D01*
X137666046Y-90775266D01*
X137604946Y-90889576D01*
X137567320Y-91013609D01*
X137554616Y-91142600D01*
X137051906Y-91142600D01*
X137051200Y-90986100D01*
X136886700Y-90821600D01*
X136197200Y-90821600D01*
X135989200Y-90821600D01*
X135969200Y-90821600D01*
X135969200Y-90613600D01*
X135989200Y-90613600D01*
X135989200Y-89249100D01*
X136197200Y-89249100D01*
X136197200Y-90613600D01*
X136886700Y-90613600D01*
X137051200Y-90449100D01*
X137054384Y-89742600D01*
X137041680Y-89613609D01*
X137004054Y-89489576D01*
X136942954Y-89375266D01*
X136860728Y-89275072D01*
X136760534Y-89192846D01*
X136646224Y-89131746D01*
X136522191Y-89094120D01*
X136393200Y-89081416D01*
X136361700Y-89084600D01*
X136197200Y-89249100D01*
X135989200Y-89249100D01*
X135824700Y-89084600D01*
X135793200Y-89081416D01*
X135664209Y-89094120D01*
X135540176Y-89131746D01*
X135498200Y-89154183D01*
X135498200Y-88620794D01*
X135837757Y-88281237D01*
X135863505Y-88260106D01*
X135884638Y-88234356D01*
X135884644Y-88234350D01*
X135927379Y-88182277D01*
X135947858Y-88157324D01*
X136010536Y-88040061D01*
X136031483Y-87971008D01*
X136049133Y-87912824D01*
X136049879Y-87905249D01*
X137125330Y-88980701D01*
G37*
%TD.AperFunction*%
D25*
X109420898Y-92229598D02*
X109321061Y-92229598D01*
X109321061Y-92129761D01*
X109420898Y-92229598D01*
%TA.AperFunction,Conductor*%
D27*
G36*
X109420898Y-92229598D02*
G01*
X109321061Y-92229598D01*
X109321061Y-92129761D01*
X109420898Y-92229598D01*
G37*
%TD.AperFunction*%
%TD*%
M02*
