%TF.GenerationSoftware,KiCad,Pcbnew,(5.1.7)-1*%
%TF.CreationDate,2020-11-23T17:16:41+01:00*%
%TF.ProjectId,control,636f6e74-726f-46c2-9e6b-696361645f70,rev?*%
%TF.SameCoordinates,Original*%
%TF.FileFunction,Soldermask,Bot*%
%TF.FilePolarity,Negative*%
%FSLAX46Y46*%
G04 Gerber Fmt 4.6, Leading zero omitted, Abs format (unit mm)*
G04 Created by KiCad (PCBNEW (5.1.7)-1) date 2020-11-23 17:16:41*
%MOMM*%
%LPD*%
G01*
G04 APERTURE LIST*
%ADD10R,0.450000X1.750000*%
%ADD11C,0.100000*%
%ADD12R,2.500000X2.500000*%
%ADD13C,2.500000*%
%ADD14R,1.700000X1.700000*%
%ADD15O,1.700000X1.700000*%
%ADD16R,1.400000X1.200000*%
G04 APERTURE END LIST*
D10*
%TO.C,U3*%
X157776200Y-81794800D03*
X158426200Y-81794800D03*
X159076200Y-81794800D03*
X159726200Y-81794800D03*
X160376200Y-81794800D03*
X161026200Y-81794800D03*
X161676200Y-81794800D03*
X162326200Y-81794800D03*
X162976200Y-81794800D03*
X163626200Y-81794800D03*
X164276200Y-81794800D03*
X164926200Y-81794800D03*
X165576200Y-81794800D03*
X166226200Y-81794800D03*
X166226200Y-88994800D03*
X165576200Y-88994800D03*
X164926200Y-88994800D03*
X164276200Y-88994800D03*
X163626200Y-88994800D03*
X162976200Y-88994800D03*
X162326200Y-88994800D03*
X161676200Y-88994800D03*
X161026200Y-88994800D03*
X160376200Y-88994800D03*
X159726200Y-88994800D03*
X159076200Y-88994800D03*
X158426200Y-88994800D03*
X157776200Y-88994800D03*
%TD*%
D11*
%TO.C,U2*%
G36*
X118968757Y-86538264D02*
G01*
X119357666Y-86149355D01*
X120489037Y-87280726D01*
X120100128Y-87669635D01*
X118968757Y-86538264D01*
G37*
G36*
X119534443Y-85972579D02*
G01*
X119923352Y-85583670D01*
X121054723Y-86715041D01*
X120665814Y-87103950D01*
X119534443Y-85972579D01*
G37*
G36*
X120100128Y-85406893D02*
G01*
X120489037Y-85017984D01*
X121620408Y-86149355D01*
X121231499Y-86538264D01*
X120100128Y-85406893D01*
G37*
G36*
X120665813Y-84841208D02*
G01*
X121054722Y-84452299D01*
X122186093Y-85583670D01*
X121797184Y-85972579D01*
X120665813Y-84841208D01*
G37*
G36*
X121231499Y-84275522D02*
G01*
X121620408Y-83886613D01*
X122751779Y-85017984D01*
X122362870Y-85406893D01*
X121231499Y-84275522D01*
G37*
G36*
X121797184Y-83709837D02*
G01*
X122186093Y-83320928D01*
X123317464Y-84452299D01*
X122928555Y-84841208D01*
X121797184Y-83709837D01*
G37*
G36*
X122362870Y-83144152D02*
G01*
X122751779Y-82755243D01*
X123883150Y-83886614D01*
X123494241Y-84275523D01*
X122362870Y-83144152D01*
G37*
G36*
X122928555Y-82578466D02*
G01*
X123317464Y-82189557D01*
X124448835Y-83320928D01*
X124059926Y-83709837D01*
X122928555Y-82578466D01*
G37*
G36*
X126110536Y-82189557D02*
G01*
X126499445Y-82578466D01*
X125368074Y-83709837D01*
X124979165Y-83320928D01*
X126110536Y-82189557D01*
G37*
G36*
X126676221Y-82755243D02*
G01*
X127065130Y-83144152D01*
X125933759Y-84275523D01*
X125544850Y-83886614D01*
X126676221Y-82755243D01*
G37*
G36*
X127241907Y-83320928D02*
G01*
X127630816Y-83709837D01*
X126499445Y-84841208D01*
X126110536Y-84452299D01*
X127241907Y-83320928D01*
G37*
G36*
X127807592Y-83886613D02*
G01*
X128196501Y-84275522D01*
X127065130Y-85406893D01*
X126676221Y-85017984D01*
X127807592Y-83886613D01*
G37*
G36*
X128373278Y-84452299D02*
G01*
X128762187Y-84841208D01*
X127630816Y-85972579D01*
X127241907Y-85583670D01*
X128373278Y-84452299D01*
G37*
G36*
X128938963Y-85017984D02*
G01*
X129327872Y-85406893D01*
X128196501Y-86538264D01*
X127807592Y-86149355D01*
X128938963Y-85017984D01*
G37*
G36*
X129504648Y-85583670D02*
G01*
X129893557Y-85972579D01*
X128762186Y-87103950D01*
X128373277Y-86715041D01*
X129504648Y-85583670D01*
G37*
G36*
X130070334Y-86149355D02*
G01*
X130459243Y-86538264D01*
X129327872Y-87669635D01*
X128938963Y-87280726D01*
X130070334Y-86149355D01*
G37*
G36*
X128938963Y-88588874D02*
G01*
X129327872Y-88199965D01*
X130459243Y-89331336D01*
X130070334Y-89720245D01*
X128938963Y-88588874D01*
G37*
G36*
X128373277Y-89154559D02*
G01*
X128762186Y-88765650D01*
X129893557Y-89897021D01*
X129504648Y-90285930D01*
X128373277Y-89154559D01*
G37*
G36*
X127807592Y-89720245D02*
G01*
X128196501Y-89331336D01*
X129327872Y-90462707D01*
X128938963Y-90851616D01*
X127807592Y-89720245D01*
G37*
G36*
X127241907Y-90285930D02*
G01*
X127630816Y-89897021D01*
X128762187Y-91028392D01*
X128373278Y-91417301D01*
X127241907Y-90285930D01*
G37*
G36*
X126676221Y-90851616D02*
G01*
X127065130Y-90462707D01*
X128196501Y-91594078D01*
X127807592Y-91982987D01*
X126676221Y-90851616D01*
G37*
G36*
X126110536Y-91417301D02*
G01*
X126499445Y-91028392D01*
X127630816Y-92159763D01*
X127241907Y-92548672D01*
X126110536Y-91417301D01*
G37*
G36*
X125544850Y-91982986D02*
G01*
X125933759Y-91594077D01*
X127065130Y-92725448D01*
X126676221Y-93114357D01*
X125544850Y-91982986D01*
G37*
G36*
X124979165Y-92548672D02*
G01*
X125368074Y-92159763D01*
X126499445Y-93291134D01*
X126110536Y-93680043D01*
X124979165Y-92548672D01*
G37*
G36*
X124059926Y-92159763D02*
G01*
X124448835Y-92548672D01*
X123317464Y-93680043D01*
X122928555Y-93291134D01*
X124059926Y-92159763D01*
G37*
G36*
X123494241Y-91594077D02*
G01*
X123883150Y-91982986D01*
X122751779Y-93114357D01*
X122362870Y-92725448D01*
X123494241Y-91594077D01*
G37*
G36*
X122928555Y-91028392D02*
G01*
X123317464Y-91417301D01*
X122186093Y-92548672D01*
X121797184Y-92159763D01*
X122928555Y-91028392D01*
G37*
G36*
X122362870Y-90462707D02*
G01*
X122751779Y-90851616D01*
X121620408Y-91982987D01*
X121231499Y-91594078D01*
X122362870Y-90462707D01*
G37*
G36*
X121797184Y-89897021D02*
G01*
X122186093Y-90285930D01*
X121054722Y-91417301D01*
X120665813Y-91028392D01*
X121797184Y-89897021D01*
G37*
G36*
X121231499Y-89331336D02*
G01*
X121620408Y-89720245D01*
X120489037Y-90851616D01*
X120100128Y-90462707D01*
X121231499Y-89331336D01*
G37*
G36*
X120665814Y-88765650D02*
G01*
X121054723Y-89154559D01*
X119923352Y-90285930D01*
X119534443Y-89897021D01*
X120665814Y-88765650D01*
G37*
G36*
X120100128Y-88199965D02*
G01*
X120489037Y-88588874D01*
X119357666Y-89720245D01*
X118968757Y-89331336D01*
X120100128Y-88199965D01*
G37*
%TD*%
%TO.C,C7*%
G36*
G01*
X130519600Y-93126799D02*
X130519600Y-94426801D01*
G75*
G02*
X130269601Y-94676800I-249999J0D01*
G01*
X129619599Y-94676800D01*
G75*
G02*
X129369600Y-94426801I0J249999D01*
G01*
X129369600Y-93126799D01*
G75*
G02*
X129619599Y-92876800I249999J0D01*
G01*
X130269601Y-92876800D01*
G75*
G02*
X130519600Y-93126799I0J-249999D01*
G01*
G37*
G36*
G01*
X133469600Y-93126799D02*
X133469600Y-94426801D01*
G75*
G02*
X133219601Y-94676800I-249999J0D01*
G01*
X132569599Y-94676800D01*
G75*
G02*
X132319600Y-94426801I0J249999D01*
G01*
X132319600Y-93126799D01*
G75*
G02*
X132569599Y-92876800I249999J0D01*
G01*
X133219601Y-92876800D01*
G75*
G02*
X133469600Y-93126799I0J-249999D01*
G01*
G37*
%TD*%
%TO.C,C9*%
G36*
G01*
X116647199Y-80449200D02*
X117947201Y-80449200D01*
G75*
G02*
X118197200Y-80699199I0J-249999D01*
G01*
X118197200Y-81349201D01*
G75*
G02*
X117947201Y-81599200I-249999J0D01*
G01*
X116647199Y-81599200D01*
G75*
G02*
X116397200Y-81349201I0J249999D01*
G01*
X116397200Y-80699199D01*
G75*
G02*
X116647199Y-80449200I249999J0D01*
G01*
G37*
G36*
G01*
X116647199Y-83399200D02*
X117947201Y-83399200D01*
G75*
G02*
X118197200Y-83649199I0J-249999D01*
G01*
X118197200Y-84299201D01*
G75*
G02*
X117947201Y-84549200I-249999J0D01*
G01*
X116647199Y-84549200D01*
G75*
G02*
X116397200Y-84299201I0J249999D01*
G01*
X116397200Y-83649199D01*
G75*
G02*
X116647199Y-83399200I249999J0D01*
G01*
G37*
%TD*%
%TO.C,C11*%
G36*
G01*
X153985199Y-83243200D02*
X155285201Y-83243200D01*
G75*
G02*
X155535200Y-83493199I0J-249999D01*
G01*
X155535200Y-84143201D01*
G75*
G02*
X155285201Y-84393200I-249999J0D01*
G01*
X153985199Y-84393200D01*
G75*
G02*
X153735200Y-84143201I0J249999D01*
G01*
X153735200Y-83493199D01*
G75*
G02*
X153985199Y-83243200I249999J0D01*
G01*
G37*
G36*
G01*
X153985199Y-86193200D02*
X155285201Y-86193200D01*
G75*
G02*
X155535200Y-86443199I0J-249999D01*
G01*
X155535200Y-87093201D01*
G75*
G02*
X155285201Y-87343200I-249999J0D01*
G01*
X153985199Y-87343200D01*
G75*
G02*
X153735200Y-87093201I0J249999D01*
G01*
X153735200Y-86443199D01*
G75*
G02*
X153985199Y-86193200I249999J0D01*
G01*
G37*
%TD*%
D12*
%TO.C,J2*%
X110998000Y-71374000D03*
D13*
X110998000Y-76374000D03*
%TD*%
D14*
%TO.C,J3*%
X147320000Y-79095600D03*
D15*
X149860000Y-79095600D03*
X147320000Y-81635600D03*
X149860000Y-81635600D03*
X147320000Y-84175600D03*
X149860000Y-84175600D03*
%TD*%
D14*
%TO.C,J4*%
X165100000Y-94284800D03*
D15*
X165100000Y-96824800D03*
X162560000Y-94284800D03*
X162560000Y-96824800D03*
X160020000Y-94284800D03*
X160020000Y-96824800D03*
X157480000Y-94284800D03*
X157480000Y-96824800D03*
X154940000Y-94284800D03*
X154940000Y-96824800D03*
%TD*%
D14*
%TO.C,J7*%
X147370800Y-90627200D03*
D15*
X149910800Y-90627200D03*
%TD*%
D14*
%TO.C,J8*%
X155143200Y-74980800D03*
D15*
X155143200Y-72440800D03*
X157683200Y-74980800D03*
X157683200Y-72440800D03*
X160223200Y-74980800D03*
X160223200Y-72440800D03*
X162763200Y-74980800D03*
X162763200Y-72440800D03*
X165303200Y-74980800D03*
X165303200Y-72440800D03*
%TD*%
D16*
%TO.C,Y2*%
X123629600Y-76416800D03*
X121429600Y-76416800D03*
X121429600Y-78116800D03*
X123629600Y-78116800D03*
%TD*%
%TO.C,C8*%
G36*
G01*
X126843600Y-76840200D02*
X126343600Y-76840200D01*
G75*
G02*
X126118600Y-76615200I0J225000D01*
G01*
X126118600Y-76165200D01*
G75*
G02*
X126343600Y-75940200I225000J0D01*
G01*
X126843600Y-75940200D01*
G75*
G02*
X127068600Y-76165200I0J-225000D01*
G01*
X127068600Y-76615200D01*
G75*
G02*
X126843600Y-76840200I-225000J0D01*
G01*
G37*
G36*
G01*
X126843600Y-78390200D02*
X126343600Y-78390200D01*
G75*
G02*
X126118600Y-78165200I0J225000D01*
G01*
X126118600Y-77715200D01*
G75*
G02*
X126343600Y-77490200I225000J0D01*
G01*
X126843600Y-77490200D01*
G75*
G02*
X127068600Y-77715200I0J-225000D01*
G01*
X127068600Y-78165200D01*
G75*
G02*
X126843600Y-78390200I-225000J0D01*
G01*
G37*
%TD*%
%TO.C,C10*%
G36*
G01*
X118317200Y-76092600D02*
X118817200Y-76092600D01*
G75*
G02*
X119042200Y-76317600I0J-225000D01*
G01*
X119042200Y-76767600D01*
G75*
G02*
X118817200Y-76992600I-225000J0D01*
G01*
X118317200Y-76992600D01*
G75*
G02*
X118092200Y-76767600I0J225000D01*
G01*
X118092200Y-76317600D01*
G75*
G02*
X118317200Y-76092600I225000J0D01*
G01*
G37*
G36*
G01*
X118317200Y-77642600D02*
X118817200Y-77642600D01*
G75*
G02*
X119042200Y-77867600I0J-225000D01*
G01*
X119042200Y-78317600D01*
G75*
G02*
X118817200Y-78542600I-225000J0D01*
G01*
X118317200Y-78542600D01*
G75*
G02*
X118092200Y-78317600I0J225000D01*
G01*
X118092200Y-77867600D01*
G75*
G02*
X118317200Y-77642600I225000J0D01*
G01*
G37*
%TD*%
D14*
%TO.C,J5*%
X136906000Y-74930000D03*
D15*
X136906000Y-72390000D03*
X139446000Y-74930000D03*
X139446000Y-72390000D03*
X141986000Y-74930000D03*
X141986000Y-72390000D03*
%TD*%
D14*
%TO.C,J6*%
X125679200Y-99314000D03*
D15*
X123139200Y-99314000D03*
X120599200Y-99314000D03*
X118059200Y-99314000D03*
X115519200Y-99314000D03*
%TD*%
D14*
%TO.C,J9*%
X129387600Y-79197200D03*
D15*
X131927600Y-79197200D03*
X134467600Y-79197200D03*
X137007600Y-79197200D03*
X139547600Y-79197200D03*
X142087600Y-79197200D03*
%TD*%
%TO.C,R8*%
G36*
G01*
X149409999Y-94735600D02*
X150310001Y-94735600D01*
G75*
G02*
X150560000Y-94985599I0J-249999D01*
G01*
X150560000Y-95510601D01*
G75*
G02*
X150310001Y-95760600I-249999J0D01*
G01*
X149409999Y-95760600D01*
G75*
G02*
X149160000Y-95510601I0J249999D01*
G01*
X149160000Y-94985599D01*
G75*
G02*
X149409999Y-94735600I249999J0D01*
G01*
G37*
G36*
G01*
X149409999Y-92910600D02*
X150310001Y-92910600D01*
G75*
G02*
X150560000Y-93160599I0J-249999D01*
G01*
X150560000Y-93685601D01*
G75*
G02*
X150310001Y-93935600I-249999J0D01*
G01*
X149409999Y-93935600D01*
G75*
G02*
X149160000Y-93685601I0J249999D01*
G01*
X149160000Y-93160599D01*
G75*
G02*
X149409999Y-92910600I249999J0D01*
G01*
G37*
%TD*%
%TO.C,R9*%
G36*
G01*
X146869999Y-92961400D02*
X147770001Y-92961400D01*
G75*
G02*
X148020000Y-93211399I0J-249999D01*
G01*
X148020000Y-93736401D01*
G75*
G02*
X147770001Y-93986400I-249999J0D01*
G01*
X146869999Y-93986400D01*
G75*
G02*
X146620000Y-93736401I0J249999D01*
G01*
X146620000Y-93211399D01*
G75*
G02*
X146869999Y-92961400I249999J0D01*
G01*
G37*
G36*
G01*
X146869999Y-94786400D02*
X147770001Y-94786400D01*
G75*
G02*
X148020000Y-95036399I0J-249999D01*
G01*
X148020000Y-95561401D01*
G75*
G02*
X147770001Y-95811400I-249999J0D01*
G01*
X146869999Y-95811400D01*
G75*
G02*
X146620000Y-95561401I0J249999D01*
G01*
X146620000Y-95036399D01*
G75*
G02*
X146869999Y-94786400I249999J0D01*
G01*
G37*
%TD*%
M02*
