M48
; DRILL file {KiCad (5.1.7)-1} date 11/23/20 17:17:01
; FORMAT={-:-/ absolute / inch / decimal}
; #@! TF.CreationDate,2020-11-23T17:17:01+01:00
; #@! TF.GenerationSoftware,Kicad,Pcbnew,(5.1.7)-1
; #@! TF.FileFunction,Plated,1,2,PTH
FMAT,2
INCH
T1C0.0197
T2C0.0394
T3C0.0512
%
G90
G05
T1
X4.54Y-3.374
X5.478Y-3.536
X5.718Y-3.668
T2
X5.094Y-3.118
X5.194Y-3.118
X5.294Y-3.118
X5.394Y-3.118
X5.494Y-3.118
X5.594Y-3.118
X4.548Y-3.91
X4.648Y-3.91
X4.748Y-3.91
X4.848Y-3.91
X4.948Y-3.91
X6.1Y-3.712
X6.1Y-3.812
X6.2Y-3.712
X6.2Y-3.812
X6.3Y-3.712
X6.3Y-3.812
X6.4Y-3.712
X6.4Y-3.812
X6.5Y-3.712
X6.5Y-3.812
X5.39Y-2.85
X5.39Y-2.95
X5.49Y-2.85
X5.49Y-2.95
X5.59Y-2.85
X5.59Y-2.95
X5.802Y-3.568
X5.902Y-3.568
X6.108Y-2.852
X6.108Y-2.952
X6.208Y-2.852
X6.208Y-2.952
X6.308Y-2.852
X6.308Y-2.952
X6.408Y-2.852
X6.408Y-2.952
X6.508Y-2.852
X6.508Y-2.952
X5.8Y-3.114
X5.8Y-3.214
X5.8Y-3.314
X5.9Y-3.114
X5.9Y-3.214
X5.9Y-3.314
T3
X4.37Y-2.81
X4.37Y-3.0069
T0
M30
